<svg class="schedule__svg" xmlns="http://www.w3.org/2000/svg" width="60" height="39" viewBox="0 0 40 26"><path d="M34.79 14.598C34.79 6.535 28.167 0 20 0S5.21 6.535 5.21 14.598zM.95 16.473h38.1c.5 0 .903.398.903.894 0 .492-.402.89-.902.89H.949a.895.895 0 01-.902-.89c0-.496.402-.894.902-.894zm5.773 3.867h26.554c.5 0 .907.402.907.894a.9.9 0 01-.907.891H6.723a.899.899 0 01-.907-.89c0-.493.407-.895.907-.895zm5.547 3.87h15.46c.5 0 .907.4.907.892a.902.902 0 01-.907.894H12.27a.902.902 0 01-.907-.894.9.9 0 01.907-.891zm0 0" fill="#fff"/></svg>