<svg version="1.0" xmlns="http://www.w3.org/2000/svg" width="172" height="172" viewBox="0 0 129 129"><path d="M110.9 18.6c-1.9.7-25.2 9.7-51.9 19.9-26.6 10.2-49.1 19.2-49.9 20-1.2 1.1-1.3 2-.5 3.2 1.2 1.9 26 10.6 28.5 10 .9-.3 14.9-8.6 31.3-18.6C84.7 43 98.5 35 99.1 35.2c.6.2-9.1 9.7-21.6 21.2-12.4 11.4-23.2 21.8-23.9 23-.8 1.2-1.7 6.9-2.1 13.9-.5 9.9-.4 11.7.8 11.7.8 0 4.9-3.2 9.1-7.1l7.5-7 12.6 9.5c6.9 5.3 13.4 10 14.3 10.5 2.4 1.2 5.8-.3 6.5-3.1.3-1.3 4.7-20.9 9.7-43.6 8.4-38.1 9-41.5 7.6-43.6-1.9-3.1-4.5-3.6-8.7-2z"/></svg>