<svg xmlns="http://www.w3.org/2000/svg" id="Шар_1" data-name="Шар 1" viewBox="0 0 220 220"><defs><clipPath id="clip-path"><path d="M0 0h220v212a8 8 0 01-8 8H8a8 8 0 01-8-8V0z" fill="none"/></clipPath><style>.cls-3{fill:#481d77}.cls-4{fill:#60269e}.cls-5{fill:#471a77}.cls-6{fill:#a27bc5}.cls-7{fill:#101820}.cls-8,.cls-9{fill:#444a50}.cls-8{opacity:.26;isolation:isolate}</style></defs><g clip-path="url(#clip-path)"><path class="cls-3" d="M43.02 218.52V220h10.57l.05-1.48H43.02z"/><path class="cls-4" d="M143.94 76.54v40.4l2.75-1.76 2.84 1.82V76.54h-5.59zm61.21 36.66h-9.13v17.45h-1V113.2h-9.1v58.89h19.23V113.2zm-95.93 36.52V74.2L78.87 53.15V220h17.14v-70.28h13.21zM3.14 63.35H0v53.73l3.14 1.68V63.35z"/><path class="cls-4" d="M196.02 130.65V78.5h-1v52.15h1zM120.96 95.2l-9.91 9.48v45.04h9.21v-17.59l10.55-6.77v-20.68l-9.85-9.48zM43 218.52h10.64l.33-9.16A23.22 23.22 0 0143 206.07zm0-51.77a54.29 54.29 0 016.56-7.87c4.32-4.35 6.74-4.65 11.38 0a46.59 46.59 0 018.81 14v-39.33H16.27v21H43zm26.16 37.83l-.18.16c-.33.3-.67.58-1 .85l-.2.14c-.36.26-.72.5-1.1.73l-.21.12c-.34.2-.68.39-1 .56l-.31.15c-.34.16-.68.31-1 .45l-.37.15-1.07.37-.46.14-1 .28-.5.11c-.35.08-.71.15-1.06.21l-.46.08-1.14.15h-.32c-.43.05-.86.08-1.29.11h-1l.2 9.14h14.08V204c-.2.19-.4.39-.61.58zM178.43 35.31h-20.84v86.84l15.63 9.98v39.96h5.21V35.31z"/><path class="cls-5" d="M168 172.09h5.21v-40l-15.63-10-8.05-5.09-2.85-1.82-2.68 1.76-13.14 8.42-10.55 6.77v17.59h.67V220H168zm-16.3-33.35h5.9v15.89h-5.9zm-8.84 46.11H137V169h5.91zm0-30.22H137v-15.89h5.91zm8.85 14.37h5.9v15.9h-5.9z"/><path class="cls-5" d="M185.92 172.09H168V220h18c-5.51-9.67 2.85-14.58 2.85-14.58-8.57-8.76 6.68-11.15 6.68-11.15-1.88-10.61 7.71-5.48 7.71-5.48 2.58-6.62 11.77-7.14 16.76-6.91v-9.79h-34.08z"/><path class="cls-6" d="M136.96 138.74h5.91v15.9h-5.91zm14.75 0h5.91v15.9h-5.91zm-14.75 30.21h5.91v15.9h-5.91zm14.75 0h5.91v15.9h-5.91z"/><path class="cls-5" d="M120.93 149.72H96V220h24.92zm-14.85 52.37h-5.91v-15.9h5.91zm0-30.19h-5.91V156h5.91zm8.83-15.9h5.91v15.9h-5.91zm5.91 46.09h-5.91v-15.9h5.91z"/><path class="cls-6" d="M100.17 156h5.91v15.9h-5.91zm14.74 0h5.91v15.9h-5.91zm-14.74 30.19h5.91v15.9h-5.91zm14.74 0h5.91v15.9h-5.91z"/><path class="cls-5" d="M15.17 154.53v-29.36l-12-6.41L0 117.08V220h12.6v-65.47zM7.06 203.4H2.9v-11.22h4.16zm0-21.32H2.9v-11.23h4.16zm0-21.35H2.9V149.5h4.16z"/><path class="cls-5" d="M43 206.07c-3.88-2.37-6.74-5.87-7.57-10-1.25-6.27-.3-17.77 7.57-29.32v-12.22H12.6V220H43v-13.93zm-12.17-43.41H35v11.23h-4.17zm-10.45 0h4.17v11.23h-4.17z"/><path class="cls-6" d="M2.9 149.5h4.16v11.23H2.9zm0 21.35h4.16v11.23H2.9zm0 21.33h4.16v11.23H2.9zm17.48-29.52h4.16v11.23h-4.16zm10.45 0h4.16v11.23h-4.16z"/><path class="cls-7" d="M73.73 195.75a17.38 17.38 0 01-.37 1.72 17.38 17.38 0 00.37-1.72zm-.41 1.87a16.57 16.57 0 01-1.26 3.19 16.57 16.57 0 001.26-3.19zm.68-3.94c0 .63-.11 1.24-.2 1.82.06-.58.13-1.19.2-1.82zm-2.86 8.63a14.18 14.18 0 01-.88 1.13 14.18 14.18 0 00.88-1.13zm.86-1.46a13.44 13.44 0 01-.81 1.33 13.44 13.44 0 00.81-1.33zm-7.94 6.89zm2.59-1.28c.38-.23.74-.47 1.1-.73-.36.27-.75.5-1.1.73zm-1.25.68c.36-.17.7-.36 1-.56-.3.2-.65.42-1 .56zm-2.78 1.12l1.07-.37zm-1.51.42l1-.28zm-4.77.69c.43 0 .86-.06 1.29-.11zm3.21-.37zm-1.55.23l1.14-.15zm10-3.64c.36-.27.7-.55 1-.85-.35.26-.69.58-1 .85zm1.16-1.01c.21-.19.41-.39.61-.6s.24-.25.35-.38c-.31.34-.63.67-.96.98zm-19.58-45.7a54.29 54.29 0 00-6.58 7.87c-7.87 11.55-8.82 23.05-7.57 29.32.83 4.13 3.69 7.63 7.57 10a23.22 23.22 0 0011 3.29c-8.89-.41-17-5.81-18.52-13.29-1.37-6.95-.05-20.35 10.45-33.14-5.93 17.65-.68 32.07 8.41 36.32l.47-13.06.3 13.24 6.89-3.76-5.53 4.33c5.25 1.42 11.47-.35 17.51-6.49a27.49 27.49 0 000-3.15 52.78 52.78 0 00-4.22-17.45 46.59 46.59 0 00-8.81-14c-4.63-4.68-7.05-4.38-11.37-.03z"/><path class="cls-3" d="M72.06 200.81s-.01.01 0 0z"/><path class="cls-8" d="M72.06 200.81s-.01.01 0 0z"/><path class="cls-3" d="M73.77 195.5v.25c-.03-.08-.01-.16 0-.25z"/><path class="cls-8" d="M73.77 195.5v.25c-.03-.08-.01-.16 0-.25z"/><path class="cls-3" d="M73.36 197.47v.15c0 .05-.01-.1 0-.15z"/><path class="cls-8" d="M73.36 197.47v.15c0 .05-.01-.1 0-.15z"/><path class="cls-3" d="M71.23 202.18l-.09.13z"/><path class="cls-8" d="M71.23 202.18l-.09.13z"/><path class="cls-3" d="M70.26 203.44l-.14.16z"/><path class="cls-8" d="M70.26 203.44l-.14.16z"/><path class="cls-3" d="M74 193.52v.15a.88.88 0 010-.15z"/><path class="cls-8" d="M74 193.52v.15a.88.88 0 010-.15z"/><path class="cls-4" d="M69.16 204.58l-.18.16z"/><path class="cls-8" d="M69.16 204.58l-.18.16z"/><path class="cls-4" d="M59.09 209.08l.46-.08z"/><path class="cls-8" d="M59.09 209.08l.46-.08z"/><path class="cls-4" d="M57.63 209.26h.32z"/><path class="cls-8" d="M57.63 209.26h.32z"/><path class="cls-4" d="M66.44 206.58l.21-.12z"/><path class="cls-8" d="M66.44 206.58l.21-.12z"/><path class="cls-4" d="M67.75 205.73l.2-.14z"/><path class="cls-8" d="M67.75 205.73l.2-.14z"/><path class="cls-4" d="M63.69 207.89l.37-.15z"/><path class="cls-8" d="M63.69 207.89l.37-.15z"/><path class="cls-4" d="M62.16 208.4l.46-.14z"/><path class="cls-8" d="M62.16 208.4l.46-.14z"/><path class="cls-4" d="M60.61 208.79l.5-.11z"/><path class="cls-8" d="M60.61 208.79l.5-.11z"/><path class="cls-4" d="M65.09 207.29l.31-.15z"/><path class="cls-8" d="M65.09 207.29l.31-.15z"/><path class="cls-7" d="M45.9 162.93c-10.5 12.79-11.82 26.19-10.45 33.14C37 203.55 45.08 209 54 209.36l.09-2.53-6.82-9.63 6.91 7.26.19-5.21C45.25 195 40 180.58 45.9 162.93z"/><path class="cls-8" d="M45.9 162.93c-10.5 12.79-11.82 26.19-10.45 33.14C37 203.55 45.08 209 54 209.36l.09-2.53-6.82-9.63 6.91 7.26.19-5.21C45.25 195 40 180.58 45.9 162.93z"/><path class="cls-7" d="M56.47 200l-1.32 1 .19 8.31h1l1.29-.11h.32l1.14-.15.46-.08c.35-.06.71-.13 1.06-.21l.5-.11 1-.28.46-.14 1.07-.37.37-.15c.35-.14.69-.29 1-.45l.31-.15c.35-.17.7-.36 1-.56l.21-.12c.38-.23.74-.47 1.1-.73l.2-.14c.36-.27.7-.55 1-.85l.18-.16c.33-.31.65-.64 1-1l.14-.16a14.18 14.18 0 00.88-1.13l.09-.13a13.44 13.44 0 00.81-1.33 16.57 16.57 0 001.26-3.19v-.15a17.38 17.38 0 00.37-1.72v-.25c.09-.58.16-1.19.2-1.82v-.15c-5.82 6.15-12.04 7.92-17.29 6.48z"/><path class="cls-8" d="M56.47 200l-1.32 1 .19 8.31h1l1.29-.11h.32l1.14-.15.46-.08c.35-.06.71-.13 1.06-.21l.5-.11 1-.28.46-.14 1.07-.37.37-.15c.35-.14.69-.29 1-.45l.31-.15c.35-.17.7-.36 1-.56l.21-.12c.38-.23.74-.47 1.1-.73l.2-.14c.36-.27.7-.55 1-.85l.18-.16c.33-.31.65-.64 1-1l.14-.16a14.18 14.18 0 00.88-1.13l.09-.13a13.44 13.44 0 00.81-1.33 16.57 16.57 0 001.26-3.19v-.15a17.38 17.38 0 00.37-1.72v-.25c.09-.58.16-1.19.2-1.82v-.15c-5.82 6.15-12.04 7.92-17.29 6.48z"/><path class="cls-9" d="M55.34 209.38l-.19-8.31-.47.37v-1.77l.43-.24-.3-13.24-.47 13.06-.19 5.21.53.55-.27 2.31-.35-.48-.09 2.52-.33 9.16-.05 1.48h1.99l-.04-1.48-.2-9.14z"/><path class="cls-9" d="M54.06 206.84l.35.48.27-2.31-.53-.55-6.91-7.26 6.82 9.64zm7.92-11.17l-6.87 3.76-.43.24v1.77l.47-.37 1.32-1.05 5.51-4.35z"/><path class="cls-7" d="M203.24 188.79s-9.59-5.13-7.71 5.48c0 0-15.25 2.39-6.68 11.15 0 0-8.36 4.91-2.85 14.58h34v-38.12c-5-.23-14.18.29-16.76 6.91z"/><path class="cls-4" d="M101.7 30.63h27.74a3.06 3.06 0 100-6.12H101.7a3.06 3.06 0 000 6.12zm16.92-7.23H134a3.06 3.06 0 100-6.12h-15.38a3.1 3.1 0 00-3.06 3.06 3.06 3.06 0 003.06 3.06z"/></g></svg>