<svg xmlns="http://www.w3.org/2000/svg" id="Шар_1" data-name="Шар 1" viewBox="0 0 220 220"><defs><clipPath id="clip-path"><path class="cls-1" d="M0 0h220v212a8 8 0 01-8 8H8a8 8 0 01-8-8V0z"/></clipPath><clipPath id="clip-path-2"><path class="cls-1" d="M220 0h220v212a8 8 0 01-8 8H228a8 8 0 01-8-8V0z"/></clipPath><style>.cls-1{fill:none}.cls-3{fill:#481d77}.cls-4{fill:#60269e}.cls-5{fill:#471a77}.cls-6{fill:#a27bc5}.cls-7{fill:#101820}.cls-8,.cls-9{fill:#444a50}.cls-8{opacity:.26;isolation:isolate}</style></defs><g clip-path="url(#clip-path)"><path class="cls-3" d="M50.86 200.42h-2.68v1.72a21 21 0 003.2-1.69h-.52zm161.92-7.14v10.77h-4.68v11.7c2.74-1.18 5-2.48 6-.75 1.12 1.94 2.8 4.26 3.34 5H220v-26.72zM12.85 212.12L13 220h.64v-7.89zm168.61-.61c4.81.19 6.18 5.37 9.46 3.12.66-.46 1.3-1 1.93-1.46V208h-6.23v-10.75h-58.01v3.22H67.47a9.3 9.3 0 011.92 2.82c3.27 7.12-3.38 8.5-3.86 8.59.32-.06 7.88-1.44 8.64 1.4s-5.1 5.8-5.1 5.8-1.32.4-3.29 1H176c.45-4.54 1.21-8.73 5.46-8.57zM0 208.48V220h11.2l.29-7.9A23.11 23.11 0 010 208.48z"/><path class="cls-4" d="M28.09 73.29H17.13v62.93l10.96-7.01V73.29zM12 149.48h1.16V51.91H0v66.79h12v30.78z"/><path class="cls-5" d="M1.52 168.06a53.83 53.83 0 014.66-5.53H4.75v-12.11h3.68v9.92a13.87 13.87 0 011.35-1v-3.87H12V118.7H0v51.56c.48-.73 1-1.46 1.51-2.19zm3.23-40.63h3.68v12.11H4.75z"/><path class="cls-5" d="M13.67 158.37v-2.93H9.78v3.87a4.87 4.87 0 013.89-.94z"/><path class="cls-6" d="M4.75 127.43h3.68v12.11H4.75zm3.68 32.91v-9.92H4.75v12.11h1.43a30.05 30.05 0 012.25-2.19z"/><path class="cls-4" d="M97.86 52.05h3.97v12.7h-3.97zm9.56 0h3.97v12.7h-3.97zm-2.25 12.7h2.25V36.98h-2.25v27.77zm-1.08 0V36.98h-2.25v27.77h2.25zm0 0h1.08V17.7h-1.08v47.05zm86.75 94.93V98.13H177.7v99.12h8.92v-37.57h4.22zM177.7 82.96h-16.19v114.27h-3.04v.02h19.23V82.96z"/><path class="cls-4" d="M161.51 82.96V13.75l-39.43 19.91v31.09h3.52v68.88h3.01v63.6h32.9V82.96z"/><path class="cls-4" d="M100.73 104.31v29.32h24.87V64.75H83.63v30.42l17.1 9.14zm-28.6 18.1h-3.65v7.66a6.41 6.41 0 013.65-1.58zm-23.95 78.01H30.81c-1.68 6-6 9.18-10.95 10.66-.47.14-.94.26-1.42.37h-.13q-.69.16-1.38.27h-.16c-.46.07-.92.14-1.38.19h-.11c-.47 0-.94.09-1.4.11h-.19V220h34.47v-17.86zm-29.7-38.78c3.58 3.59 8.47 11.26 11.14 20.65v-51.24h7L31 127.38l-2.87 1.83-11 7-3.46 2.22v19.93c1.42.34 2.93 1.4 4.81 3.28z"/><path class="cls-7" d="M60.4 157.83v-11h11.73v-18.34a6.41 6.41 0 00-3.65 1.58 7.67 7.67 0 00-2.28 6c-3.44-1.61-7.49 1.16-5.24 8.73a7.38 7.38 0 00-7.52-.13v13.21z"/><path class="cls-5" d="M50.86 157.83h2.58v-26.78h-7V136h3.23v11.22h-3.24v10.13h3.23v11.22h-3.23v13.27h-9.8v-13.27h-1.56v-11.22h1.56v-10.13h-1.56V136h1.56v-4.95h-7v51.24a49.35 49.35 0 011.88 10.83 22.06 22.06 0 01-.69 7.3h20.04z"/><path class="cls-5" d="M36.63 136h2.61v11.22h-2.61v10.13h2.61v11.22h-2.61v13.27h9.8v-13.27h-.94v-11.22h.94v-10.13h-.94V136h.94v-31.42h-3.97v64.64h-1.88v-64.64h-3.95V136z"/><path class="cls-5" d="M40.58 169.22h1.88V70.6h-1.88v98.62zm19.82-11.39h-9.54v42.62h.52c3.18-2 6-4.18 6.84-1.69a10.13 10.13 0 012.18-.48zm11.73-11.01H60.4v51.46a8.39 8.39 0 017.07 2.14h4.66zm26.05-13.19h2.55v-29.32l-17.1-9.14L72.13 89v111.45h26.05zm-16-5v11.23h-4.11v-11.25zm-4.16 42.67h4.16v11.23h-4.11zm0-10.09V150h4.16v11.23zM92.65 150v11.23h-4.16V150zm-4.16-10.12v-11.27h4.16v11.23zm4.16 31.44v11.23h-4.16v-11.27z"/><path class="cls-5" d="M125.6 133.63H98.18v66.82h30.43v-66.82zm-9.21 8.14h4.16V153h-4.16zm0 21.35h4.16v11.23h-4.16zM106 141.77h4.16V153H106zm0 21.35h4.16v11.23H106z"/><path class="cls-6" d="M78.07 128.61h4.16v11.23h-4.16zm10.42 0h4.16v11.23h-4.16zm-10.42 21.35h4.16v11.23h-4.16zm10.42 0h4.16v11.23h-4.16zm-10.42 21.32h4.16v11.23h-4.16zm10.42 0h4.16v11.23h-4.16zm17.48-29.51h4.16V153h-4.16zm10.42 0h4.16V153h-4.16zm-10.42 21.35h4.16v11.23h-4.16zm10.42 0h4.16v11.23h-4.16zM39.24 136h-4.17v11.22h4.17V136zm6.25 11.22h4.17V136h-4.17v11.22zm-6.25 10.13h-4.17v11.22h4.17v-11.22zm6.25 11.22h4.17v-11.22h-4.17v11.22z"/><path class="cls-7" d="M74.17 213.23c-.76-2.84-8.32-1.46-8.64-1.4.48-.09 7.13-1.47 3.86-8.59a9.3 9.3 0 00-1.92-2.82 8.39 8.39 0 00-7.07-2.14 10.13 10.13 0 00-2.18.48c-.83-2.49-3.66-.28-6.84 1.69a21 21 0 01-3.2 1.69V220h17.6c2-.57 3.29-1 3.29-1s5.93-2.87 5.1-5.77zM0 170.26c.48-.73 1-1.46 1.51-2.19-.51.73-1.03 1.46-1.51 2.19zm18.29 41.23q-.69.16-1.38.27.69-.1 1.38-.27zm-1.54.3zm3.09-.7zm-6.99 1.03h1c.46 0 .93-.06 1.4-.11-.48 0-.95.09-1.43.11h-.97zm18.65-19a49.35 49.35 0 00-1.88-10.83c-2.67-9.39-7.56-17.06-11.14-20.65-1.88-1.88-3.39-2.94-4.81-3.27a4.87 4.87 0 00-3.89.94 13.87 13.87 0 00-1.35 1c-.44.38-.89.8-1.37 1.28-.3.3-.59.6-.88.91a53.83 53.83 0 00-4.66 5.53c.59-.8 1.21-1.59 1.86-2.39-5.88 17.69-.63 32.16 8.47 36.36l.48-13.06.3 13.24 6.87-3.76-5.5 4.35c5.25 1.41 11.47-.37 17.49-6.51-.54 8.72-5.7 13-11.61 14.82 4.9-1.48 9.27-4.67 11-10.66a22.06 22.06 0 00.62-7.3z"/><path class="cls-3" d="M11.49 212.1A23.09 23.09 0 010 208.46a23.11 23.11 0 0011.49 3.62z"/><path class="cls-8" d="M11.49 212.1A23.09 23.09 0 010 208.46a23.11 23.11 0 0011.49 3.62z"/><path class="cls-4" d="M18.42 211.46h-.13z"/><path class="cls-8" d="M18.42 211.46h-.13z"/><path class="cls-4" d="M16.91 211.76h-.16z"/><path class="cls-8" d="M16.91 211.76h-.16z"/><path class="cls-7" d="M11.58 209.57l-6.83-9.63 6.91 7.26.19-5.21c-9.1-4.19-14.35-18.66-8.47-36.32-.65.8-1.27 1.59-1.86 2.39-.53.73-1 1.46-1.51 2.19v38.2a23.09 23.09 0 0011.49 3.64z"/><path class="cls-8" d="M11.58 209.57l-6.83-9.63 6.91 7.26.19-5.21c-9.1-4.19-14.35-18.66-8.47-36.32-.65.8-1.27 1.59-1.86 2.39-.53.73-1 1.46-1.51 2.19v38.2a23.09 23.09 0 0011.49 3.64z"/><path class="cls-7" d="M31.47 196.26c-6 6.14-12.24 7.92-17.49 6.51l-1.32 1 .19 8.31h1c.48 0 .95-.06 1.43-.11h.11c.46 0 .92-.12 1.38-.19h.16q.69-.1 1.38-.27h.13c.48-.11.95-.23 1.42-.37 5.91-1.85 11.07-6.14 11.61-14.88z"/><path class="cls-8" d="M31.47 196.26c-6 6.14-12.24 7.92-17.49 6.51l-1.32 1 .19 8.31h1c.48 0 .95-.06 1.43-.11h.11c.46 0 .92-.12 1.38-.19h.16q.69-.1 1.38-.27h.13c.48-.11.95-.23 1.42-.37 5.91-1.85 11.07-6.14 11.61-14.88z"/><path class="cls-9" d="M12.85 212.12l-.19-8.31-.47.37v-1.77l.44-.24-.3-13.24-.48 13.06-.19 5.21.53.55-.27 2.31-.34-.49-.09 2.53h-.01l-.28 7.9h1.83l-.18-7.88z"/><path class="cls-9" d="M4.75 199.94l6.83 9.63.34.49.27-2.31-.53-.55-6.91-7.26zm9.23 2.83l5.52-4.36-6.87 3.76-.44.24v1.77l.47-.37 1.32-1.04z"/><path class="cls-4" d="M215.14 94.16h.99v52.15h-.99zm-23.63 47.05h6.84v13.67h5.11v-15.47h2.55v-34.16l-15.12 9.15v45.28h.62v-18.47z"/><path class="cls-4" d="M211.35 163.6h1.43v-24.19h-9.32v15.47h4.64v49.17h4.68v-10.77h-1.43V163.6z"/><path class="cls-4" d="M203.46 154.88h-5.11v4.8h4.87V208h-10.37v5.17c2.45-1.92 4.61-3.67 6.66-1.79 2.58 2.36 1.53 6.39 5.59 5.42a18.66 18.66 0 003-1.05v-60.87z"/><path class="cls-5" d="M203.22 159.68h-4.87v17.97h1.94v7.81h-1.94v9.56h-6.84v-9.56h-1.4v-7.81h1.4v-7.04h-1.4v-7.81h1.4v-3.12h-4.89V208h16.6v-48.32z"/><path class="cls-5" d="M191.51 141.21v21.59h1.5v7.81h-1.5v7.04h1.5v7.81h-1.5v9.56h6.84v-9.56h-.96v-7.81h.96v-36.44h-6.84zm19.84 22.39v29.68H220V163.6h-8.65z"/><path class="cls-6" d="M193.01 170.61v-7.81h-2.9v7.81h2.9zm0 14.85v-7.81h-2.9v7.81h2.9zm4.38 0h2.9v-7.81h-2.9v7.81z"/><path class="cls-7" d="M208.1 215.75a18.66 18.66 0 01-3 1.05c-4.06 1-3-3.06-5.59-5.42-2-1.88-4.21-.13-6.66 1.79-.63.5-1.27 1-1.93 1.46-3.28 2.25-4.65-2.93-9.46-3.12-4.25-.16-5 4-5.45 8.49h41.39c-.54-.74-2.22-3.06-3.34-5-.99-1.73-3.22-.43-5.96.75z"/></g><g clip-path="url(#clip-path-2)"><path class="cls-5" d="M220 163.6h.03v29.68H220z"/></g></svg>