<svg xmlns="http://www.w3.org/2000/svg" viewBox="0 0 436.64 477.57"><defs><style>.cls-5{fill:#101820}.cls-2{fill:#fff}.cls-3{fill:#282828}.cls-4{fill:#3f3f3f}.cls-6{fill:#ea0029}</style></defs><g id="Block_3" data-name="Block 3"><ellipse cx="196.66" cy="443.61" rx="150.01" ry="14.87" opacity=".15" fill="#101820"/><path class="cls-2" d="M296.11 396.82c11.16-17.17 30.51-38.75 39.16-44.94 8.44-6 16.51-9.92 24.88-7.43 8.89 2.65 14.91 12.1 16.16 20.44 2.8 18.86-18.4 35-26.08 40.82-26.93 20.47-59.05 20.07-74 18.77"/><path d="M288.09 427.46c19.26 0 43-4.12 63.63-19.79 8.22-6.25 30-22.84 27-43.14-1.29-8.62-7.43-19.33-17.89-22.43-10-3-19.29 2.25-27 7.78-8.6 6.15-28.27 27.86-39.79 45.6l4.12 2.68c11.25-17.3 30.28-38.37 38.53-44.29 9.58-6.84 16.38-9 22.75-7.06 8 2.39 13.33 11.08 14.42 18.44 2.59 17.43-17.55 32.74-25.13 38.5-23.95 18.22-52.54 20-72.33 18.28l-.42 4.9c3.76.33 7.83.53 12.11.53z"/><path class="cls-2" d="M293.29 312.84a4.91 4.91 0 00-1.81 7.43c15 19.35 24.5 49.13 24.5 73.11a49.51 49.51 0 01-49.51 49.51H128.3a49.51 49.51 0 01-49.51-49.51c0-24.05 8.22-53.93 23-73.27a4.84 4.84 0 00-2.33-7.48"/><path class="cls-3" d="M292.1 312.21l-74.7 1.84 8.44 128.84h44.06s38-4.87 42.86-33.73-1.83-56.46-10.64-70.4-11.22-22.12-10.02-26.55z"/><path class="cls-4" d="M219.07 328.21l6.65 107.05 16.06-66.89 9.99-9.53-17.9-29.49-2.87 2.53-11.93-3.67z"/><path class="cls-3" d="M101.39 312.21l74.7 1.84-8.44 128.84h-44.06s-38-4.87-42.86-33.73 1.83-56.46 10.64-70.4 11.22-22.12 10.02-26.55z"/><path class="cls-4" d="M158.85 326.03l-16.32 33.27 10.44 12.51 13.2 62.19 7.92-104.76-13.43 3.9-1.81-7.11z"/><path class="cls-5" d="M99.93 318.63a2.28 2.28 0 00.27-2.33 2.48 2.48 0 00-1.92-1.46c.78-1.47 1.51-3 2.27-4.46a7.44 7.44 0 014.15 3.93 7.11 7.11 0 01-.86 7.29c-13.43 17.64-22.45 46.48-22.45 71.77a47.1 47.1 0 0047.05 47.06h138.17a47.1 47.1 0 0047.05-47.06c0-24.3-9.64-53.07-24-71.59a7.23 7.23 0 01-.93-7.41 7.52 7.52 0 013.53-3.7c.7 1.48 1.39 3 2.07 4.47a2.65 2.65 0 00-1.09 1.2 2.34 2.34 0 00.31 2.42c15 19.32 25 49.3 25 74.61a52 52 0 01-52 52H128.44a52 52 0 01-52-52c0-26.29 9.43-56.33 23.45-74.74z"/><path class="cls-2" d="M99.56 312.35l193.44-.14.09.19c-20.51 1.17-134.26 7.18-193.61.1z"/><path class="cls-5" d="M100.66 310.15c58 6.75 168.18 1.15 191.3-.14.76 1.59 1.5 3.19 2.24 4.8-11.75.67-64.66 3.52-116.82 3.52-29 0-57.76-.88-79.09-3.51.81-1.54 1.58-3.1 2.37-4.67z"/><path class="cls-5" d="M225.66 445.35a2.45 2.45 0 002.4-1.94l15.69-73 8.89-9.12a2.46 2.46 0 00.44-2.82l-22.37-44.58a2.46 2.46 0 10-4.39 2.21l21.58 43-8.17 8.37a2.48 2.48 0 00-.64 1.19L227 425l-7-109.86a2.41 2.41 0 00-2.61-2.3 2.27 2.27 0 00-2.16 2.61l8.17 127.56a2.24 2.24 0 002.14 2.29z"/><path class="cls-5" d="M222.32 391.11a2.44 2.44 0 001.75-.73L243.38 371a2.46 2.46 0 00-3.49-3.46l-19.31 19.4a2.47 2.47 0 001.74 4.2zm-54.81 54.24h.18a2.46 2.46 0 002.28-2.29l8.17-127a2.46 2.46 0 10-4.91-.32l-7 109.32-12.12-56.34a2.48 2.48 0 00-.64-1.19l-8.16-8.37L166.42 317a2.46 2.46 0 00-4.39-2.21l-21.94 43.72a2.46 2.46 0 00.44 2.82l8.89 9.12 15.69 73a2.45 2.45 0 002.4 1.9z"/><path class="cls-5" d="M171 391.11a2.47 2.47 0 001.74-4.2l-19.31-19.4a2.46 2.46 0 00-3.49 3.46l19.32 19.41a2.42 2.42 0 001.74.73z"/><circle class="cls-5" cx="196.65" cy="343.1" r="3.37"/><circle class="cls-5" cx="196.65" cy="371.17" r="3.37"/><circle class="cls-5" cx="196.65" cy="416.92" r="3.37"/><circle class="cls-5" cx="196.65" cy="427.31" r="3.37"/><path class="cls-6" d="M163.67 299.25c11.48 1.16 24.16 6.25 30.41 10.91a4.1 4.1 0 004.87 0c6.25-4.66 18.93-9.75 30.42-10.91a4.22 4.22 0 014.62 4.21v24.88a4.19 4.19 0 01-5.57 4c-8.06-2.82-22.74-8.3-29.65-12.89a4.07 4.07 0 00-4.51 0c-6.9 4.59-21.59 10.07-29.64 12.89a4.2 4.2 0 01-5.58-4v-24.88a4.23 4.23 0 014.63-4.21z"/><path class="cls-5" d="M159.53 333.8a6.7 6.7 0 01-2.81-5.46v-24.88a6.69 6.69 0 012.21-5 6.59 6.59 0 015.12-1.69c12.43 1.25 25.32 6.67 31.64 11.38a1.61 1.61 0 001.93 0c6.32-4.71 19.22-10.13 31.64-11.38a6.58 6.58 0 015.12 1.69 6.69 6.69 0 012.21 5v24.88a6.65 6.65 0 01-8.85 6.31c-8.23-2.89-23.09-8.44-30.2-13.18a1.64 1.64 0 00-1.78 0c-7.1 4.74-22 10.29-30.19 13.18a6.68 6.68 0 01-6-.85zm40.74-16.42c6.66 4.43 21.09 9.81 29.1 12.62a1.71 1.71 0 001.56-.21 1.76 1.76 0 00.74-1.45v-24.88a1.77 1.77 0 00-.59-1.33 1.8 1.8 0 00-1.33-.44c-11.41 1.16-23.56 6.24-29.19 10.44a6.56 6.56 0 01-7.81 0c-5.63-4.2-17.78-9.28-29.19-10.44a1.83 1.83 0 00-1.33.44 1.8 1.8 0 00-.59 1.33v24.88a1.76 1.76 0 00.74 1.45 1.67 1.67 0 001.56.21c8-2.81 22.44-8.19 29.1-12.62a6.49 6.49 0 017.23 0z"/><circle class="cls-6" cx="196.52" cy="315.06" r="9.35"/><path class="cls-5" d="M184.85 315.06a11.81 11.81 0 1111.8 11.8 11.82 11.82 0 01-11.8-11.8zm4.92 0a6.89 6.89 0 106.88-6.89 6.89 6.89 0 00-6.88 6.89z"/><path class="cls-2" d="M307.51 395.87l-59.99-4.96"/><path class="cls-5" d="M307.52 398.33a2.46 2.46 0 00.2-4.91l-60-5a2.46 2.46 0 10-.41 4.9l60 5z"/><path class="cls-2" d="M142.16 388.65l-55.03 10.59"/><path class="cls-5" d="M87.12 401.69a2.49 2.49 0 00.47 0l55-10.59a2.46 2.46 0 001.95-2.88 2.49 2.49 0 00-2.88-1.95l-55 10.59a2.46 2.46 0 00.46 4.87zm109.53-123.31"/><path stroke="#101820" stroke-linecap="round" stroke-linejoin="round" stroke-width="5" fill="#ea0029" d="M195.45 337.97l-19.43 50.83 19.43 19.42 19.42-19.42-19.42-50.83z"/><path class="cls-6" d="M195.45 328.39h-16.24l12.88 19.16h6.72l12.87-19.16h-16.23z"/><path class="cls-5" d="M198.81 350.28h-6.72a2.73 2.73 0 01-2.27-1.21l-12.88-19.16a2.75 2.75 0 01-.14-2.81 2.72 2.72 0 012.41-1.44h32.47a2.73 2.73 0 012.27 4.25l-12.88 19.16a2.7 2.7 0 01-2.26 1.21zm-5.27-5.46h3.81l9.21-13.7h-22.23z"/><path class="cls-2" d="M162.63 97.9s56-30.71 95.65-41.94c18.37-5.32 33.72-3.54 29.59 15.36s-6.5 40.17-6.5 40.17z"/><path d="M189.66 87.76c-3.5 3.92 62.16-4.9 92.27 5.5L284.6 92l4.4-25.17s2.7-18.72-24.23-13.09-70.1 28.39-75.11 34.02z" fill="#efefef"/><path class="cls-5" d="M283 113.57L156.56 99.1l5.17-2.84c.56-.31 56.65-30.95 96-42.1 9.53-2.77 22.27-4.78 28.77 1.3 3.71 3.47 4.77 8.94 3.17 16.26-4.06 18.59-6.44 39.77-6.46 40zM168.82 96.72l110.91 12.69c.68-5.62 2.91-22.94 6.31-38.49 1.3-5.94.6-10.22-2.07-12.72-4.06-3.8-13-4-25.17-.44-31.94 9.05-75.11 31.11-89.98 38.96z"/><path d="M348.49 150.22a8.27 8.27 0 0015.05-.05l10.72-23.83c4.54-10.09-6.52-21.14-17.53-17.51l-24.47 8.06a8.29 8.29 0 00-1.18 15.22 39.51 39.51 0 0117.41 18.11z"/><path class="cls-2" d="M141.47 315.56a88.36 88.36 0 01-80.34-88S48 130 139.89 99.75a210.49 210.49 0 01157.53 0s69.44-10.41 88.34-8.94 26.29 13.3 18 28.36-31.14 72.07-31.14 72.07-2.36 20.41-4.13 38.1c-4.6 45.93-27.71 82.26-72.84 86.24"/><path class="cls-5" d="M295.84 317.45l-.33-3.74c40.18-3.54 66.1-34.36 71.13-84.55 1.75-17.51 4.11-37.93 4.14-38.14l.12-.48c.93-2.33 23-57.28 31.24-72.27 3.51-6.4 4.08-12.16 1.65-16.66-2.73-5-9.18-8.22-18.17-8.92-18.48-1.45-87.23 8.81-87.92 8.92l-.51.07-.48-.19a208.94 208.94 0 00-156.11 0C51.2 130.88 62.86 226.35 63 227.31c0 45.32 33.83 82.35 78.66 86.38l-.34 3.74a89.73 89.73 0 01-82.05-89.87C59.13 226.81 47 128.3 139.3 98a212.65 212.65 0 01158.35-.15c6.84-1 70-10.29 88.26-8.88 10.3.81 17.83 4.67 21.18 10.89 3.07 5.67 2.49 12.67-1.66 20.24-7.86 14.31-29.35 67.64-31 71.64-.27 2.39-2.45 21.39-4.1 37.82-5.18 52.13-32.33 84.18-74.49 87.89z"/><path class="cls-2" d="M270.76 303c-53.37-6-108.13-12.48-105.41 4.27 1.76 10.81 40.71 38.81 91.44 44.5 0 0 62.55 11.65 56.37-39.65"/><path class="cls-3" d="M259 301.88c1.79-1.91 54.49.38 54.61 11.83s-1.13 35.63-29.2 38.46c-15.1.53-27.6-.42-27.6-.42s-11.15-32.81 2.19-49.87z"/><path class="cls-5" d="M271.17 354.79a87 87 0 01-14.73-1.2c-50.23-5.62-90.92-33.62-92.94-46a7.81 7.81 0 012.06-6.85c9.86-10.35 54.83-5.28 102.43.08l3 .34a1.86 1.86 0 011.65 2.07 1.89 1.89 0 01-2.08 1.66l-3-.34c-42.52-4.79-90.71-10.22-99.29-1.22a4 4 0 00-1.07 3.66c1.56 9.66 39 37.25 89.79 42.93.44.08 31 5.56 46.2-8.67 6.9-6.47 9.63-16.19 8.1-28.89a1.87 1.87 0 013.72-.45c1.68 14-1.43 24.75-9.26 32.09-9.45 8.84-23.75 10.79-34.58 10.79z"/><path class="cls-2" d="M99 301.4c53.37-6 117.44-7.1 117.38-2.92-.17 11-52.68 46-103.41 51.69 0 0-64.83 19.49-31.13-63.12a93.79 93.79 0 0015.26 14z"/><path class="cls-3" d="M99.08 301.32c-.25-.1-.56.4-.79.27a54.45 54.45 0 01-11.14-9.15c-1.9-2-3.44-4.43-5.23-6.41-2.14 4.45-7.07 16.31-9.06 34.69-2.66 24.69 16.14 29.49 23.63 31.36-14.71-14.97.41-46.45 2.59-50.76z"/><path class="cls-5" d="M100 353.74c-7.51 0-16.6-1.7-22.7-8.56-9.7-10.92-8.55-31.33 3.42-60.67.41-1 1-.49 2-.08s2 .55 1.58 1.55c-11.36 27.85-12.74 46.9-4.11 56.61 10.29 11.59 32 5.77 32.2 5.7 50.85-5.72 98.9-39.15 101.84-49-7.86-2.62-63.59-1.75-115.07 4a2 2 0 01-2.15-1.72 2 2 0 011.72-2.15c47.32-5.33 113.38-7.66 118.68-2.84a2.45 2.45 0 01.85 1.88c-.2 12.82-54.2 47.88-105.13 53.59a53.06 53.06 0 01-13.13 1.69z"/><path class="cls-2" d="M106.09 168.87c-2.83-2.08-5.6-4.29-8.33-6.52a2.86 2.86 0 01-.55-.28c-.88-.55-2-1.58-2.59-1.93s-1.26-1-1.88-1.46c-4.88 4.08-8.61 12.33-9.37 22.08-1.11 14.35 4.63 26.49 12.83 27.12s15.74-10.48 16.85-24.82a42.83 42.83 0 00-.38-10.15 51.06 51.06 0 01-6.58-4.04z"/><path class="cls-5" d="M110.45 171.7a40.55 40.55 0 01.66 11.21c-.51 6.6-2.44 12.67-5.44 17.08-2.77 4.09-6.08 6.22-9.32 5.95-7-.54-12-12-11-25 .72-9.34 4.41-17.39 9-21a22.48 22.48 0 01-3.09-2.5c-5.18 4.48-9 13-9.8 23.2-1.21 15.65 5.21 28.48 14.62 29.21h.83c4.4 0 8.64-2.69 12-7.67s5.54-11.7 6.1-19a45.87 45.87 0 00-.21-9.28 46.55 46.55 0 01-4.35-2.2z"/><path class="cls-2" d="M173.46 172.26a284.42 284.42 0 01-9.33 3.38 56.05 56.05 0 00-.26 5.24c0 17.71 8.2 32.07 18.33 32.07s18.32-14.36 18.32-32.07A49.43 49.43 0 00197 162c-7.35 4.31-15.62 7.25-23.54 10.26z"/><path class="cls-5" d="M198.3 161.26c-1.11.69-2.29 1.28-3.45 1.91a47.39 47.39 0 013.28 17.71c0 16.08-7.3 29.67-15.93 29.67s-15.93-13.55-15.93-29.67a52.39 52.39 0 01.35-6.07c-1.65.6-3.31 1.13-5 1.66-.1 1.44-.18 2.91-.18 4.41 0 19.33 9.1 34.47 20.73 34.47s20.72-15.14 20.72-34.47a51.57 51.57 0 00-3.86-20.21c-.23.19-.46.42-.73.59zm-93.67 24.79a4.53 4.53 0 01-7.7-3.59 4.5 4.5 0 01.77-2.17c-3.32.93-6.13 5.74-6.59 11.73-.53 6.87 2.22 12.68 6.14 13s7.53-5 8.06-11.88a19.49 19.49 0 00-.68-7.09z"/><path class="cls-5" d="M189.45 185.39a5.54 5.54 0 01-4.19 1.92 5.6 5.6 0 01-5.6-5.59 5.53 5.53 0 01.74-2.74c-4 1.45-7 7.62-7 15 0 8.48 3.93 15.35 8.78 15.35S191 202.48 191 194a23.87 23.87 0 00-1.55-8.61z"/><path class="cls-2" d="M204.26 157.41c-25 16.25-51.72 23-51.72 23"/><path class="cls-5" d="M152.54 182.32a1.87 1.87 0 01-.46-3.69c.26-.07 26.73-6.92 51.16-22.8a1.88 1.88 0 012 3.15c-25 16.23-52 23.22-52.29 23.29a1.85 1.85 0 01-.41.05z"/><path class="cls-2" d="M87 155s18.08 14.85 28.93 20"/><path class="cls-5" d="M115.92 176.87a1.76 1.76 0 01-.8-.18c-10.93-5.17-28.57-19.62-29.32-20.23a1.88 1.88 0 112.38-2.9c.18.15 18 14.76 28.55 19.74a1.89 1.89 0 01.89 2.5 1.86 1.86 0 01-1.7 1.07zM341.71 156a8.27 8.27 0 0014.58 3.73l16.36-20.37c6.93-8.63-1-22.1-12.57-21.36l-25.71 1.66c-7.33.47-10.32 9.41-5 14.44a39.51 39.51 0 0112.34 21.9zm-211.96 49.32l-10.24.29a3.68 3.68 0 00-3 5.6l5.37 8.73a3.68 3.68 0 006.37-.18l4.88-9a3.68 3.68 0 00-3.38-5.44z"/><path class="cls-2" d="M124.73 216.37l7.39 25.98"/><path class="cls-5" d="M126.54 215.86c.49 0 .39.18.45.31l.12.4.23.81.47 1.63.94 3.24 1.88 6.48q1.92 6.48 3.65 13L130 243q-2-6.47-3.75-13l-1.81-6.5-.91-3.25-.46-1.63-.23-.81-.11-.41c0-.14-.19-.24.23-.5zm128.3 136.49c-11.4-37 2.1-51.3 2.68-51.9l2.92 2.86-1.44-1.43 1.47 1.42c-.12.13-12.31 13.46-1.71 47.84zm-161.5.24a54.2 54.2 0 014.36-53L101 302c-.16.22-16 22.14-3.92 48.88z"/><path class="cls-5" d="M107.29 241.88a49 49 0 0011.82.48 101.71 101.71 0 0011.9-1.45c4-.71 7.86-1.59 11.68-2.68 1.9-.55 3.8-1.14 5.58-1.83a24.13 24.13 0 002.55-1.09c.76-.31 1.51-1 1.26-.69a3.11 3.11 0 015.09 3.58 9.44 9.44 0 01-3.87 2.57 29.81 29.81 0 01-3.16 1.1c-2.07.63-4.11 1.11-6.16 1.55-4.1.86-8.21 1.47-12.34 1.92a105.61 105.61 0 01-12.45.62 51.8 51.8 0 01-12.52-1.43 1.36 1.36 0 01.6-2.65z"/></g></svg>