<svg xmlns="http://www.w3.org/2000/svg" id="Шар_1" data-name="Шар 1" viewBox="0 0 220 220"><defs><clipPath id="clip-path"><path class="cls-1" d="M0 0h220v212a8 8 0 01-8 8H8a8 8 0 01-8-8V0z"/></clipPath><clipPath id="clip-path-2"><path class="cls-1" d="M220 0h220v212a8 8 0 01-8 8H228a8 8 0 01-8-8V0z"/></clipPath><style>.cls-1{fill:none}.cls-4{fill:#60269e}.cls-5{fill:#101820}.cls-6{fill:#471a77}.cls-7{fill:#a27bc5}</style></defs><g clip-path="url(#clip-path)"><path d="M206.57 149.35V138.2h-.51v11.23z" fill="#481d77"/><path class="cls-4" d="M180.87 125.47V152h7v13.5a7.39 7.39 0 017.55.12c-2.26-7.58 1.8-10.34 5.24-8.73 0-4.72 2.63-7 5.42-7.46V138.2h-2.15v-37.44h-27v24.71zm-9.69-24.71h3.84v24.71h-3.84zm-33.3-2.71h3.97v12.7h-3.97zm-9.56 0h3.97v12.7h-3.97zm6.23 12.7V82.98h-2.26v27.77h2.26zm1.07 0h2.26V82.98h-2.26v27.77zm-1.07 0h1.07V63.7h-1.07v47.05zm-21.17 57.79s.22-.81.7-2.1v-33.32H107V220h7.11v-51.76c-.47.2-.73.3-.73.3zm42.68-8.72h7.98V220h-7.98zM106.97 39.5L76.62 60.56v88.48l.02-.02 14.64 9.37v-4.64h6.85v18.45h4.86V220h3.98V39.5z"/><path class="cls-4" d="M156.06 154.05a29.53 29.53 0 01-6.85-1.08 31.07 31.07 0 01-11.52-6.39 31 31 0 0113.16.75 29 29 0 015.21 2.11v-38.69h-42v55.69a31.69 31.69 0 015.59-9.5 30.91 30.91 0 0110.69-7.7 31.16 31.16 0 01-6.29 11.6 32 32 0 01-10 7.4V220h17.15l2.13-70h-.24a4.63 4.63 0 11.38 0l3.18 70h19.38v-65.95zm-25.86-25.6a31.44 31.44 0 012.92-12.86 29.69 29.69 0 010 25.72 31.44 31.44 0 01-2.92-12.86zm73.71-27.69v37.44h2.66v-28.28l13.43 7.16V63.35h-16.09v37.41zM91.28 172.2v-13.81l-14.64-9.37-.02.02-17.27 11.02V220h27.04v-47.8h4.89z"/><path class="cls-5" d="M133.5 150a4.09 4.09 0 10-.38 0h.24l.06-1.85z"/><path class="cls-5" d="M136.05 128.45a31.53 31.53 0 00-2.93-12.86 29.78 29.78 0 000 25.72 31.53 31.53 0 002.93-12.86zm-21.97 39.79a32 32 0 0010-7.4 31.16 31.16 0 006.29-11.6 30.91 30.91 0 00-10.69 7.7 31.69 31.69 0 00-5.59 9.5c-.48 1.29-.7 2.1-.7 2.1s.25-.1.69-.3zm23.61-21.66a31.07 31.07 0 0011.52 6.42 29.53 29.53 0 006.85 1.08 29.9 29.9 0 006.31-.33 31.42 31.42 0 00-6.31-4.28 29 29 0 00-5.21-2.11 31 31 0 00-13.16-.78zm-4.19 3.45l-.08-1.84-.06 1.85-2.14 69.96h5.46l-3.18-69.97z"/><path class="cls-4" d="M4.03 78.12v41.87l5.77-3.71 5.88 3.76V78.12H4.03z"/><path class="cls-6" d="M34.89 132.32L15.68 120l-5.88-3.72L4 120l-4 2.59V220h34.89zm-34.3 6.25h5.59v15H.59zm0 28.58h5.59v15H.59zm19.55 15h-5.58v-15h5.58zm-5.58-28.58v-15h5.58v15z"/><path class="cls-7" d="M.59 138.57h5.59v15.04H.59zm13.97 0h5.59v15.04h-5.59zM.59 167.15h5.59v15.04H.59zm13.97 0h5.59v15.04h-5.59z"/><path class="cls-6" d="M98.13 172.2v17.96h1.91v7.82h-1.91v9.59h-6.85v-9.59h-1.39v-7.82h1.39v-7.03h-1.39v-7.82h1.39v-3.11h-4.89V220h16.6v-47.8h-4.86z"/><path class="cls-6" d="M91.28 175.31h1.51v7.82h-1.51v7.03h1.51v7.82h-1.51v9.59h6.85v-9.59h-.99v-7.82h.99v-36.41h-6.85v21.56z"/><path class="cls-7" d="M92.79 175.31h-2.9v7.82h2.9v-7.82zm0 14.85h-2.9v7.82h2.9v-7.82zm4.35 7.82h2.9v-7.82h-2.9v7.82z"/><path class="cls-5" d="M200.64 156.89c-3.44-1.61-7.5 1.15-5.24 8.73a7.39 7.39 0 00-7.55-.12v13.22h7v-11h11.73v-18.37l-.51.08c-2.8.5-5.43 2.74-5.43 7.46z"/><path class="cls-6" d="M185.3 178.72h2.55v-26.77h-6.98v4.94h3.22v11.23h-3.22v10.09h3.22v11.23h-3.22v13.29h-9.83v-13.29h-1.53v-11.23h1.53v-10.09h-1.53v-11.23h1.53v-4.94h-7.01V220h21.27v-41.28z"/><path class="cls-6" d="M173.67 156.89v11.23h-2.63v10.09h2.63v11.23h-2.63v13.29h9.83v-13.29h-.94v-11.23h.94v-10.09h-.94v-11.23h.94v-31.42h-3.97v64.64h-1.88v-64.64h-3.98v31.42h2.63z"/><path class="cls-6" d="M175.02 190.11h1.88V91.5h-1.88v98.61zm19.82-11.39h-9.54V220h9.54zm-1 5.54v6.2h-2.31v-6.2zm12.73-16.55h-11.73V220h11.73zm-7 22.75h-2.31v-6.2h2.31zm7-52.26V220H220V117.08l-13.43-7.16zm10.07 65.2h-4.16v-11.22h4.16zm0-21.32h-4.16v-11.23h4.16zm0-21.35h-4.16V149.5h4.16z"/><path class="cls-7" d="M212.48 149.5h4.16v11.23h-4.16zm0 21.35h4.16v11.23h-4.16zm0 21.33h4.16v11.23h-4.16zm-20.95-7.92h2.31v6.2h-2.31zm5.75 0h2.31v6.2h-2.31zm-23.61-16.14v-11.23h-4.16v11.23h4.16zm6.26 0h4.16v-11.23h-4.16v11.23zm-6.26 21.32v-11.23h-4.16v11.23h4.16zm6.26 0h4.16v-11.23h-4.16v11.23z"/><path class="cls-4" d="M162.58 27h27.74a3.07 3.07 0 100-6.13h-27.74a3.07 3.07 0 000 6.13zm19.29-7.18h15.41a3.06 3.06 0 100-6.12h-15.41a3.06 3.06 0 100 6.12z"/><circle class="cls-4" cx="43.37" cy="45.71" r="8.49"/></g><g clip-path="url(#clip-path-2)"><path class="cls-4" d="M223.14 63.35H220v53.73l3.14 1.68V63.35z"/><path class="cls-6" d="M235.17 154.53v-29.36l-12-6.41-3.17-1.68V220h12.6v-65.47zm-8.11 48.87h-4.16v-11.22h4.16zm0-21.32h-4.16v-11.23h4.16zm0-21.35h-4.16V149.5h4.16z"/></g></svg>