<svg xmlns="http://www.w3.org/2000/svg" viewBox="0 0 436.64 477.57"><defs><clipPath id="clip-path"><path class="cls-1" d="M110.89 201.33s-10.79 11.52-35 16.27-54.86-3.46-68.25.43l24.19 69.54S70 283.43 90.59 285c20 1.5 35-19.19 35-19.19z"/></clipPath><clipPath id="clip-path-2"><path class="cls-1" d="M324.41 202s12.38 9.8 37 10.93 53.75-11.5 67.57-9.63l-13.68 72.38s-38.34 1.53-58.48 6.1c-19.51 4.43-37.43-13.78-37.43-13.78z"/></clipPath><style>.cls-1{fill:none}.cls-1,.cls-14,.cls-9{stroke:#101820}.cls-1,.cls-14{stroke-linecap:round;stroke-linejoin:round}.cls-1,.cls-9{stroke-width:2px}.cls-4{fill:#101820}.cls-12,.cls-14,.cls-3,.cls-9{fill:#fff}.cls-5{fill:#efefef}.cls-6{fill:#0075c9}.cls-8{fill:#ffd7cf}.cls-9{stroke-miterlimit:10}.cls-11{fill:#254d87}.cls-12,.cls-13{fill-rule:evenodd}.cls-13{fill:red}.cls-14{stroke-width:3px}</style></defs><g id="Block_3" data-name="Block 3"><ellipse cx="222.49" cy="442.3" rx="150.01" ry="14.87" opacity=".15" fill="#101820"/><path class="cls-3" d="M138.78 411.54c-5.2-16.57-16.09-38.62-21.74-45.65-5.52-6.89-11.23-11.89-18.63-11.73-7.87.13-15 6.48-17.86 13-6.6 14.77 7 32.77 12 39.3 17.33 22.86 43.67 29.86 56.2 32.21"/><path class="cls-4" d="M148.38 440.58C131.14 437.34 107.19 429 91 407.63c-5.27-7-19.28-25.43-12.22-41.25 3.09-6.92 10.82-14 19.6-14.15s15.14 6.21 20.16 12.45c5.62 7 16.72 29.19 22.09 46.28l-3.69 1.16c-5.24-16.71-16-38.29-21.41-45-6.29-7.82-11.31-11.15-17.09-11-7.16.12-13.54 6.06-16.13 11.87-6.13 13.73 6.88 30.88 11.77 37.34 15.44 20.38 38.44 28.37 55 31.48z"/><path class="cls-3" d="M88.19 174.87L65.3 108.6C60.25 94 77 80 91.88 86.44l65.88 28.49"/><path class="cls-5" d="M77.71 143s25.14-34.4 49.14-40.82L148.4 111s-38.4 12.32-64.83 50.5z"/><path class="cls-4" d="M86.37 175.5l-22.9-66.27c-2.47-7.09-.33-14.87 5.53-20.3a22 22 0 0123.65-4.27l65.88 28.5-1.53 3.55-65.88-28.5a18.16 18.16 0 00-19.5 3.55c-4.79 4.45-6.47 10.51-4.5 16.21L90 174.24z"/><path class="cls-3" d="M378.82 174.87l17.58-64.47c4.06-14.91-13.61-27.75-28-20.35l-63.84 32.81"/><path class="cls-5" d="M320 118.27s44.23 25.72 57.26 52.3l3.15-1.56 8-29.22s-19.82-26.11-53.84-32.34l-17.74 9.11z"/><path class="cls-4" d="M380.68 175.38l-3.72-1 17.57-64.47c1.59-5.84-.53-11.78-5.53-15.91a18.15 18.15 0 00-19.69-2.25l-63.84 32.81-1.77-3.44 63.84-32.81A22 22 0 01391.4 91c6.21 5 8.84 12.65 6.86 19.89zm-241.39-35.87c6.58-3.4 6.14-12.89-.84-15.36L114 115.46c-11-3.9-22.41 7-18.07 17.25L106.17 157a8.33 8.33 0 0015.16.4 39.88 39.88 0 0117.96-17.89z"/><path class="cls-4" d="M347.92 161.6a8.34 8.34 0 0015.08-1.23l8.9-24.78c3.77-10.49-8.2-20.73-19-16.23l-24 10a8.35 8.35 0 000 15.38 39.89 39.89 0 0119.02 16.86z"/><path class="cls-3" d="M397 252a95.73 95.73 0 01-87.22 95.35H142.71a95.74 95.74 0 01-87-95.34C55.68 149.06 141 113.5 141 113.5a228 228 0 01170.65 0S397 145 397 252z"/><path class="cls-4" d="M309.94 349.24H142.71a97.14 97.14 0 01-89-97.27c0-103 85.65-139.88 86.51-140.24a230.38 230.38 0 01172.13 0c.81.3 86.53 33.17 86.53 140.25.04 50.13-39.04 92.87-88.94 97.26zM226.32 98.9a224.89 224.89 0 00-84.59 16.39c-.82.35-84.12 36.31-84.12 136.67a93.26 93.26 0 0085.28 93.41h166.88c47.75-4.21 85.29-45.25 85.29-93.42 0-104.32-83.23-136.34-84.07-136.65a225.19 225.19 0 00-84.67-16.4z"/><path class="cls-4" d="M142 147.9a22.44 22.44 0 017-5.38 20.39 20.39 0 018.75-2.18 18.77 18.77 0 018.84 2.1 26.71 26.71 0 013.74 2.39c1.11.95 2.12 2 3.11 3a1.93 1.93 0 01-2.46 2.94l-.19-.13a31.46 31.46 0 00-6.31-3.66 15.41 15.41 0 00-6.67-1.37A17.64 17.64 0 00151 147a28.73 28.73 0 00-6.24 3.58l-.17.12a1.92 1.92 0 01-2.61-2.8zm140.16 1.6a23.31 23.31 0 016.34-7 20.69 20.69 0 018.93-3.8 19.63 19.63 0 019.73.79 24.24 24.24 0 014.35 1.92c1.33.82 2.57 1.75 3.79 2.67a1.94 1.94 0 01-2 3.3l-.2-.1a34.8 34.8 0 00-7.39-2.74 17 17 0 00-7.33-.23 21.09 21.09 0 00-6.93 2.65 34 34 0 00-6.15 4.77l-.16.15a1.93 1.93 0 01-3-2.36z"/><path class="cls-3" d="M143 338.3c-12.71 16.4-20.78 41.66-20.78 62a42 42 0 0042 42h117.2a42 42 0 0042-42c0-20.39-7-45.74-19.48-62.14"/><path class="cls-6" d="M139.62 344.45s71.13 31.1 168.56 0c7.87 0 9.26 21.59 9.26 21.59s14.27 41.34-2.38 58.72-21.95 19.24-62.75 18.29-96-1.28-96-1.28-31.92-9.33-34.07-36 5.67-46.87 17.38-61.32z"/><path class="cls-4" d="M266.46 445.35c-4.22 0-8.92-.07-14.19-.19-40.32-.91-95.46-1.28-96-1.28l-.58-.09c-1.36-.4-33.34-10.05-35.58-37.89-2-24.57 4-45.69 17.89-62.78l1-1.24 1.47.64c.71.31 71.6 30.4 167.08-.07l.64-.1c9.16 0 11 18.77 11.34 23.27 1.34 4 13.86 43.05-2.94 60.59-15.1 15.79-21.59 19.14-50.13 19.14zm-109.86-5.68c4.55 0 57 .41 95.76 1.28 40.93.93 45.36-1.13 61.18-17.65 15.58-16.26 2-56.18 1.91-56.58l-.11-.55c-.5-7.73-3-19.09-6.89-19.6-89.14 28.33-157.28 4.63-168.16.42-12.45 16-17.84 35.7-16 58.58 1.91 23.67 29.3 33.13 32.31 34.1z"/><path class="cls-4" d="M281.39 444.23h-117.2a44 44 0 01-43.93-43.93c0-21.44 8.52-46.83 21.19-63.19l3.05 2.37c-12.18 15.73-20.37 40.17-20.37 60.82a40.11 40.11 0 0040.06 40.07h117.2a40.11 40.11 0 0040.06-40.07c0-21.49-7.66-46-19.07-61l3.07-2.34c11.88 15.6 19.87 41 19.87 63.31a44 44 0 01-43.93 43.96z"/><path d="M232.62 394.56h-8l4.93-19.07a3.17 3.17 0 00-3.07-4H215a3.19 3.19 0 00-3.16 2.86l-2.08 20.95a5 5 0 005 5.54h6.35l-2.95 20.38c0 2.59 2.28 3.82 3.53 1.91l4.18-6.37 2.13-3.26 6.9-10.5c2.1-3.12.61-8.44-2.28-8.44z" fill="#008ed4"/><path class="cls-3" d="M226 189.88c-10.07-4.9-24.76.82-10.89 16.33 0 0-15.43 8.43-5.67 19.86s19.56-3.54 19.56-3.54"/><path class="cls-4" d="M217.29 232.3c-3.38 0-6.52-1.67-9.34-5-3-3.53-4.19-7.2-3.51-10.91.93-5.08 5.19-8.8 7.75-10.63-6.61-8.26-4.85-13.26-3.11-15.57 3.26-4.31 11.22-5.24 17.74-2.07a1.93 1.93 0 01-1.69 3.48c-4.78-2.32-10.83-1.89-13 .92-1.95 2.59-.36 7.1 4.36 12.38a2 2 0 01.47 1.61 1.93 1.93 0 01-1 1.37c-.06 0-6.8 3.8-7.78 9.22-.47 2.54.4 5.06 2.65 7.7s4.44 3.73 6.81 3.61c5.23-.33 9.61-6.89 9.66-7a1.93 1.93 0 013.23 2.12c-.22.34-5.47 8.24-12.64 8.69-.16.08-.38.08-.6.08zm16.25-74.76l-10.87-1.62a3.94 3.94 0 00-4.25 5.35l4 10.22a4 4 0 006.76 1l6.83-8.61a3.94 3.94 0 00-2.47-6.34z"/><path class="cls-3" d="M227.52 160.44l-.35 2.58c-1.29 6.35-2.95 13.74-2.07 20l1 6.86"/><path class="cls-4" d="M226.07 191.81a1.92 1.92 0 01-1.91-1.66l-1-6.85c-.86-6.2.58-13.22 1.84-19.42l.59-3.7a1.93 1.93 0 113.83.52l-.63 4c-1.2 5.89-2.57 12.57-1.8 18.1l1 6.85a1.93 1.93 0 01-1.64 2.18 1.23 1.23 0 01-.28-.02z"/><circle class="cls-8" cx="122.92" cy="277.37" r="31.49"/><circle class="cls-8" cx="322.16" cy="283.94" r="31.49"/><path class="cls-4" d="M89.61 267.26a30.67 30.67 0 019.09-13.77 41.35 41.35 0 0130.59-10.39 35.91 35.91 0 0115.55 5.14 1.93 1.93 0 01.61 2.67 2 2 0 01-2.31.8 42.84 42.84 0 00-14.14-2.8 41.33 41.33 0 00-26.7 8.77 31.94 31.94 0 00-9 10.93v.06a1.94 1.94 0 01-3.6-1.39z"/><path class="cls-3" d="M142.87 375.51c-20.53-39.72-24.65-74.57-17.26-80.69 16.1-13.33 38 25.35 59.57 67.15"/><path class="cls-6" d="M132.4 349.24c12.76-.49 37.7-15.41 37.7-15.41l20.75 37.56-44.73 11.38z"/><path class="cls-4" d="M142.87 377.44a1.92 1.92 0 01-1.72-1.05c-20.68-40-25.44-75.88-16.77-83.06a12.4 12.4 0 0110.75-2.85c15.82 3.23 34.25 36.65 51.77 70.6a1.93 1.93 0 11-3.43 1.77c-16.35-31.67-35-65.69-49.11-68.58a8.54 8.54 0 00-7.52 2c-6.34 5.25-2.49 39.15 17.74 78.31a1.93 1.93 0 01-.83 2.6 1.85 1.85 0 01-.88.26z"/><path class="cls-3" d="M309.8 375.51c20.53-39.72 24.65-74.57 17.26-80.69-16.1-13.33-38 25.35-59.57 67.15"/><path class="cls-6" d="M284.88 329.33c8.65 10.13 36.51 21.26 36.51 21.26l-16 40.3-37.91-29.51z"/><path class="cls-4" d="M309.8 377.44a1.85 1.85 0 01-.88-.22 1.93 1.93 0 01-.83-2.6c20.23-39.16 24.08-73.06 17.74-78.31a8.54 8.54 0 00-7.52-2c-14.14 2.89-32.76 36.91-49.11 68.58a1.93 1.93 0 01-3.43-1.77c17.52-33.95 36-67.37 51.77-70.6a12.37 12.37 0 0110.75 2.85c8.67 7.18 3.91 43.05-16.77 83.06a1.92 1.92 0 01-1.72 1.01zM349 270.63c-3.36-7.08-10.14-12.46-17.73-15.08a31.61 31.61 0 00-23.56 1.1 1.93 1.93 0 01-1.75-3.44 34.08 34.08 0 0126.8-2.09 35.34 35.34 0 0112 6.71 25.4 25.4 0 017.86 11.47 1.93 1.93 0 01-3.59 1.41zm-217.37 81.68a2.11 2.11 0 01-.21-4.2c12.79-1.3 35.84-15.91 36.07-16.06a2.1 2.1 0 012.26 3.55c-1 .62-24.12 15.29-37.91 16.7z"/><path class="cls-4" d="M320.81 352a2.25 2.25 0 01-.68-.11c-32.41-11.13-36.41-20.28-36.76-21.29a2.1 2.1 0 013.95-1.44c.14.29 4.31 8.49 34.17 18.75a2.1 2.1 0 01-.68 4.09z"/><path class="cls-9" d="M134.43 306.4l-24.18-110.15a3.27 3.27 0 015-1.08l22.9 110.15s-1.77 2.81-3.72 1.08z"/><circle class="cls-9" cx="112.95" cy="195.61" r="5.17"/><g clip-path="url(#clip-path)"><path class="cls-11" transform="rotate(-7.7 67.393 249.56)" d="M11.16 206.23h112.33v86.36H11.16z"/><path class="cls-12" d="M9.73 242.66l23.51-3.18-25.96-14.93-1.4-10.4 13.44-1.82 36.3 20.72-3.41-25.17 18.52-2.51 3.41 25.18 29.48-29.63 13.57-1.83 1.4 10.4-21.17 21.31 23.63-3.2 3.86 28.55-23.63 3.19 26.08 14.92 1.4 10.41-13.56 1.83-36.3-20.73 3.41 25.18-18.52 2.51-3.41-25.18-29.48 29.63-13.45 1.82-1.4-10.41 21.05-21.3-23.51 3.19-3.86-28.55z"/><path class="cls-13" d="M10.53 248.59l50.29-6.81-4.66-34.44L67 205.87l4.66 34.44 50.14-6.78 2.27 16.71L74 257l4.66 34.43-10.88 1.48-4.7-34.41-50.29 6.8-2.26-16.71zm97.91-48.32l-33.3 33.57 8.9-1.21 33.15-33.54-8.75 1.18zm20.32 84.4l-.92-6.8L96.79 260l-8.93 1.21 40.9 23.51zm-81.8-47L5.87 214.15 6.8 221 38 238.86l9-1.21zm3.78 28.53l-33.29 33.53 8.89-1.2L59.64 265z"/></g><path class="cls-1" d="M110.89 201.33s-10.79 11.52-35 16.27-54.86-3.46-68.25.43l24.19 69.54S70 283.43 90.59 285c20 1.5 35-19.19 35-19.19z"/><path class="cls-14" d="M132.39 321.9c-7.21.81-13.9-6-14.94-15.21s4-17.33 11.2-18.14 13.91 6 14.94 15.21a20.48 20.48 0 01-.63 8"/><path class="cls-9" d="M316.62 309.43l7.68-112.51a3.27 3.27 0 00-5.07-.33l-6.41 112.31s2.18 2.52 3.8.53z"/><circle class="cls-9" cx="321.54" cy="196.68" r="5.17"/><g clip-path="url(#clip-path-2)"><path class="cls-11" transform="rotate(-.77 376.373 244.37)" d="M318.43 199.98h112.33v86.36H318.43z"/><path class="cls-12" d="M430.56 228.01l-23.73.32 23.48-18.61-.14-10.49-13.57.18-32.85 25.85-.34-25.4-18.68.25.34 25.41-33.53-24.96-13.69.19.15 10.49 24.08 17.96-23.84.32.39 28.8 23.84-.32-23.59 18.6.14 10.5 13.69-.18 32.84-25.86.34 25.41 18.69-.25-.34-25.41 33.52 24.96 13.57-.19-.14-10.49-23.97-17.96 23.73-.32-.39-28.8z"/><path class="cls-13" d="M430.64 234l.23 16.86-50.74.69.47 34.74-11 .15-.47-34.74-50.6.68-.23-16.86 50.6-.69-.47-34.75 11-.15.47 34.76 50.74-.69zm-104-33.35l-8.83.12L355.59 229l9-.12-37.88-28.29zM319 287.1l37-29.28-9 .12-28.07 22.3.09 6.86zm74-58.57l9.05-.12 28.21-22.3-.09-6.88-37.17 29.3zm-8.51 28.9l37.87 28.28 9-.13-37.87-28.27z"/></g><path class="cls-1" d="M324.41 202s12.38 9.8 37 10.93 53.75-11.5 67.57-9.63l-13.68 72.38s-38.34 1.53-58.48 6.1c-19.51 4.43-37.43-13.78-37.43-13.78z"/><path class="cls-14" d="M320.92 324.46c7.26-.26 12.87-8 12.53-17.24s-6.49-16.56-13.75-16.3-12.87 8-12.53 17.25A20.56 20.56 0 00309 316"/></g></svg>