<svg xmlns="http://www.w3.org/2000/svg" viewBox="0 0 436.64 477.57"><defs><style>.cls-4{fill:#101820}.cls-2{fill:#fff}.cls-3{fill:#efefef}.cls-5{fill:#ea0029}.cls-6{fill:#ffd7cf}</style></defs><g id="Block_3" data-name="Block 3"><ellipse cx="260.58" cy="435.66" rx="150.01" ry="14.87" opacity=".15" fill="#101820"/><path class="cls-2" d="M55.94 181.41l-12.07-77.76c-2.21-14.2 15.47-24.23 28-15.89l55.59 37"/><path class="cls-3" d="M116.41 116.07s-29.61.93-66.32 34.05l4.53 30.74 35.21-8.59 39.75-48.48z"/><path class="cls-4" d="M54 181.71l3.84-.6-12.05-77.75c-.85-5.49 1.66-10.71 6.74-14a16.71 16.71 0 0118.27 0l55.6 37 2.15-3.23L73 86.14a20.61 20.61 0 00-22.51 0C44.12 90.17 40.87 97 42 104z"/><path class="cls-2" d="M45 240.86c-11.57-74.54 59.82-108.58 59.82-108.58 47.65-26.9 108.12-32.57 161.21-20l41.77-52.09c9.42-11.75 29.31-7.55 31.51 6.65l24.92 160.55a89.07 89.07 0 01-66.41 100.06L144.2 351.28a89.07 89.07 0 01-93.79-75.21L45 240.86"/><path class="cls-4" d="M123.56 274.51c-.35-.78-2.45-5.81-.57-10.43a10.77 10.77 0 016.68-6c3.57-1.33 26.63-9.34 44.77-14.55 7.52-2.16 13.22-1.87 16.93.88a10 10 0 014 7.35c0 .54 1.77 53.61-35.52 55.46-15.75 0-31.42-19.31-36.29-32.71zm51.95-27.25c-18 5.18-40.94 13.14-44.49 14.45a7.06 7.06 0 00-4.43 3.81c-1.36 3.33.51 7.39.53 7.43l.07.17c4.44 12.32 19.37 30.22 32.54 30.22 33.35-1.66 31.75-50.92 31.73-51.46a6.09 6.09 0 00-2.39-4.35 9.64 9.64 0 00-5.79-1.54 28.66 28.66 0 00-7.77 1.27zm-52.04-21.05l10-2a3.66 3.66 0 014.18 4.78l-3.3 9.68a3.67 3.67 0 01-6.23 1.23l-6.73-7.7a3.67 3.67 0 012.08-5.99z"/><path class="cls-4" d="M140.04 255.73l3.62-1.41-12.33-20.52-3.62 1.41 12.33 20.52z"/><path class="cls-5" d="M192.14 271.14s-29.25-.43-35.35 15.74c0 0-11.08 3.21-14.94 10.24 0 0 11 12.43 25.61 6.88s21.41-18.74 24.68-32.86z"/><path class="cls-4" d="M140.27 298.53a2.12 2.12 0 01-.27-2.42c3.56-6.49 12.24-9.93 15.2-10.94 7.26-16.39 35.75-16.12 37-16.14a2.12 2.12 0 012 2.59c-4.12 17.8-12.87 29.36-26 34.36a23.39 23.39 0 01-8.4 1.58c-11.35 0-19.13-8.56-19.53-9.03zm18.49-10.91a2.11 2.11 0 01-1.38 1.29c-.1 0-8.85 2.64-12.83 7.92 3 2.75 11.52 9.25 22.16 5.2 11.24-4.28 18.69-13.68 22.71-28.7-7.12.36-26.18 2.43-30.66 14.29z"/><ellipse class="cls-2" cx="214.94" cy="178.32" rx="17.64" ry="30.87" transform="rotate(-13.84 215.007 178.345)"/><path class="cls-4" d="M195.93 183c-4.41-17.86.5-33.91 11.16-36.54 5.29-1.3 11 .95 16.14 6.34 4.86 5.11 8.67 12.5 10.72 20.83s2.12 16.65.19 23.43c-2 7.16-6.07 11.82-11.35 13.12a12.67 12.67 0 01-3 .36c-9.79 0-19.87-11.33-23.86-27.54zM208 150.23c-8.26 2-12.08 16.62-8.33 31.85s13.9 26.34 22.17 24.33c3.87-1 6.91-4.65 8.55-10.41 1.75-6.14 1.67-13.76-.23-21.44s-5.36-14.46-9.76-19.08c-3.42-3.6-7-5.49-10.38-5.49a8.58 8.58 0 00-2.02.24z"/><path class="cls-4" d="M213.26 181.05a5.32 5.32 0 004.36.83 5.39 5.39 0 003.95-6.52 5.28 5.28 0 00-1.33-2.38c4.06.43 8.28 5.51 10 12.43 2 7.92-.13 15.25-4.66 16.37s-9.78-4.41-11.73-12.33a22.94 22.94 0 01-.59-8.4z"/><ellipse class="cls-2" cx="93.43" cy="215.02" rx="17.64" ry="30.87" transform="rotate(-12.58 93.424 215.024)"/><path class="cls-4" d="M74.32 219.28c-1.86-8.37-1.75-16.69.33-23.42 2.2-7.11 6.33-11.68 11.64-12.86s11 1.19 16 6.69c4.74 5.21 8.39 12.69 10.26 21.06 4 18-1.25 33.9-12 36.29a12.52 12.52 0 01-2.72.3c-9.83 0-19.83-11.61-23.51-28.06zm25.42 24c8.3-1.85 12.43-16.35 9-31.65-1.73-7.72-5-14.58-9.34-19.3-4-4.43-8.4-6.39-12.29-5.52s-7 4.5-8.77 10.22c-1.88 6.1-2 13.71-.25 21.44 3.42 15.3 13.31 26.64 21.63 24.81z"/><path class="cls-4" d="M91.9 217.56a5.36 5.36 0 007.16-7.92c4 .53 8.15 5.7 9.7 12.65 1.78 8-.47 15.25-5 16.26s-9.7-4.62-11.48-12.55a23.15 23.15 0 01-.38-8.44z"/><path class="cls-2" d="M320 303c11.83 15.26 34.14 75.92 34.14 94.84a39.07 39.07 0 01-39.07 39.06h-109A39.06 39.06 0 01167 397.87c0-19 14.3-50.54 20.38-69.53"/><path class="cls-2" d="M322.51 407.27c5.06-16.13 14.82-36.76 21.61-47.51 3.8 13.36 10.4 28.69 21.27 37a10.76 10.76 0 002 1.19c-.38 2.88-.8 6.16-1.57 7.65a14 14 0 00-1.6 8.57c-16.89 16.62-35.16 23.07-53.12 22.73z"/><path class="cls-3" d="M286 377.07c4.37-25.82-16.21-56.07-16.21-56.07 22.77-15.18 20.21-75.61 8.21-155.55-6.93-46-65.08-58.72-65.08-58.72 17.41-3.29 54 5.53 54 5.53l41.77-52.09c23.68-18.59 31.51 6.65 31.51 6.65l19.63 126.5S369 236 362.84 265s-35.16 49.28-35.16 49.28l17 41.78c.71 10.2 4.76 18.82 7 28.68 2.31 10.08 1.19 20.55 3.13 30.71a47.6 47.6 0 001.15 4.64 148.56 148.56 0 01-14.4 10.65c-17.52 11.14-107.17 6.15-107.17 6.15 41.61.04 47.23-34 51.61-59.82z"/><path class="cls-4" d="M103.81 130.59c45.54-25.71 105.79-33.34 161.42-20.5l41-51.14a20.61 20.61 0 0121.45-6.83c7.24 1.93 12.41 7.45 13.49 14.41l24.93 160.54a90.37 90.37 0 01-39.47 89.69 19.93 19.93 0 00-1.63-3.56 86.56 86.56 0 0037.22-85.53L337.34 67.12c-.85-5.49-4.83-9.7-10.65-11.25a17.31 17.31 0 00-4.49-.59 16.5 16.5 0 00-12.93 6.1l-42.54 53.05-1.2-.28c-55-13-114.77-5.6-159.93 19.88-.7.33-69.95 34.26-58.73 106.54l5.46 35.2c6.86 44.21 47.14 76.49 91.58 73.6L183 343.3a20.46 20.46 0 00-1.57 4.16l-37.08 5.76c-2 .13-3.94.2-5.91.2-44.17 0-83.06-32.84-89.92-77.05L43 241.16c-11.62-75.1 60.2-110.29 60.81-110.57z"/><path class="cls-4" d="M297.66 122.5a7.77 7.77 0 01-5.31-13.29l17.26-16.91c7.76-7.6 21.64-2.88 22 7.49l.84 24.48a7.75 7.75 0 01-12.64 6.27 37.12 37.12 0 00-22.15-8.04z"/><path d="M345.25 361.69H345c-7.05-21.61-17.07-45.7-24.23-56a1.93 1.93 0 01.4-2.64 1.93 1.93 0 012.79.45c6.83 10.14 17.86 36.24 25.07 57.46-1.03 1.54-3.26-.96-3.78.73z"/><path class="cls-4" d="M181.24 425.39a36.89 36.89 0 0024.82 9.6h109a27.93 27.93 0 004.22-.37c.52 0 1.05.08 1.6.08a20.22 20.22 0 006.63-1.06c.37-.08.74-.15 1.09-.26a18.49 18.49 0 003.08-.75 17.82 17.82 0 005.32-2.1c1.16-.1 6.79 0 7.84-.22-7 5.51-10 7.74-29.78 8.56h-109a40.71 40.71 0 01-27.53-10.69 17 17 0 002.71-2.79z"/><path d="M172.72 374.23a2.29 2.29 0 01-.28.09 17.57 17.57 0 00-2.63-1.57c2.71-9.05 6.16-18.51 9.47-27.43 2.38-6.42 5.46-11.77 7.09-16.86l2.86.48c-1.66 5.17-3.92 11.27-6.31 17.73-3.12 8.4-6.41 17.32-9 25.84a18.57 18.57 0 00-1.2 1.72z"/><circle class="cls-6" cx="244.84" cy="237.11" r="3.35"/><circle class="cls-6" cx="233.09" cy="228.22" r="3.35"/><circle class="cls-6" cx="228.35" cy="246.5" r="4.5"/><ellipse class="cls-6" cx="89.83" cy="278.18" rx="2.32" ry="4.22" transform="rotate(-13.94 89.857 278.185)"/><ellipse class="cls-6" cx="93.69" cy="269.68" rx="1.41" ry="2.56" transform="rotate(-13.94 93.677 269.686)"/><ellipse class="cls-6" cx="84.31" cy="266.85" rx="1.41" ry="2.56" transform="rotate(-13.94 84.312 266.84)"/><path class="cls-5" d="M326.65 312.84s15.16 22.42 21.18 43 10.8 40.47 27 46 16.54 23.64 6.25 31.29-72-1.21-88.21-2.11-81 14.53-96.56 12-31-17.13-47.52-14.08-19.48-15.27 0-27.06S180 343.53 187 330.67s139.65-17.83 139.65-17.83z"/><path d="M275.06 316.12s32.1 64.19-14.48 118.72c19.29-5.07 33.43-5.7 34.46-5.08s47.07 5.58 52.17 5.65S388 438.15 388 424.18s-7.64-23.57-17.57-26.88-25.56-50.05-25.56-50.05l-18.82-35.4z" fill="#b0001f"/><path class="cls-4" d="M195.94 445c-6.5-1.08-12.95-4.14-19.19-7.1-9-4.27-18.34-8.7-27.6-7-7.37 1.35-13.23-1.15-15.29-6.56-2.39-6.28.92-16.59 13.81-24.39 13.49-8.16 23.67-35.27 30.41-53.22 2.71-7.21 5-13.45 7-17.12 7.22-13.25 119.09-18.09 141.44-18.93h1.17l.66 1c.63.93 15.42 22.93 21.46 43.59l1.12 3.87c5.34 18.46 10.38 35.9 24.5 40.69 8 2.7 13.21 8.58 14.39 16.11a19.85 19.85 0 01-7.56 18.88c-8 5.91-38.95 3.3-72.75-.15-7.09-.73-13.22-1.35-16.84-1.55-7.1-.41-24.39 2.55-42.67 5.67-19 3.24-38.58 6.58-49.38 6.58a30.24 30.24 0 01-4.68-.37zm97-16.16c3.73.2 9.9.83 17 1.56 21.84 2.23 62.5 6.38 69.8 1a15.59 15.59 0 005.91-14.82c-.93-5.93-5.15-10.58-11.58-12.77-16.2-5.49-21.55-24-27.2-43.51l-1.12-3.86c-5.15-17.63-17.33-36.94-20.26-41.44-63.4 2.42-132.55 9.06-136.7 16.68-1.86 3.42-4.15 9.52-6.8 16.59-7.36 19.59-17.44 46.43-32.18 55.35-10.34 6.26-13.89 14.43-12.05 19.27 1.3 3.43 5.25 4.89 10.57 3.91 10.61-2 20.56 2.76 30.18 7.32 6.25 3 12.16 5.77 18.07 6.75 8.11 1.34 31.81-2.7 52.71-6.27 17.34-3 33.77-5.76 42-5.76.65 0 1.18.01 1.71.04z"/><path class="cls-2" d="M203.54 384.8c-12.54 32.68-30.78 53.2-38.21 52.09-16.17-2.48-5-35.42 8.27-69.79"/><path class="cls-5" d="M166.22 387.84c12.68-1.29 30.05 3.67 30.87 9.83 4-5 8.73-19.43 8.73-19.43l-29.94-13.86z"/><path class="cls-4" d="M165.86 438.87c9.15 0 27.16-21.25 39.49-53.37a1.94 1.94 0 10-3.62-1.39c-12.69 33-30.5 51.74-36.11 50.86a6.3 6.3 0 01-4.8-3.13c-5.57-9.61 4-38.79 13.94-64.74.39-1 .54-1.43-.46-1.81a1.94 1.94 0 00-2.51 1.11c-13.49 35.07-20.16 57.34-14.32 67.39a10.09 10.09 0 007.57 5 5.46 5.46 0 00.82.08z"/><path class="cls-4" d="M195.7 399.06l3.61-2.2c-.32-.51-7.87-12.58-33.87-10.86l.28 4.22c23.16-1.54 29.91 8.78 29.98 8.84z"/><circle class="cls-3" cx="344.87" cy="387.95" r="34.66"/><path class="cls-4" d="M308.09 388a36.78 36.78 0 1136.78 36.77A36.81 36.81 0 01308.09 388zm4.23 0a32.55 32.55 0 1032.55-32.55A32.58 32.58 0 00312.32 388zM182 245.39c-14.35.41-55.27 16.7-55.27 16.7l-1.52 9.05 9.37 18.93 7.24 6.2 16.5-12.47s12.51-12.33 19.4-11.78 14.39-2.48 14.39-2.48 1.6-18.47.64-20.82-5.07-3.48-10.75-3.33z"/></g></svg>