<svg xmlns="http://www.w3.org/2000/svg" id="Шар_1" data-name="Шар 1" viewBox="0 0 220 220"><defs><clipPath id="clip-path"><path class="cls-1" d="M0 0h220v212a8 8 0 01-8 8H8a8 8 0 01-8-8V0z"/></clipPath><clipPath id="clip-path-2"><path class="cls-1" d="M220 0h220v212a8 8 0 01-8 8H228a8 8 0 01-8-8V0z"/></clipPath><style>.cls-1{fill:none}.cls-3{fill:#481d77}.cls-4{fill:#60269e}.cls-5{fill:#471a77}.cls-6{fill:#101820}.cls-7{fill:#a27bc5}.cls-8,.cls-9{fill:#444a50}.cls-8{opacity:.26;isolation:isolate}</style></defs><g clip-path="url(#clip-path)"><path class="cls-3" d="M177.7 206.89h-20.83a16.86 16.86 0 01-3.5 7s17-1.37 15.93 4.81a87.59 87.59 0 01-11 1.29h30l.27-7.33c-4.57-.21-8.82-2.44-10.87-5.77zM27.47 139.94h1.72V128.5c-.56-.12-1.14-.25-1.72-.41zm190.42 66.95h-17.53a11.26 11.26 0 01-.62 1.08l-.08.12c-.11.15-.22.28-.33.42s-.25.32-.38.47-.15.15-.22.22a7.94 7.94 0 01-.59.57l-.11.09a8.87 8.87 0 01-.78.59 14.23 14.23 0 01-7.16 2.21h-.66l.17 7.32H220v-11.5a17.64 17.64 0 01-2.11-1.59z"/><path class="cls-4" d="M123.56 113.84h.13v22.8h-.13zM98.21 97.7V45.14L78.66 63.81v51.37h1.75v45.9h6.01V97.7h11.79z"/><path class="cls-4" d="M107.23 136.64V97.7H86.42v63.38h18.75v-24.44h2.06z"/><path class="cls-4" d="M123.56 136.64h-18.39v24.44h18.53v-24.44h-.14zm-44.9-21.46H68.37v1.16l10.88 6.95v37.79h1.16v-45.9h-1.75zm-63.3 5.59a4.29 4.29 0 01-2.07 3.67v15.5h14.18v-11.85l-.37-.1a31.36 31.36 0 01-11.55-6.39 31.16 31.16 0 0111.92.43V72.86h-17V92c.34-.85.59-1.34.59-1.34a31.36 31.36 0 013 12.86 31.06 31.06 0 01-1.91 10.37h1.24v3.25a4.4 4.4 0 011.97 3.63z"/><path class="cls-4" d="M6.26 139.94h4.54l.45-14.87h-.21a4.32 4.32 0 110-8.64 4.13 4.13 0 012.25.64v-3.25h-1.24a23.52 23.52 0 01-1 2.5 25.16 25.16 0 01-1-2.5H0v15.68a31.26 31.26 0 018.24-5.26A31 31 0 012 135.86c-.64.72-1.29 1.38-2 2v38.88h6.26z"/><path class="cls-4" d="M11.39 125.06l.68 14.88h1.22v-15.5a4.27 4.27 0 01-1.9.62z"/><path class="cls-5" d="M1.07 198a32.62 32.62 0 015.19-2.71v-9.8A63.5 63.5 0 011.07 198zm5.19-18.51v-2.75H0v1.88c2.77-1.78 5.16-1.43 6.26.87z"/><path class="cls-6" d="M11.39 125.06a4.33 4.33 0 004-4.29 4.4 4.4 0 00-2.07-3.68 4.13 4.13 0 00-2.25-.64 4.32 4.32 0 100 8.64h.21l.06-1.86zM11 90.61s-.25.49-.59 1.34a31.59 31.59 0 00-2.34 11.52A31 31 0 0010 113.84a25.16 25.16 0 001 2.5 23.52 23.52 0 001-2.5 31.06 31.06 0 002-10.37 31.36 31.36 0 00-3-12.86zm-9 45.25a31 31 0 006.28-11.6A31.26 31.26 0 000 129.52v8.34c.67-.62 1.32-1.28 2-2zm13.55-14.26A31.36 31.36 0 0027.1 128l.37.1c.58.16 1.16.29 1.72.41v-5.21l.82-.52c-.43-.15-.86-.29-1.3-.42s-.83-.22-1.24-.32a31.16 31.16 0 00-11.92-.44z"/><path class="cls-6" d="M11.39 125.06l-.08-1.85-.06 1.86-.46 14.87h1.28l-.68-14.88z"/><path class="cls-5" d="M68.37 116.34l-14.2-9.08L30 122.77l-.82.52v16.65h.62v55.27c3 .3 6.19 1.66 6.28 3.9.16 3.81 5.13 2 6.93 2 .77 0 1.48.89 2 1.91h29.33v-41.94h4.91v-37.79zm-17.83 56.8H45v-15h5.58zm0-28.55H45v-15h5.58zm14 28.55h-5.62v-15h5.59zm0-28.55h-5.62v-15h5.59z"/><path class="cls-7" d="M44.96 129.55h5.59v15.04h-5.59zm13.96 0h5.59v15.04h-5.59zM44.96 158.1h5.59v15.04h-5.59zm13.96 0h5.59v15.04h-5.59z"/><path class="cls-5" d="M29.81 139.94H6.26v39.55c.09.2.19.4.27.63a10.42 10.42 0 01-.27 5.32v9.8c3.56-1.45 8-2.33 10 1 3.63 6.09 7.12 2.31 8.76 0 .68-1 2.67-1.29 4.78-1.08zm-14 49.53h-5.63v-15h5.58zm0-28.55h-5.63v-15h5.58zm14 28.55h-5.67v-15h5.59zm0-28.55h-5.67v-15h5.59z"/><path class="cls-7" d="M10.18 145.88h5.59v15.04h-5.59zm13.96 0h5.59v15.04h-5.59zm-13.96 28.55h5.59v15.04h-5.59zm13.96 0h5.59v15.04h-5.59z"/><path class="cls-6" d="M45.07 203c-.57-1-1.28-1.91-2-1.91-1.8 0-6.77 1.83-6.93-2-.09-2.24-3.3-3.6-6.28-3.9-2.11-.21-4.1.12-4.78 1.08-1.64 2.31-5.13 6.09-8.76 0-2-3.38-6.45-2.5-10-1A32.62 32.62 0 001.07 198a63.5 63.5 0 005.19-12.51 10.42 10.42 0 00.27-5.32c-.08-.23-.18-.43-.27-.63-1.1-2.3-3.49-2.65-6.26-.87V203z"/><path class="cls-4" d="M74.34 203H0v17h74.34v-17zM219.3 51.91h.7v66.79h-.7zM185.46 166.1h24.63v-47.4h1.5V76.43L196.9 62.14l-14.74 14.29v45.28h3.3v44.39z"/><path class="cls-4" d="M182.38 135.67v30.43h3.08v-44.39h-15.3v4.4l12.22 9.56zm-24.63-6.47l8.16-6.42 4.25 3.33v-19.36h-12.41v22.45zm-17.59 21.11h9.34v-14.64l8.25-6.47V51.27h-19.63v49.41h2.04v49.63z"/><path class="cls-4" d="M140.16 150.31v-49.63H123.7v60.4h2.68v12.12a18.31 18.31 0 018 2.45v-25.34z"/><path class="cls-5" d="M147.19 178.08h2.31V167.2h-2.31v-12.11h2.31v-4.78h-15.17v25.34A9.06 9.06 0 01138 180v-1.88h3.68v.71c2.45-.28 5 .7 4 6.67 0 0 .62.1 1.53.33zm-5.5-10.88H138v-12.11h3.68zm37.46 21.92v-23h3.23v-30.45l-12.22-9.56-4.25-3.33-8.16 6.42-8.25 6.47v19.42h1.37v12.11h-1.37v10.88h1.37v9c3.42 1.58 6.43 4.51 1.48 9.57 0 0 5.89 3.46 4.52 10.28h20.83a8.44 8.44 0 01-1.13-2.82c-.65-3.35-.36-8.96 2.58-14.99zM170 142h3.68v12.11H170zm0 23h3.68v12.11H170zm-9.16-23h3.68v12.11h-3.68zm0 23h3.68v12.11h-3.68z"/><path class="cls-5" d="M210.09 166.1h-30.94v23c.35-.71.73-1.43 1.16-2.15l.19-.31c.26-.43.53-.86.82-1.29l.35-.52.79-1.08.51-.66c.12-.14.22-.29.35-.44.74-.89 1.52-1.79 2.41-2.67 2.79-2.79 4.35-3 7.38 0 3.14 3.14 7.87 11.22 8.41 20.33a12.73 12.73 0 01-1.14 6.52h9.73z"/><path class="cls-5" d="M211.59 118.7h-1.5v88.19h7.8a14.57 14.57 0 01-4.95-8.08 25.56 25.56 0 01-.44-5.1c0-.56 0-1.14.05-1.74v-.79c0-.27.05-.66.09-1s.08-.74.13-1.12c0-.19 0-.38.07-.58.08-.51.17-1 .27-1.57 0-.18.07-.36.11-.55.11-.55.23-1.11.37-1.67l.13-.52c.16-.59.32-1.18.5-1.77l.15-.46c.2-.63.41-1.27.64-1.91l.12-.31c.23-.61.48-1.22.74-1.84.05-.11.09-.23.15-.35.28-.66.59-1.32.92-2 .07-.14.14-.29.22-.44.33-.66.69-1.32 1.07-2l.24-.43c.4-.68.82-1.37 1.26-2.06l.2-.3v-51.6h-8.41zm7.68 43.83h-3.67v-12.11h3.67zm0-23h-3.67v-12.1h3.67z"/><path class="cls-7" d="M138.01 155.09h3.68v12.11h-3.68zm9.18 12.11h3.68v-12.11h-3.68v12.11zM138 178.08V180a11.87 11.87 0 013.68-1.17v-.71zm12.87 0h-3.68v7.71a20.53 20.53 0 013.68 1.25zm9.99-36.12h3.68v12.11h-3.68zm9.16 0h3.68v12.11h-3.68zm-9.16 22.99h3.68v12.11h-3.68zm9.16 0h3.68v12.11h-3.68zm45.58-37.52h3.68v12.11h-3.68zm0 22.99h3.68v12.11h-3.68z"/><path class="cls-6" d="M153.37 213.9a16.86 16.86 0 003.5-7c1.37-6.82-4.52-10.28-4.52-10.28 5-5.06 1.94-8-1.48-9.57a20.53 20.53 0 00-3.68-1.25c-.91-.23-1.53-.33-1.53-.33 1.06-6-1.52-7-4-6.67A11.87 11.87 0 00138 180a9.06 9.06 0 00-3.63-4.34 18.31 18.31 0 00-8-2.45V220h31.91a87.59 87.59 0 0011-1.29c1.06-6.18-15.91-4.81-15.91-4.81z"/><path class="cls-5" d="M126.38 173.2v-12.12H74.34V220h52.04v-46.8z"/><path class="cls-6" d="M216.07 177.51zm-.89 2.19zm3.34-7.04c.4-.68.82-1.37 1.26-2.06-.44.69-.86 1.4-1.26 2.06zm-1.31 2.42zm-3.57 9.59zm6.36-14.41zm-5.58 11.66zm-.65 2.23c.16-.59.32-1.18.5-1.77-.18.62-.34 1.18-.5 1.77zm-1.08 6.01c0-.37.08-.74.13-1.12-.05.38-.1.75-.13 1.12zm-.19 3.55zm.05-1.71v-.79c.03.22.01.48 0 .79zm.34-3.54c.08-.51.17-1 .27-1.57-.1.53-.16 1.11-.27 1.57z"/><path class="cls-3" d="M217.89 206.89a17.64 17.64 0 002.11 1.59 18.1 18.1 0 01-2.09-1.57z"/><path class="cls-8" d="M217.89 206.89a17.64 17.64 0 002.11 1.59 18.1 18.1 0 01-2.09-1.57z"/><path class="cls-5" d="M218.28 173.09l.24-.43z"/><path class="cls-8" d="M218.28 173.09l.24-.43z"/><path class="cls-5" d="M217 175.52c.07-.14.14-.29.22-.44-.09.15-.16.3-.22.44z"/><path class="cls-8" d="M217 175.52c.07-.14.14-.29.22-.44-.09.15-.16.3-.22.44z"/><path class="cls-5" d="M215.92 177.86c.05-.11.09-.23.15-.35-.07.12-.07.24-.15.35z"/><path class="cls-8" d="M215.92 177.86c.05-.11.09-.23.15-.35-.07.12-.07.24-.15.35z"/><path class="cls-5" d="M213 198.81a26.2 26.2 0 01-.46-5.1 25.56 25.56 0 00.44 5.1 14.57 14.57 0 004.95 8.08 14.63 14.63 0 01-4.93-8.08z"/><path class="cls-8" d="M213 198.81a26.2 26.2 0 01-.46-5.1 25.56 25.56 0 00.44 5.1 14.57 14.57 0 004.95 8.08 14.63 14.63 0 01-4.93-8.08z"/><path class="cls-5" d="M219.78 170.6l.2-.3z"/><path class="cls-8" d="M219.78 170.6l.2-.3z"/><path class="cls-5" d="M215.06 180l.12-.31z"/><path class="cls-8" d="M215.06 180l.12-.31z"/><path class="cls-5" d="M214.27 182.38l.15-.46z"/><path class="cls-8" d="M214.27 182.38l.15-.46z"/><path class="cls-5" d="M213.64 184.67l.13-.52z"/><path class="cls-8" d="M213.64 184.67l.13-.52z"/><path class="cls-5" d="M213.16 186.89c0-.18.07-.36.11-.55-.04.19-.07.37-.11.55z"/><path class="cls-8" d="M213.16 186.89c0-.18.07-.36.11-.55-.04.19-.07.37-.11.55z"/><path class="cls-5" d="M212.5 193.69c0-.56 0-1.14.05-1.74-.04.6-.05 1.18-.05 1.74z"/><path class="cls-8" d="M212.5 193.69c0-.56 0-1.14.05-1.74-.04.6-.05 1.18-.05 1.74z"/><path class="cls-5" d="M212.82 189c0-.19 0-.38.07-.58-.03.24-.05.43-.07.58z"/><path class="cls-8" d="M212.82 189c0-.19 0-.38.07-.58-.03.24-.05.43-.07.58z"/><path class="cls-5" d="M212.6 191.16c0-.33.05-.66.09-1-.04.34-.07.67-.09 1z"/><path class="cls-8" d="M212.6 191.16c0-.33.05-.66.09-1-.04.34-.07.67-.09 1z"/><path class="cls-6" d="M219.78 170.6c-.44.69-.86 1.38-1.26 2.06l-.24.43c-.38.67-.74 1.33-1.07 2-.08.15-.15.3-.22.44-.33.67-.64 1.33-.92 2-.06.12-.1.24-.15.35-.26.62-.51 1.23-.74 1.84l-.12.31c-.23.64-.44 1.28-.64 1.91l-.15.46c-.18.59-.34 1.18-.5 1.77l-.13.52c-.14.56-.26 1.12-.37 1.67 0 .19-.07.37-.11.55-.1.53-.19 1.06-.27 1.57 0 .2 0 .39-.07.58 0 .38-.1.75-.13 1.12s-.07.67-.09 1 0 .53 0 .79c0 .6-.05 1.18-.05 1.74a26.2 26.2 0 00.46 5.1 14.63 14.63 0 004.95 8.08 18.1 18.1 0 002.09 1.57v-38.2z"/><path class="cls-8" d="M219.78 170.6c-.44.69-.86 1.38-1.26 2.06l-.24.43c-.38.67-.74 1.33-1.07 2-.08.15-.15.3-.22.44-.33.67-.64 1.33-.92 2-.06.12-.1.24-.15.35-.26.62-.51 1.23-.74 1.84l-.12.31c-.23.64-.44 1.28-.64 1.91l-.15.46c-.18.59-.34 1.18-.5 1.77l-.13.52c-.14.56-.26 1.12-.37 1.67 0 .19-.07.37-.11.55-.1.53-.19 1.06-.27 1.57 0 .2 0 .39-.07.58 0 .38-.1.75-.13 1.12s-.07.67-.09 1 0 .53 0 .79c0 .6-.05 1.18-.05 1.74a26.2 26.2 0 00.46 5.1 14.63 14.63 0 004.95 8.08 18.1 18.1 0 002.09 1.57v-38.2z"/><path class="cls-6" d="M199 209c-.07.08-.15.14-.22.22s.1-.16.22-.22zm-.86.77l-.11.09zm-.89.68zm2.41-2.36c-.11.15-.22.28-.33.42.11-.14.22-.27.33-.42zm1.84-7.72c-.54-9.11-5.27-17.19-8.41-20.33-3-3-4.59-2.79-7.38 0-.89.88-1.67 1.78-2.41 2.67-3.77 11.39-.38 20.71 5.48 23.42l.31-8.45.19 8.58 4.43-2.45-3.55 2.82c3.39.91 7.41-.23 11.31-4.19a11 11 0 01-1.73 5.53 11.26 11.26 0 00.62-1.08 12.73 12.73 0 001.14-6.52zm-19.04-16.6l.51-.66zm-1.14 1.6l.35-.52zm-1.01 1.63l.19-.31z"/><path class="cls-3" d="M177.74 206.89c2.05 3.33 6.3 5.56 10.85 5.78-4.59-.25-8.8-2.47-10.85-5.78z"/><path class="cls-8" d="M177.74 206.89c2.05 3.33 6.3 5.56 10.85 5.78-4.59-.25-8.8-2.47-10.85-5.78z"/><path class="cls-3" d="M189.42 212.65h.66a14.23 14.23 0 007.16-2.21 14.19 14.19 0 01-7.13 2.18z"/><path class="cls-8" d="M189.42 212.65h.66a14.23 14.23 0 007.16-2.21 14.19 14.19 0 01-7.13 2.18z"/><path class="cls-3" d="M198 209.86a8.87 8.87 0 01-.78.59 8.87 8.87 0 00.78-.59z"/><path class="cls-8" d="M198 209.86a8.87 8.87 0 01-.78.59 8.87 8.87 0 00.78-.59z"/><path class="cls-3" d="M198.73 209.2c-.19.19-.38.39-.59.57a7.94 7.94 0 00.59-.57z"/><path class="cls-8" d="M198.73 209.2c-.19.19-.38.39-.59.57a7.94 7.94 0 00.59-.57z"/><path class="cls-3" d="M199.74 208l-.08.12z"/><path class="cls-8" d="M199.74 208l-.08.12z"/><path class="cls-5" d="M176.6 204.05c-.74-3.69-.3-10.25 3.71-17.08-.43.72-.81 1.44-1.16 2.15-2.94 6-3.23 11.64-2.58 14.95a8.44 8.44 0 001.13 2.82 8.56 8.56 0 01-1.1-2.84z"/><path class="cls-8" d="M176.6 204.05c-.74-3.69-.3-10.25 3.71-17.08-.43.72-.81 1.44-1.16 2.15-2.94 6-3.23 11.64-2.58 14.95a8.44 8.44 0 001.13 2.82 8.56 8.56 0 01-1.1-2.84z"/><path class="cls-5" d="M183.32 182.67c-.13.15-.23.3-.35.44l.33-.4z"/><path class="cls-8" d="M183.32 182.67c-.13.15-.23.3-.35.44l.33-.4z"/><path class="cls-5" d="M180.5 186.66c.26-.43.53-.86.82-1.29-.32.43-.56.86-.82 1.29z"/><path class="cls-8" d="M180.5 186.66c.26-.43.53-.86.82-1.29-.32.43-.56.86-.82 1.29z"/><path class="cls-5" d="M182.46 183.77l-.79 1.08z"/><path class="cls-8" d="M182.46 183.77l-.79 1.08z"/><path class="cls-6" d="M183.3 182.71l-.33.4-.51.66-.79 1.08-.35.52c-.29.43-.56.86-.82 1.29l-.19.31c-4 6.83-4.45 13.39-3.71 17.08a8.56 8.56 0 001.14 2.84c2 3.31 6.28 5.53 10.81 5.75l.06-1.59-4.41-6.25 4.46 4.69.12-3.36c-5.86-2.71-9.25-12.03-5.48-23.42z"/><path class="cls-8" d="M183.3 182.71l-.33.4-.51.66-.79 1.08-.35.52c-.29.43-.56.86-.82 1.29l-.19.31c-4 6.83-4.45 13.39-3.71 17.08a8.56 8.56 0 001.14 2.84c2 3.31 6.28 5.53 10.81 5.75l.06-1.59-4.41-6.25 4.46 4.69.12-3.36c-5.86-2.71-9.25-12.03-5.48-23.42z"/><path class="cls-6" d="M201.47 202.44c-3.9 4-7.92 5.1-11.31 4.19l-.86.67.12 5.35h.69a14.19 14.19 0 007.13-2.18 8.87 8.87 0 00.78-.59l.11-.09c.21-.18.4-.38.59-.57s.15-.14.22-.22.26-.31.38-.47.22-.27.33-.42l.08-.12a11 11 0 001.74-5.55z"/><path class="cls-8" d="M201.47 202.44c-3.9 4-7.92 5.1-11.31 4.19l-.86.67.12 5.35h.69a14.19 14.19 0 007.13-2.18 8.87 8.87 0 00.78-.59l.11-.09c.21-.18.4-.38.59-.57s.15-.14.22-.22.26-.31.38-.47.22-.27.33-.42l.08-.12a11 11 0 001.74-5.55z"/><path class="cls-9" d="M189.42 212.65l-.12-5.34-.29.23v-1.13l.27-.15-.19-8.58-.31 8.45-.12 3.36.35.36-.19 1.5-.21-.3-.06 1.59v.03l-.27 7.33h1.31l-.17-7.32v-.03z"/><path class="cls-9" d="M184.2 204.8l4.41 6.25.21.3.19-1.5-.35-.36-4.46-4.69zm5.96 1.83l3.55-2.82-4.43 2.45-.27.15v1.13l.29-.23.86-.68z"/><path class="cls-4" d="M33.89 12.73h27.74a3.06 3.06 0 000-6.12H33.86a3.06 3.06 0 000 6.12z"/></g><g clip-path="url(#clip-path-2)"><path class="cls-3" d="M220 208.48V220h11.2l.29-7.9a23.11 23.11 0 01-11.49-3.62z"/><path class="cls-4" d="M232 149.48h1.16V51.91H220v66.79h12v30.78z"/><path class="cls-5" d="M221.52 168.06a53.83 53.83 0 014.66-5.53h-1.43v-12.11h3.68v9.92a13.87 13.87 0 011.35-1v-3.87H232V118.7h-12v51.56c.48-.73 1-1.46 1.51-2.19zm3.23-40.63h3.68v12.11h-3.68z"/><path class="cls-6" d="M220 170.26c.48-.73 1-1.46 1.51-2.19-.51.73-1.03 1.46-1.51 2.19z"/><path class="cls-3" d="M231.49 212.1a23.09 23.09 0 01-11.49-3.64 23.11 23.11 0 0011.49 3.62z"/><path class="cls-8" d="M231.49 212.1a23.09 23.09 0 01-11.49-3.64 23.11 23.11 0 0011.49 3.62z"/><path class="cls-6" d="M231.58 209.57l-6.83-9.63 6.91 7.26.19-5.21c-9.1-4.19-14.35-18.66-8.47-36.32-.65.8-1.27 1.59-1.86 2.39-.53.73-1 1.46-1.51 2.19v38.2a23.09 23.09 0 0011.49 3.64z"/><path class="cls-8" d="M231.58 209.57l-6.83-9.63 6.91 7.26.19-5.21c-9.1-4.19-14.35-18.66-8.47-36.32-.65.8-1.27 1.59-1.86 2.39-.53.73-1 1.46-1.51 2.19v38.2a23.09 23.09 0 0011.49 3.64z"/></g></svg>