<svg xmlns="http://www.w3.org/2000/svg" viewBox="0 0 436.64 477.57"><defs><style>.cls-3{fill:#101820}.cls-2,.cls-8{fill:#fff}.cls-4{fill:#ffd7cf}.cls-5{fill:#f6564f}.cls-8{stroke:#101820;stroke-linecap:round;stroke-linejoin:round;stroke-width:4px}.cls-10{fill:#ffb71b}</style></defs><g id="Block_3" data-name="Block 3"><ellipse cx="210.72" cy="442.99" rx="150.01" ry="14.87" opacity=".15" fill="#101820"/><g id="Block_3-2" data-name="Block 3"><path class="cls-2" d="M325.05 388.94c5.89-18.75 18.21-43.69 24.61-51.65 6.24-7.75 12.7-13.42 21.07-13.28 8.91.15 16.91 7.33 20.22 14.72 7.46 16.72-8 37.08-13.58 44.47-19.6 25.87-49.4 33.79-63.58 36.45"/><path class="cls-3" d="M314.22 422c19.54-3.67 46.68-13.13 65-37.35 6-7.9 21.87-28.87 13.84-46.85-3.42-7.64-11.86-15.95-22.33-16.12-10.06-.23-17.24 7.07-22.95 14.16-6.36 7.9-18.94 33-25 52.42l4.5 1.42c5.94-18.91 18.1-43.3 24.2-50.88 7.08-8.8 13-12.55 19.19-12.4 8 .13 15.19 6.81 18.1 13.33 6.89 15.42-7.77 34.78-13.29 42.06-17.45 23-43.43 32.05-62.14 35.57z"/><path class="cls-2" d="M129.3 317.45a4.77 4.77 0 013.47 7.63c-14.38 18.56-26.17 48.52-26.17 71.53 0 26.24 16.4 46.39 42.62 46.39h132.61a47.52 47.52 0 0047.51-47.52c0-23.07-4.28-46.57-22-70.31-11.08-14.83-13.88-41.2-10.19-41.53"/><path class="cls-4" d="M295.71 293.52s6.63 23.05 17.65 38.56 17.5 50.28 14.25 69.84-18.1 40.34-42.91 41.08-140.59-.61-140.59-.61-32.77-5.12-37-36.41 30.18-92.21 30.18-92.21z"/><path class="cls-3" d="M149.22 445.35h132.61a49.93 49.93 0 0049.87-49.88c0-28.79-6.93-50.91-22.5-71.72-10.21-13.66-12.34-35.67-10.83-38.32a1.4 1.4 0 01-1 .55l-.41-4.7a3.46 3.46 0 00-2.88 2.26c-2.56 5.73 1.09 29.26 11.38 43 14.91 19.94 21.56 41.2 21.56 68.9a45.2 45.2 0 01-45.15 45.16H149.22c-24.9 0-40.26-19.12-40.26-44 0-23.32 11.91-52.31 25.68-70.09a6.94 6.94 0 00.89-7.1 7.26 7.26 0 00-6-4.32l-.42 4.7a2.53 2.53 0 012.11 1.5 2.26 2.26 0 01-.3 2.33c-14.35 18.54-26.66 48.69-26.66 73-.02 27.49 17.46 48.73 44.96 48.73z"/><path class="cls-5" d="M197.39 340.71c2.26 7.7 3.26 15.89 4.39 24s1.83 16.24 2.59 24.38 1.29 16.31 1.26 24.38a26 26 0 000 3.18 16.21 16.21 0 00.63 3.49 22.22 22.22 0 002.89 6 35.71 35.71 0 008.9 9.11.9.9 0 001.22-1.31 58.86 58.86 0 01-6.85-9.7 23.46 23.46 0 01-2.16-5.17 18.19 18.19 0 01-.43-5.54c0-8.34-.73-16.55-1.5-24.76s-2-16.36-3.27-24.5q-1-6.1-2.35-12.15a82.2 82.2 0 00-3.45-12 1 1 0 00-1.85.64z"/><path class="cls-5" d="M206 415.47a40.41 40.41 0 01-1.89 6.58 38.16 38.16 0 01-3 6.21 27.14 27.14 0 01-4.29 5.3 19.32 19.32 0 01-5.74 3.54h-.05a.88.88 0 00-.49 1.14.87.87 0 001.09.51 21 21 0 006.61-3.56 29.38 29.38 0 005-5.53 40.64 40.64 0 003.6-6.48 41.76 41.76 0 002.47-7.06 1.71 1.71 0 10-3.32-.83.29.29 0 000 .09z"/><circle class="cls-5" cx="214.99" cy="376" r="2.85"/><circle class="cls-5" cx="218.65" cy="404.49" r="2.85"/><path class="cls-5" d="M281.43 389.56q-9.89.09-19.77 0c-6.56-.14-13.23-.2-19.58-.92H242a1.67 1.67 0 00-1.84 1.47v.18a65.47 65.47 0 002.48 20.06 31 31 0 004.35 9.41 17.5 17.5 0 008.32 6.75 19.34 19.34 0 002.62.82l2.71.29a10.58 10.58 0 002.64 0c.87-.09 1.74-.1 2.6-.26a20.81 20.81 0 009.65-4.22c5.59-4.66 7.8-11.83 7.75-18.57a.82.82 0 00-.84-.83.84.84 0 00-.83.76v.08c-.5 6.22-3.06 12.65-7.9 16.23a17.75 17.75 0 01-8.31 3.29c-3.06.22-6.17.4-8.8-.82a13.92 13.92 0 01-6.6-5.57 29.44 29.44 0 01-3.82-8.4 68.15 68.15 0 01-2.58-18.87l-1.9 1.64c6.8.43 13.35.15 20 0s13.21-.54 19.8-.93a.74.74 0 00-.05-1.48zm-132.32 3.25q8.91.54 17.83.89c6 .18 11.86.45 18 .07l-1.9-1.64a61.89 61.89 0 01-2.32 16.94 26.88 26.88 0 01-3.42 7.51 12.39 12.39 0 01-5.86 5c-2.33 1.09-5.1.93-7.84.74a15.77 15.77 0 01-7.41-2.92c-4.33-3.17-6.66-8.92-7.13-14.5v-.07a.84.84 0 00-1.67.06c-.07 6.09 1.9 12.6 7 16.85a19 19 0 008.76 3.84c3 .37 6.47.62 9.61-.74a15.87 15.87 0 007.58-6.14 28.17 28.17 0 003.95-8.52 59.16 59.16 0 002.19-18.18 1.7 1.7 0 00-1.78-1.62h-.12c-5.69.66-11.71.73-17.61.87s-11.88.12-17.81.09a.74.74 0 000 1.48z"/><path class="cls-2" d="M58.8 140.61l-4.16-79.2c-.76-14.47 18-22.73 29.71-13.08l52 42.76"/><path d="M126.12 81.27s-29.79-2.14-70 27.37l1.41 31.29 36.19-5 44.8-44.55z" fill="#efefef"/><path class="cls-3" d="M56.85 140.71l3.91-.2-4.17-79.2c-.29-5.6 2.77-10.57 8.19-13.31a16.86 16.86 0 0118.33 1.84l52 42.76 2.49-3-52-42.76A20.78 20.78 0 0063 44.51c-6.74 3.4-10.7 9.92-10.32 17z"/><path class="cls-2" d="M41.71 199.11c-4-75.93 71.07-102.78 71.07-102.78 50.54-22.11 111.76-21.62 163.72-3.61l47.2-48c10.65-10.82 30.16-4.57 30.92 9.9l8.59 163.54a89.78 89.78 0 01-76.81 93.56L130 320a89.76 89.76 0 01-86.4-85l-1.89-35.86"/><path class="cls-3" d="M112 94.54c48.29-21.13 109.49-22.64 164-4.07l46.34-47.1a20.77 20.77 0 0122.21-4.66c7.06 2.68 11.68 8.74 12.05 15.82l8.6 163.54A91.08 91.08 0 01316.43 304a20.37 20.37 0 00-1.23-3.73 87.24 87.24 0 0046.06-82l-8.6-163.54c-.29-5.59-3.85-10.22-9.52-12.37a17.66 17.66 0 00-4.45-1 16.65 16.65 0 00-13.59 4.8L277 95l-1.17-.4C222 75.9 161.33 77.23 113.44 98.17c-.73.26-73.64 27.21-69.77 100.84l1.88 35.86c2.37 45 39.46 81.51 84.32 83.15l152.78-8.14a20.93 20.93 0 00-2 4l-150.75 8q-3-.1-5.94-.41C79.66 317 44 280.12 41.64 235.08l-1.88-35.87c-4.02-76.5 71.6-104.45 72.24-104.67z"/><path class="cls-3" d="M303.62 103.81a7.84 7.84 0 01-4-13.88l19-15.19c8.56-6.83 22-.68 21.29 9.75l-1.66 24.64a7.81 7.81 0 01-13.32 5 37.29 37.29 0 00-21.31-10.32z"/><ellipse class="cls-2" cx="86.34" cy="188.7" rx="17.43" ry="30.5" transform="rotate(-4.24 86.343 188.63)"/><path class="cls-3" d="M87.83 221.06c-5 0-9.9-3.12-13.78-8.87s-6.38-13.61-7-22.06.68-16.57 3.68-22.86c3.16-6.63 7.86-10.51 13.22-10.9 10.84-.82 20.34 12.77 21.69 30.9s-6.08 32.95-16.9 33.73c-.3.05-.61.06-.91.06zm.62-3.86l.15 1.91-.15-1.91c8.39-.62 14.51-14.2 13.36-29.65s-9.21-27.92-17.58-27.36c-3.93.29-7.49 3.4-10 8.74-2.72 5.69-3.89 13.12-3.32 20.91s2.84 15 6.36 20.2c3.27 4.96 7.27 7.46 11.18 7.16z"/><path class="cls-3" d="M92.62 194.82a5.28 5.28 0 01-3.84 2.18 5.34 5.34 0 01-5.71-5 5.25 5.25 0 01.52-2.65C79.91 191 77.5 197.1 78 204.12c.6 8 4.81 14.29 9.4 13.95s7.84-7.14 7.24-15.18a22.78 22.78 0 00-2.02-8.07z"/><ellipse class="cls-2" cx="207.39" cy="180.69" rx="17.43" ry="30.5" transform="rotate(-4.24 207.286 180.664)"/><path class="cls-3" d="M208.88 213.06c-5 0-9.89-3.12-13.77-8.87s-6.38-13.61-7-22.07.68-16.56 3.68-22.85c3.17-6.63 7.86-10.51 13.22-10.91 10.84-.8 20.34 12.77 21.69 30.9.63 8.46-.68 16.57-3.68 22.86-3.17 6.63-7.86 10.51-13.22 10.91-.31.02-.61.03-.92.03zm-3-60.89h-.6c-3.93.29-7.49 3.39-10 8.73-2.72 5.7-3.89 13.12-3.32 20.92s2.84 15 6.37 20.2c3.3 4.91 7.32 7.42 11.22 7.16s7.49-3.39 10-8.73c2.72-5.69 3.89-13.13 3.31-20.92-1.11-15.07-8.81-27.36-16.98-27.36z"/><path class="cls-3" d="M213.67 186.82a5.29 5.29 0 01-9-5.44c-3.68 1.65-6.08 7.72-5.56 14.74.59 8 4.8 14.28 9.39 13.94s7.84-7.13 7.25-15.17a22.94 22.94 0 00-2.08-8.07zm-58.6 22.29l-11.7.33a4.2 4.2 0 00-3.47 6.4l6.14 10a4.21 4.21 0 007.28-.21l5.57-10.3a4.2 4.2 0 00-3.82-6.22z"/><path class="cls-2" d="M149.34 221.74l5 29.68"/><path class="cls-3" d="M151.45 221.38c.56.07.42.25.48.4l.08.46.16.93.32 1.85.65 3.71 1.28 7.41q1.34 7.41 2.44 14.85l-5 .85q-1.38-7.4-2.56-14.83l-1.3-7.42-.61-3.71-.3-1.86-.15-.93-.08-.46c0-.16-.19-.29.32-.53z"/><path class="cls-3" d="M188.44 260.36c-2.22 18.7-13.79 33.43-29.21 35.14s-29.95-10.11-36.23-27.88c-2.2-6.21.73-13.07 5.86-13.65l50.84-5.64c5.15-.57 9.51 5.48 8.74 12.03z"/><path class="cls-3" d="M159.35 297.68c-16.22 1.8-31.69-10-38.51-29.32a14.35 14.35 0 011.1-12.17 8.9 8.9 0 016.58-4.37l50.83-5.65a9 9 0 017.39 2.82 14.41 14.41 0 013.74 11.64c-2.41 20.37-14.93 35.25-31.13 37.05zM129 256.16a4.68 4.68 0 00-3.37 2.35 9.93 9.93 0 00-.68 8.4c6 17.11 20 28 33.91 26.44s25.15-15.21 27.29-33.23a9.91 9.91 0 00-2.51-8.05 4.67 4.67 0 00-3.81-1.56z"/><path d="M136 284.58s7.1-15 21.79-11.84c0 0 7.93-8.63 26.65-4.38 0 0-5.06 22.62-25.6 25-13.48 1.49-22.84-8.78-22.84-8.78z" fill="#ea0029"/><path class="cls-2" d="M140.21 334.2c-25.5-21.3-49.39-28.92-54.47-23.78-11.06 11.19 13.57 33.46 40.42 55.87"/><path class="cls-4" d="M126.87 366.54l-29.28-26.06s11.06-9.48 11.55-28.59c9.43 5.95 30.22 18.66 30 22.24s-2.43 8.73-2.43 8.73l-7.92 25.5z"/><path class="cls-3" d="M85.17 308.41c7-5.12 31 3.23 56.08 24.18a2.19 2.19 0 01.38 2.79 1.62 1.62 0 01-2.45.44c-25.79-21.54-48.45-27.8-52.28-23.9a6.92 6.92 0 00-2.11 5.39c.47 11.45 22.14 30.45 42.41 47.36a2.2 2.2 0 01.38 2.8 1.62 1.62 0 01-2.45.44c-27.39-22.86-43.34-38.44-43.84-50.41a11.11 11.11 0 013.29-8.58 5.84 5.84 0 01.59-.51z"/><path class="cls-3" d="M96.49 338.23l2.19 4.5c.43-.28 10.76-7 12.65-28.19l-4.48-.52c-1.64 18.35-10 23.98-10.36 24.21z"/><path class="cls-5" d="M111.1 348.75A25.23 25.23 0 00115 343a58.83 58.83 0 002.72-6.2 100.22 100.22 0 003.83-12.95.7.7 0 00-.42-.82.59.59 0 00-.71.43 93.24 93.24 0 01-4.59 12.31 52.28 52.28 0 01-3 5.66 23.41 23.41 0 01-3.56 4.66l-.14.12a1.88 1.88 0 00-.24 2.41 1.38 1.38 0 002.11.28z"/><path class="cls-8" d="M89.57 312.17s9.77-.64 9.77 8.79-19.64 6.28-19.64 6.28"/><path class="cls-8" d="M95.94 305.84H43.63s.44 26.67 26.16 26.67 26.15-26.67 26.15-26.67z"/><path d="M60.52 267.5l3.55 3.55a9.76 9.76 0 010 13.79 9.73 9.73 0 000 13.77l2.93 2.95m4.23-38.34l3.54 3.54a9.74 9.74 0 010 13.78" fill="none" stroke="#d8d8d8" stroke-linecap="round" stroke-linejoin="round" stroke-width="4"/><path class="cls-2" d="M288.71 354.4c25.81-24.8 37.94-50.13 33.92-56.68-8.75-14.26-35.34 9.38-62.49 35.48"/><path class="cls-4" d="M259.48 333.74L293.13 304a27.69 27.69 0 0021.31 18.66c-7.75 11.6-27.55 34.34-27.55 34.34z"/><path class="cls-3" d="M324.74 297.05c3.63 8.63-9.25 34-34.63 58.4a2 2 0 11-2.74-2.86c26.09-25.06 36.66-49.27 33.6-54.21a6.41 6.41 0 00-4.85-3.28c-11.27-1.44-34.08 19.46-54.57 39.16a2 2 0 01-2.81-.06 2 2 0 01.06-2.8c27.69-26.63 46-41.75 57.83-40.24a10.3 10.3 0 017.73 5.15 5.72 5.72 0 01.38.74z"/><path class="cls-3" d="M314.86 320.51a27.21 27.21 0 01-20.28-17.18l-4.11 1.33A31.54 31.54 0 00314 324.75zM190.71 220.43a29.56 29.56 0 01-19.71-7.64A32.68 32.68 0 01160.18 191l-2.67-31a11.54 11.54 0 012.44-8.19 10.52 10.52 0 017.36-4l63.19-5.42a11.07 11.07 0 0111.73 10.33l2.67 31.07A32.67 32.67 0 01238 207a29.5 29.5 0 01-20.67 11.22l-24.07 2.07c-.87.11-1.71.14-2.55.14zm-23.09-69a6.94 6.94 0 00-4.8 2.62 7.87 7.87 0 00-1.65 5.59l2.67 31.07a29.06 29.06 0 009.56 19.33 25.78 25.78 0 0019.52 6.61L217 214.6a25.88 25.88 0 0018.11-9.85 29.05 29.05 0 006.13-20.67L238.57 153a7.44 7.44 0 00-7.76-7zm-91.73 79.14a26.1 26.1 0 01-18.33-7.85A34.49 34.49 0 0147.64 201L45 169.89c-.54-6.21 3.48-11.64 8.94-12.11l57.19-4.91a9.39 9.39 0 017.4 2.79 12.08 12.08 0 013.48 7.61l2.67 31.07c1.51 17.59-9.65 33-24.87 34.27L78 230.48c-.71.06-1.41.09-2.11.09zm-21.65-69.13c-3.45.3-6 3.94-5.6 8.13l2.66 31.07a30.84 30.84 0 008.84 19.46 22.19 22.19 0 0017.54 6.72L99.47 225c13.21-1.13 22.87-14.72 21.53-30.29l-2.67-31.07a8.4 8.4 0 00-2.4-5.31 5.73 5.73 0 00-4.5-1.75z"/><path class="cls-3" transform="rotate(-4.93 141.573 182.034)" d="M121.83 180.21h39.35v3.67h-39.35z"/><path class="cls-3" d="M352.49 185.21a1.85 1.85 0 01-2.6-.11l-11.83-12.85a30.82 30.82 0 00-28-9.54l-67.64 11.6-.62-3.63 67.64-11.59a34.5 34.5 0 0131.34 10.67l11.83 12.85a1.85 1.85 0 01-.1 2.6z"/><path class="cls-10" d="M157.3 303.74l5.4 36.12 35.91-23.83-41.31-12.29z"/><path class="cls-3" d="M163.77 342.2a2.57 2.57 0 01-3.61-2l-5.4-36.13a2.56 2.56 0 01.86-2.32 2.59 2.59 0 012.42-.52l41.3 12.29a2.57 2.57 0 01.69 4.61L164.12 342a2.43 2.43 0 01-.35.2zm-3.33-34.85l4.21 28.13 28-18.56z"/><path class="cls-10" d="M234.51 292.19l5.4 36.13-41.3-12.29 35.9-23.84z"/><path class="cls-3" d="M241 330.65a2.53 2.53 0 01-1.8.13l-41.3-12.29a2.57 2.57 0 01-.69-4.61l35.9-23.83a2.58 2.58 0 014 1.76l5.4 36.13a2.61 2.61 0 01-.86 2.32 2.69 2.69 0 01-.65.39zm-36.37-15.52l32.16 9.57-4.2-28.13z"/><path class="cls-10" d="M181.73 318.55l-15.77-1.88"/><path class="cls-3" d="M182.79 320.89a2.52 2.52 0 01-1.37.21l-15.77-1.87a2.57 2.57 0 11.61-5.11L182 316a2.57 2.57 0 01.76 4.89z"/><path class="cls-10" d="M226.58 309.61l1.29-.34"/><path class="cls-3" d="M228.94 311.6a2.74 2.74 0 01-.4.15l-1.29.35a2.57 2.57 0 01-1.34-5l1.29-.34a2.57 2.57 0 011.74 4.81z"/><path class="cls-10" d="M210.31 314.01l10.3-2.78"/><path class="cls-3" d="M221.68 313.56a2.37 2.37 0 01-.4.15L211 316.49a2.57 2.57 0 11-1.34-5l10.3-2.79a2.57 2.57 0 011.74 4.82z"/><circle class="cls-10" cx="198.61" cy="316.03" r="9.55"/><path class="cls-3" d="M203.64 327.05a11.93 11.93 0 01-3.24 1 12.11 12.11 0 1110.19-13.77 12.12 12.12 0 01-6.95 12.77zm-7.94-17.37a7 7 0 109.81 5.32 7 7 0 00-7.94-5.87 7.34 7.34 0 00-1.87.55zm12.35 4.94z"/></g></g></svg>