<svg xmlns="http://www.w3.org/2000/svg" id="Шар_1" data-name="Шар 1" viewBox="0 0 220 220"><defs><clipPath id="clip-path"><path class="cls-1" d="M0 0h220v212a8 8 0 01-8 8H8a8 8 0 01-8-8V0z"/></clipPath><clipPath id="clip-path-2"><path class="cls-1" d="M220 0h220v212a8 8 0 01-8 8H228a8 8 0 01-8-8V0z"/></clipPath><style>.cls-1{fill:none}.cls-3{fill:#481d77}.cls-4{fill:#60269e}.cls-5,.cls-6{fill:#101820}.cls-6{opacity:.6;isolation:isolate}.cls-7{fill:#444a50}.cls-8{fill:#471a77}.cls-9{fill:#a27bc5}</style></defs><g clip-path="url(#clip-path)"><path class="cls-3" d="M188 198.92c6.84.27 8.83 7.68 13.53 4.46 1.14-.78 2.23-1.65 3.28-2.48v-33.08h-13.92v12.27h-32.47v-15.87h-9.53V220h32.79l-1.68-6.45c.66-7.22 1.17-14.9 8-14.63z"/><path class="cls-4" d="M66.76 164.11v-21.64h-4.54v49.98H49.63v-49.98h-2.39v52.18h17.72v-30.54h1.8z"/><path class="cls-4" d="M62.22 192.45v-77.97H49.63v77.97h12.59zm-33.59.21v5.86h-7.25V220h16.08v-27.34h-8.83zm-7.25-31.47V98.8l4.43-2v-7l-9.88-9.5L6 89.78v46.84a5.32 5.32 0 011.18 2.2c1.23 3.3 3.09 11.76 3.3 21.32v3.51c0 .49-.07 1-.12 1.4h8.61v-3.92z"/><path class="cls-5" d="M7.79 172.09l-.18.16zm-.41.34a.91.91 0 01-.16.11.91.91 0 00.16-.11zm.81-.77l-.2.23c.07-.07.13-.15.2-.23zM7 172.69l-.13.07zm2.24-2.86c-.07.19-.16.37-.24.54.08-.17.17-.37.24-.54zm-.67 1.31l-.22.31zm.35-.61zm-2.41 2.35h-.09zm-.96-6.67l.14-4 .1 4.23c1.38 1.32 3.07.25 4.71-4.19v-2.13c-.21-9.56-2.07-18-3.3-21.32a5.32 5.32 0 00-1.2-2.18c-.56-.39-1 .38-1.72 2.17-.35.93-.66 1.87-.95 2.82-1.47 12.01-.11 21.82 2.22 24.6zm4.93-3.57v1c-.02-.3-.01-.64 0-1zm-1.2 7.09a16.89 16.89 0 001-4.62c0-.44.09-.91.12-1.4a19.47 19.47 0 01-1.12 6.02z"/><path class="cls-3" d="M9 170.37s-.05.11-.08.16.08-.11.08-.16z"/><path class="cls-6" d="M9 170.37s-.05.11-.08.16.08-.11.08-.16z"/><path class="cls-3" d="M8.69 170.94l-.12.2z"/><path class="cls-6" d="M8.69 170.94l-.12.2z"/><path class="cls-3" d="M8 171.89l-.2.2z"/><path class="cls-6" d="M8 171.89l-.2.2z"/><path class="cls-3" d="M6.42 172.91L6 173z"/><path class="cls-6" d="M6.42 172.91L6 173z"/><path class="cls-3" d="M7.61 172.25l-.23.18z"/><path class="cls-6" d="M7.61 172.25l-.23.18z"/><path class="cls-3" d="M7.22 172.54l-.27.15z"/><path class="cls-6" d="M7.22 172.54l-.27.15z"/><path class="cls-3" d="M6.82 172.76a2.85 2.85 0 01-.31.12 2.85 2.85 0 00.31-.12z"/><path class="cls-6" d="M6.82 172.76a2.85 2.85 0 01-.31.12 2.85 2.85 0 00.31-.12z"/><path class="cls-3" d="M8.35 171.45l-.16.21z"/><path class="cls-6" d="M8.35 171.45l-.16.21z"/><path class="cls-3" d="M9.28 169.73a.42.42 0 010 .1.42.42 0 000-.1z"/><path class="cls-6" d="M9.28 169.73a.42.42 0 010 .1.42.42 0 000-.1z"/><path class="cls-3" d="M3.35 141.61v-.08A65.85 65.85 0 00.7 164a66.61 66.61 0 012.65-22.39z"/><path class="cls-6" d="M3.35 141.61v-.08A65.85 65.85 0 00.7 164a66.61 66.61 0 012.65-22.39z"/><path class="cls-4" d="M10.5 162.26v.37c-.01-.12 0-.24 0-.37z"/><path class="cls-6" d="M10.5 162.26v.37c-.01-.12 0-.24 0-.37z"/><path class="cls-5" d="M3.79 169.43l1.59 1.36.17-4.58c-2.33-2.78-3.69-12.59-2.2-24.6A66.61 66.61 0 00.7 164c.36 5 2.37 8.6 4.6 9v-1.17z"/><path class="cls-6" d="M3.79 169.43l1.59 1.36.17-4.58c-2.33-2.78-3.69-12.59-2.2-24.6A66.61 66.61 0 00.7 164c.36 5 2.37 8.6 4.6 9v-1.17z"/><path class="cls-5" d="M10.44 163.71v-1.37c-1.64 4.44-3.33 5.51-4.71 4.19v1.87l1.72-1.48L5.84 169l.09 4H6l.4-.09h.09a2.85 2.85 0 00.31-.12l.13-.07.27-.15a.91.91 0 00.16-.11l.23-.18.18-.16.2-.2.2-.23.16-.21.22-.31.12-.2c.08-.13.15-.26.23-.41s.05-.11.08-.16.17-.35.24-.54a.42.42 0 000-.1 19.47 19.47 0 001.22-6.05z"/><path class="cls-6" d="M10.44 163.71v-1.37c-1.64 4.44-3.33 5.51-4.71 4.19v1.87l1.72-1.48L5.84 169l.09 4H6l.4-.09h.09a2.85 2.85 0 00.31-.12l.13-.07.27-.15a.91.91 0 00.16-.11l.23-.18.18-.16.2-.2.2-.23.16-.21.22-.31.12-.2c.08-.13.15-.26.23-.41s.05-.11.08-.16.17-.35.24-.54a.42.42 0 000-.1 19.47 19.47 0 001.22-6.05z"/><path class="cls-7" d="M5.61 169.32v-.8l.22-.19-.04-1.87-.1-4.23-.14 3.98-.17 4.58.23.2-.11 1.07-.16-.25-.04 1.17-.28 7.49H6.1l-.17-7.46-.09-3.98-.23.29z"/><path class="cls-7" d="M5.34 171.81l.16.25.11-1.07-.23-.2-1.59-1.36 1.55 2.38zm.27-2.49l.23-.29 1.71-2.18-1.72 1.48-.22.19v.8z"/><path class="cls-8" d="M21.38 146.28v14.91h7.25v5.88h10.61V90.8l-13.43 6-4.43 2zm11.14-44.77h2.9v7.82h-2.9zm0 14.85h2.9v7.82h-2.9zm-3.68 13.24h2.9v7.82h-2.9zm-3.57-28.09h2.9v7.82h-2.9zm0 14.85h2.9v7.82h-2.9zm3.36 50.71v25.59h16.86v-25.59H28.63zM0 163.6h.03v29.68H0z"/><path class="cls-8" d="M28.63 192.66v-31.47h-9.7v37.33h9.7v-5.86z"/><path class="cls-9" d="M28.84 129.6h2.9v7.81h-2.9zm-3.57-28.09h2.9v7.81h-2.9zm7.25 0h2.9v7.81h-2.9zm-7.25 14.85h2.9v7.81h-2.9zm7.25 0h2.9v7.81h-2.9z"/><path class="cls-5" d="M201.55 203.38c-4.7 3.22-6.69-4.19-13.53-4.46s-7.36 7.41-8 14.63l1.69 6.45h23.15v-19.1c-1.08.83-2.17 1.7-3.31 2.48z"/><path class="cls-4" d="M112.12 21.03H97.41v113.53l14.71-7.86V21.03zm78.77 146.79h13.94v-35.5l13.8-8.86V47.08l-15.6-15.18-15.63 15.18v48.04h3.49v72.7z"/><path class="cls-4" d="M158.42 164.22v15.87h32.47V95.12h-16.22v69.1h-16.25z"/><path class="cls-4" d="M161.48 161.05h-18.53v.89h5.94v2.28h25.78V79.25h-13.19v81.8z"/><path class="cls-4" d="M142.79 139.49h.16v21.56h18.53V20.36h-20.84v52.45h2.15v66.68z"/><path class="cls-4" d="M134.63 161.94v-22.45h3.35V110.7h1.61v28.79h3.2V72.81h-17.46v97.51h3.36v-8.38h5.94z"/><path class="cls-5" d="M122.78 175.31v9.32h5.91v-11.17a6.3 6.3 0 00-6.42.08c1.91-6.42-1.53-8.75-4.43-7.41 0-4.24-2.5-6.12-5-6.39v15.57z"/><path class="cls-8" d="M148.89 161.94h-5.94v4.19h1.32v9.5h-1.32v8.6h1.32v9.51h-1.32v11.25h-8.32v-11.25h-2.74v-9.51h2.74v-8.6h-2.74v-9.5h2.74v-4.19h-5.94v22.69h2.15V220h18.05v-58.06z"/><path class="cls-8" d="M142.95 139.49h-3.36v54.81h-1.61v-54.81h-3.35v26.64h.8v9.5h-.8v8.6h.8v9.51h-.8v11.25h8.32v-11.25h-2.23v-9.51h2.23v-8.6h-2.23v-9.5h2.23v-26.64z"/><path class="cls-8" d="M137.98 194.3h1.61v-83.6h-1.61v83.6zm-7.14-9.67h-8.06V220h8.06v-35.37zm-8.06 0v-9.32h-9.96V220h9.96v-35.37zm-9.96-9.32v-49l-.7.37-14.72 7.89-8.8 4.7v24.84h2.14V220h22.08zm-5 12.17h-3.54V178h3.54zm-3.54-27.58h3.54v9.5h-3.54zm-8.84 0H99v9.5h-3.56zM99 205.55h-3.56V196H99zm0-18.07h-3.56V178H99zm8.83 18.07h-3.54V196h3.54z"/><path class="cls-8" d="M88.6 164.11H65V220h25.74v-55.89zm-13.27 34.51h-3.55v-9.5h3.55zm0-18.07h-3.55V171h3.55zm8.84 18.07h-3.55v-9.5h3.55zm0-18.07h-3.55V171h3.55z"/><path class="cls-9" d="M104.28 159.9h3.54v9.51h-3.54zm-8.84 0h3.54v9.51h-3.54zm8.84 18.07h3.54v9.51h-3.54zm-8.84 0h3.54v9.51h-3.54zm8.84 18.07h3.54v9.51h-3.54zm-8.84 0h3.54v9.51h-3.54zm-14.82-25h3.54v9.51h-3.54zm-8.84 0h3.54v9.51h-3.54zm8.84 18.08h3.54v9.51h-3.54zm-8.84 0h3.54v9.51h-3.54zm68.94-22.99v9.5h3.55v-9.5h-3.55zm-5.29 0h-3.54v9.5h3.54v-9.5zm5.29 27.61h3.55v-9.51h-3.55v9.51zm-5.29-9.51h-3.54v9.51h3.54v-9.51z"/><path class="cls-8" d="M204.83 132.32V220H220v-97.42l-1.37.88-13.8 8.86z"/><path class="cls-4" d="M50.6 43.67h27.74a3.07 3.07 0 000-6.13H50.6a3.07 3.07 0 100 6.13zm16.91-7.23h15.42a3.06 3.06 0 000-6.12H67.51a3.1 3.1 0 00-3.06 3.06 3.06 3.06 0 003.06 3.06z"/></g><g clip-path="url(#clip-path-2)"><path class="cls-8" d="M254.89 132.32L235.68 120l-5.88-3.76L224 120l-4 2.59V220h34.89zm-34.3 6.25h5.59v15h-5.59zm0 28.58h5.59v15h-5.59zm19.55 15h-5.58v-15h5.58zm-5.58-28.58v-15h5.58v15z"/></g></svg>