<svg xmlns="http://www.w3.org/2000/svg" viewBox="0 0 494.38 688.48"><defs><style>.cls-2{fill:#c8cacc}.cls-3{fill:#fff}.cls-6{fill:#101820}.cls-7{fill:#ffd7cf}.cls-8{fill:#ea0029}</style></defs><g id="Слой_2" data-name="Слой 2"><g id="Block_2" data-name="Block 2"><g opacity=".35"><path class="cls-2" d="M172 125.09a27.42 27.42 0 11-27.42 27.42v-27.42z"/><rect class="cls-2" x="23.41" y="364.96" width="126.73" height="48.68" rx="10" transform="rotate(-180 86.77 389.3)"/><rect class="cls-3" x="36.96" y="398.11" width="99.62" height="5.28" rx="2.64" transform="rotate(-180 86.77 400.755)"/><rect class="cls-3" x="36.96" y="386.66" width="99.62" height="5.28" rx="2.64" transform="rotate(-180 86.77 389.3)"/><path class="cls-3" d="M65 380.19h68.9a2.65 2.65 0 002.64-2.64 2.64 2.64 0 00-2.64-2.64H65a2.53 2.53 0 00-2.5 2.64 2.53 2.53 0 002.5 2.64z"/><path class="cls-2" d="M68.5 79.08H140a42.38 42.38 0 0042.39-42.38H68.5a21.25 21.25 0 00-21.19 21.19A21.26 21.26 0 0068.5 79.08z"/><path class="cls-3" d="M68.37 48.86h65.85A2.89 2.89 0 00137.1 46a2.89 2.89 0 00-2.88-2.88H68.37A2.89 2.89 0 0065.49 46a2.89 2.89 0 002.88 2.86zm0 11.76h65.85a2.89 2.89 0 002.88-2.88 2.89 2.89 0 00-2.88-2.88H68.37a2.89 2.89 0 00-2.88 2.88 2.89 2.89 0 002.88 2.88zm0 11.76h65.85a2.89 2.89 0 002.88-2.88 2.89 2.89 0 00-2.88-2.88H68.37a2.89 2.89 0 00-2.88 2.88 2.89 2.89 0 002.88 2.88z"/><circle class="cls-3" cx="155.86" cy="54.86" r="9.99"/><path class="cls-2" d="M363.82 402.46l52.65.17c1.12-.11 2.24-.17 3.38-.17h39.29a35.35 35.35 0 0135.24 35.25v9a35.35 35.35 0 01-35.24 35.25h-39.29a35.35 35.35 0 01-35.24-35.25v-9a35 35 0 016.16-19.85z"/><path class="cls-3" d="M454.46 442.19a3.91 3.91 0 103.91-3.9 3.91 3.91 0 00-3.91 3.9zm-18.87 0a3.91 3.91 0 103.9-3.9 3.9 3.9 0 00-3.9 3.9zm-18.88 0a3.91 3.91 0 103.91-3.9 3.91 3.91 0 00-3.91 3.9z"/><path class="cls-2" d="M0 262.2h97.31a24.37 24.37 0 0024.3-24.3V214a24.36 24.36 0 00-24.3-24.29h-73A24.36 24.36 0 000 214v48.2z"/><path class="cls-3" d="M14.25 210.07h89.36a.86.86 0 000-1.72H14.25a.86.86 0 100 1.72zm0 11.93h89.36a.86.86 0 100-1.72H14.25a.86.86 0 000 1.72zm0 11.9h89.36a.86.86 0 100-1.72H14.25a.86.86 0 100 1.72zm0 11.92h89.36a.86.86 0 000-1.72H14.25a.86.86 0 000 1.72z"/><rect class="cls-2" x="387.29" y="180.71" width="81.23" height="81.23" rx="10" transform="rotate(-180 427.905 221.325)"/><path class="cls-3" d="M453.76 261.94h-51.71s-.63-36 26.24-36c23.14-.01 24.98 29.66 25.47 36z"/><circle class="cls-3" cx="427.9" cy="209.07" r="13.04"/><rect class="cls-2" x="254.39" y="93.58" width="184.4" height="47.41" rx="12" transform="rotate(-180 346.59 117.285)"/><path class="cls-3" d="M271.83 111.87h149.52a.93.93 0 000-1.86H271.83a.93.93 0 100 1.86zm0 12.69h149.52a.93.93 0 000-1.86H271.83a.93.93 0 100 1.86z"/><path class="cls-2" d="M254.06 0h91a17 17 0 0116.16 11.87l19.33 5.06L361 22.64a17 17 0 01-15.93 11.22h-91a16.93 16.93 0 010-33.86z"/><rect class="cls-3" x="255.98" y="8.95" width="86.89" height="4.61" rx="2.3" transform="rotate(-180 299.42 11.26)"/><path class="cls-3" d="M288 24.26h52.61a2.31 2.31 0 002.3-2.3 2.31 2.31 0 00-2.3-2.3H288a2.31 2.31 0 00-2.31 2.3 2.31 2.31 0 002.31 2.3z"/></g><path stroke="#101820" stroke-miterlimit="10" stroke-width="3" fill="#ffc549" d="M420.64 282.79H248.12l-123.8 62.99-29.39 341.2h7.6l47.57-327.45 22.33-5.09L261 673.66h7.1L192.13 350.4l56.86-13.09h78.82l92.83-54.52z"/><path d="M366.85 421.05s-156.14-4.24-171.52-3.62-70.19 9.63-75.07 22 .9 19.16 15.49 19.16 114.62 11.19 127.64 10.28 99.5-8.9 104.11-11.1 8.73-14.58 8.36-19.09-3.38-15.38-9.01-17.63z" fill="#ffd476" stroke="#101820" stroke-miterlimit="10" stroke-width="3"/><path class="cls-3" d="M302.47 402.53c8.25-8.49 21.64-18.56 27.24-21.1s10.46-3.77 14.93-1.42c4.74 2.5 7.1 8.53 6.87 13.4-.52 11-14.35 17.77-19.36 20.22-17.55 8.59-35.72 4.76-44.06 2.35"/><path class="cls-6" d="M308.22 420.34a55.31 55.31 0 0024.54-5.48c5.35-2.61 19.56-9.57 20.12-21.39.24-5.18-2.29-11.88-7.6-14.67s-11.16-.88-16.14 1.39c-5.56 2.52-19.14 12.62-27.65 21.38l2 1.91c8.32-8.55 21.47-18.37 26.82-20.8 6.21-2.81 10.31-3.24 13.73-1.45 4.3 2.26 6.34 7.8 6.14 12.11-.48 10.2-13.64 16.64-18.59 19.06-15.63 7.65-32.06 5.45-43.08 2.26l-.77 2.64a74.57 74.57 0 0020.48 3.04z"/><path class="cls-3" d="M175.89 410a11 11 0 007.31-6c2.57-6 4.92-10.85 5.26-17.56 0-.23.08-.8.14-1.36l.38-.84a29.39 29.39 0 003-10.57c.59-5-2.8-9.49-7.14-11.89h106.6a2.82 2.82 0 00-2.07 4.49c8.51 11.18 13.26 28.45 13.26 42.34A28.61 28.61 0 01274 437.24h-79.85A28.57 28.57 0 01167 417.61a12.24 12.24 0 008.89-7.61zm10.2-195.37s34.67-31.22 61-45.84c12.17-6.86 23.38-8.17 23.61 6s2.11 29.65 2.11 29.65z"/><path class="cls-6" d="M274.31 205.6L182 216.5l3.2-2.89c.35-.31 35.09-31.49 61.22-46 6.31-3.56 15-7.13 20.67-3.89 3.22 1.84 4.89 5.55 5 11 .23 13.9 2.08 29.35 2.1 29.5zm-84 7.16l81-9.56c-.45-4.11-1.77-16.8-2-28.43-.07-4.44-1.28-7.36-3.6-8.69-3.53-2-9.91-.64-18 3.9-21.17 11.79-48.17 34.71-57.42 42.78z"/><path d="M331 241.73a6 6 0 0011 0l7.82-17.4c3.32-7.37-4.76-15.44-12.8-12.79l-17.87 5.88a6.05 6.05 0 00-.86 11.12A28.87 28.87 0 01331 241.73z"/><path class="cls-3" d="M180.41 362.69c-32.9-3-59.35-30.8-59.35-64.47 0 0-9.57-71.3 57.53-93.36a153.77 153.77 0 01115.06 0s50.72-7.6 64.53-6.52 19.2 9.71 13.16 20.71-22.75 52.64-22.75 52.64-1.72 14.91-3 27.83c-3.36 33.55-20.24 60.09-53.2 63"/><path class="cls-6" d="M180.29 364.06l.25-2.73c-32.59-2.93-58.11-30.66-58.11-63.11-.11-.89-8.62-70.61 56.59-92.05a152.66 152.66 0 01114.11 0l.35.15.37-.06c.51-.08 50.71-7.54 64.22-6.52 6.57.52 11.28 2.83 13.28 6.52 1.77 3.29 1.35 7.5-1.21 12.17-6 11-22.14 51.09-22.82 52.79l-.09.35c0 .15-1.74 15.07-3 27.85-3.67 36.67-22.61 59.18-52 61.76l.24 2.73c30.79-2.71 50.63-26.11 54.45-64.21 1.2-12 2.79-25.88 3-27.63 1.18-2.92 16.87-41.87 22.61-52.32 3-5.53 3.46-10.65 1.22-14.79-2.45-4.54-7.95-7.36-15.48-7.95-13.34-1-59.47 5.74-64.46 6.48a155.41 155.41 0 00-115.75.15c-67.31 22.12-58.47 94.08-58.37 94.8 0 33.64 26.62 62.56 60.6 65.62z"/><circle class="cls-7" cx="240.41" cy="299.59" r="2.56"/><circle class="cls-7" cx="231.43" cy="292.78" r="2.56"/><circle class="cls-7" cx="227.8" cy="306.77" r="3.44"/><ellipse class="cls-7" cx="134.57" cy="301.04" rx="1.77" ry="3.23" transform="rotate(-5.11 134.65 301.176)"/><ellipse class="cls-7" cx="138.49" cy="295.07" rx="1.08" ry="1.96" transform="rotate(-5.11 138.51 295.173)"/><ellipse class="cls-7" cx="131.73" cy="291.82" rx="1.08" ry="1.96" transform="rotate(-5.11 131.805 291.955)"/><path class="cls-6" d="M326 246a6 6 0 0010.65 2.73l12-14.88c5.06-6.3-.73-16.14-9.18-15.6l-18.78 1.21A6.06 6.06 0 00317 230a28.84 28.84 0 019 16z"/><path class="cls-3" d="M162.74 271.31c.23-12-5.16-21.91-12-22s-12.65 9.52-12.88 21.55"/><path class="cls-6" d="M162.74 272.68a1.38 1.38 0 001.37-1.34c.25-13-5.63-23.29-13.38-23.44h-.17c-7.67 0-13.85 10-14.1 22.9a1.37 1.37 0 001.34 1.4 1.29 1.29 0 001.4-1.35c.21-11.07 5.56-20.25 11.48-20.21s10.9 9.57 10.69 20.64a1.37 1.37 0 001.34 1.4z"/><path class="cls-3" d="M234.35 271.31c.23-12-5.16-21.91-12-22s-12.65 9.52-12.88 21.55"/><path class="cls-6" d="M234.35 272.68a1.38 1.38 0 001.37-1.34 32.91 32.91 0 00-3.52-16.17c-2.52-4.61-6-7.19-9.86-7.27s-7.44 2.37-10.13 6.88a32.92 32.92 0 00-4.14 16 1.37 1.37 0 001.34 1.4 1.38 1.38 0 001.37-1.35 30.3 30.3 0 013.75-14.67c2.17-3.62 4.88-5.52 7.73-5.54s5.48 2.13 7.51 5.84a30.23 30.23 0 013.18 14.8 1.37 1.37 0 001.34 1.4zm-66 144.56a27.24 27.24 0 0025.8 18.63H274a27.27 27.27 0 0027.24-27.24c0-14.63-5.22-31.31-13-41.51a4 4 0 01-.49-4.16c.62-1.42 3.06-1.73 4.65-1.82l.17 2.72c-.57.05-2.19.23-2.42.74-.1.23-.18.28.27.86 8.1 10.64 13.54 28 13.54 43.17a30 30 0 01-30 30h-79.81a30 30 0 01-28.53-20.78 13.31 13.31 0 002.73-.61zm10.48-140.55l7.52.44a2.71 2.71 0 012.11 4.19l-4.14 6.3a2.71 2.71 0 01-4.68-.28l-3.39-6.73a2.71 2.71 0 012.58-3.92z"/><path class="cls-6" transform="rotate(-89.63 182.125 295.055)" d="M174.06 293.62h16.09v2.86h-16.09z"/><path class="cls-8" d="M300.79 361s-68.39 9.09-117.67 1.75c-2.18 0-2.56-.68-3 .08s-8.87 43.63-17.42 57.93-13.1 12.94-14 16.46 14.53 1.76 23.33 0 22-5.33 35.27-2 29.09 8.05 40.49 6 28.84-11.77 38.08-8.17 28.69 11.79 34.94 7-18.23-12.23-20.02-79.05z"/><path class="cls-6" d="M211.43 437.74l-4.43-1.15c-11.46-2.89-23-.45-31.47 1.33l-3.19.67c-.86.17-21 4.13-24.36.54a2.3 2.3 0 01-.56-2.24c.47-1.78 1.63-2.63 3.09-3.72 2.2-1.63 5.88-4.36 11.1-13.09 7-11.64 14-43.31 16.36-53.72.84-3.75.87-3.89 1-4.15a2.05 2.05 0 012.51-1 9 9 0 001.86.2c48.53 7.21 116.61-1.67 117.29-1.76l1.51-.2v1.52c1.2 44.88 12.58 62.51 18 71 2.68 4.16 4.45 6.9 1.44 9.22-6 4.6-20.84-.68-34.32-6l-2-.77c-5.54-2.16-14.72 1-23.59 4.14a95.68 95.68 0 01-13.76 4.1 36.77 36.77 0 01-6.24.5c-9.27-.01-20.29-2.86-30.24-5.42zm74.94-5.88l2 .77C296.91 436 314.75 443 320 439c.86-.66.78-1.17-2.06-5.57-5.54-8.58-17-26.34-18.45-70.87-10.34 1.27-71.66 8.24-116.34 1.57a10.1 10.1 0 01-1.85-.16l-.67 3c-2.6 11.62-9.5 42.51-16.68 54.53-5.49 9.2-9.45 12.13-11.82 13.88-1.24.92-1.76 1.33-2 2 1.74 1 11.21.6 21.67-1.47l3.15-.66c8.71-1.83 20.64-4.36 32.71-1.3l4.48 1.14c12 3.1 25.59 6.6 35.44 4.87a94.49 94.49 0 0013.33-4c7.05-2.46 14.29-5 20.21-5a14.49 14.49 0 015.25.9zM159.09 308.15l-.27-1.57a4.81 4.81 0 011.06-3.94 4.87 4.87 0 013.75-1.75h39a4.88 4.88 0 014.86 5.3c-.75 8.31-8.3 25.47-26.84 25.47-17.65 0-20.19-15.29-21.56-23.51zm47.46-3.51l-1.26 8-9.28 12-33.94-8.39-2.53-11.85 2-2h40.95zm-42.92-1a2.14 2.14 0 00-1.65.77 2 2 0 00-.46 1.71l.27 1.59c1.41 8.45 3.54 21.22 18.82 21.22 16.65 0 23.43-15.48 24.11-23a2.07 2.07 0 00-.55-1.61 2.11 2.11 0 00-1.58-.7z"/><path class="cls-8" d="M196.61 322s-6.49-9.11-15.88-6.77c0 0-5.45-5.83-17.88-1.41 0 0 1.85 12.67 13.65 14.75s17.09-2.79 20.11-6.57z"/><path fill="#009845" d="M256.83 418.21H128.51l-18.14-69.66H238.7l18.13 69.66z"/><path class="cls-6" d="M258.07 416.88a1.92 1.92 0 01-1.86 2.4H128.69a1.71 1.71 0 01-1.74-1l-18-69.23c-.21-.82.7-1.57 1.91-1.57h127a2.52 2.52 0 012.56 1.47zm-127.61.25h123.61a1.31 1.31 0 001.28-1.65l-16.76-64.38a2.52 2.52 0 00-2.56-1.48H113.72c-1.2 0-2.12.76-1.9 1.58l16.91 64.93a1.7 1.7 0 001.73 1z"/><path class="cls-3" d="M119.65 395.4l-1.77-.52h-.2a27.56 27.56 0 01-2.68-3.38c-1.78-2.94-1.76-7.05-2.17-10.38 0-.18 0-.34-.08-.51a57.12 57.12 0 002.46-6.18c0-.14.06-.28.09-.41 9.29-1.69 15.88-1.14 17.89 1.26 5 6-.91 13.31-12 21.12a6.94 6.94 0 00-1.54-1z"/><path class="cls-6" d="M121.68 397.44c-6.79-.31-9.68-6.71-10.12-12.6-.41-5.48 1.14-11.68 4.75-12.39 15.35-3.81 19.25 3.89 19.41 4.23l.08.22c2.65 9.31-7.2 17.2-13.43 20.39l-.33.17zm-4.77-22.3c-1.3.25-3 4.17-2.6 9.49.17 2.24 1.18 9.48 7.13 10 5.47-2.89 13.72-9.49 11.74-16.87-.41-.68-3.87-5.7-16.27-2.62z"/><path d="M176.24 366c-9.85 0-16 5.48-13.52 15.06s9.47 15.4 20.52 15.4a1.5 1.5 0 001.52-2l-.43-1.65h-2.1c-7.18 0-12.6-3.65-14.71-11.78-1.93-7.44 3.17-11.37 9.67-11.37 6.86 0 12.6 4 14.17 10.09 1.09 4.21.5 6.34-1.32 6.45-1.21 0-1.72-.62-2.18-2.38l-2.55-9.82h-.87a2.64 2.64 0 00-2.8 2.28 7.69 7.69 0 00-5.6-2.79c-3.59 0-6.34 3-5 8.27s5.57 8.61 9.34 8.61a4.23 4.23 0 004.4-3.58c1 2.17 2.64 3.06 6.37 3.06 4.69 0 6.47-4.27 5-10.06C194 371.62 185.73 366 176.24 366zm5.76 18.89a2.47 2.47 0 01-2.65 2.35 4.65 4.65 0 01-3.86-2.35.58.58 0 01.51-.89h5.06a1 1 0 01.94.89z" fill="#0cae68"/><path class="cls-3" d="M294.41 398.59c-36.61 4.71-64.81-1.92-67.47-9.38-5.8-16.26 27.74-20.43 66.26-25.37"/><path class="cls-8" d="M280 400.6s-9.28-11.68-7.1-35.42c8.74-1.94 20.42-1.34 20.42-1.34l2.58 35z"/><path class="cls-6" d="M294.18 362.63a1.58 1.58 0 01-1.35 1.31c-28.25 3.69-57.85 8.54-63.85 18.32a7.06 7.06 0 00-.54 6.41c2.28 6.4 29.68 13 65.77 8.34a1.58 1.58 0 011.78 1.37 1.71 1.71 0 01-.08.75 1.62 1.62 0 01-1.3 1c-36.88 4.75-66.05-1.68-69.17-10.43a10.21 10.21 0 01.82-9.15c6.73-11 36-15.88 66.17-19.82a1.58 1.58 0 011.76 1.82z"/><ellipse class="cls-6" cx="123.05" cy="358.05" rx="3.45" ry="4.05" transform="rotate(-47.26 123.073 358.077)"/><path fill="#ffb71b" stroke="#101820" stroke-miterlimit="10" stroke-width="3" d="M285.91 345.78l123.79-62.99h16.44l-15.57 54.52-56.68 12.81 72.25 323.54h-7.1l-88.5-318.26-19.24 4.35-27.78 327.23h-7.6l9.99-341.2z"/></g></g></svg>