<svg xmlns="http://www.w3.org/2000/svg" xmlns:xlink="http://www.w3.org/1999/xlink" viewBox="0 0 1000 1000"><defs><linearGradient id="Безымянный_градиент_11" x1="601.68" y1="526.02" x2="842.59" y2="526.02" gradientUnits="userSpaceOnUse"><stop offset="0"/><stop offset="1" stop-color="#999"/></linearGradient><linearGradient id="Безымянный_градиент_2" x1="663.69" y1="703.15" x2="494.5" y2="432.09" gradientUnits="userSpaceOnUse"><stop offset=".12"/><stop offset="1" stop-color="#999"/></linearGradient><linearGradient id="Безымянный_градиент_2-2" x1="451.12" y1="537.08" x2="1010.54" y2="474.14" xlink:href="#Безымянный_градиент_2"/><linearGradient id="Безымянный_градиент_2-3" x1="645.12" y1="528.71" x2="843.96" y2="528.71" xlink:href="#Безымянный_градиент_2"/><linearGradient id="Безымянный_градиент_41" x1="537.96" y1="662.44" x2="924.92" y2="372.41" gradientUnits="userSpaceOnUse"><stop offset="0" stop-color="#af001d"/><stop offset="1" stop-color="#ff8578"/></linearGradient><linearGradient id="Безымянный_градиент_41-2" x1="517.31" y1="634.88" x2="904.26" y2="344.85" xlink:href="#Безымянный_градиент_41"/><linearGradient id="Безымянный_градиент_41-3" x1="508.99" y1="623.77" x2="895.94" y2="333.75" xlink:href="#Безымянный_градиент_41"/><linearGradient id="Безымянный_градиент_56" x1="818.94" y1="559.59" x2="631.06" y2="504.65" gradientUnits="userSpaceOnUse"><stop offset="0" stop-color="#ea0029"/><stop offset="1" stop-color="#ffafa3"/></linearGradient><linearGradient id="Безымянный_градиент_16" x1="710.41" y1="457.06" x2="807.83" y2="448.98" gradientTransform="translate(-63.95 62.58)" gradientUnits="userSpaceOnUse"><stop offset="0" stop-color="#8d5c80"/><stop offset="1" stop-color="#020202"/></linearGradient><linearGradient id="Безымянный_градиент_41-4" x1="489.09" y1="597.23" x2="876.04" y2="307.2" xlink:href="#Безымянный_градиент_41"/><linearGradient id="Безымянный_градиент_41-5" x1="583.82" y1="723.62" x2="970.78" y2="433.6" xlink:href="#Безымянный_градиент_41"/><linearGradient id="Безымянный_градиент_41-6" x1="560.13" y1="692.02" x2="947.09" y2="401.99" xlink:href="#Безымянный_градиент_41"/><linearGradient id="Безымянный_градиент_41-7" x1="136.6" y1="704.32" x2="380.28" y2="543.92" xlink:href="#Безымянный_градиент_41"/><linearGradient id="Безымянный_градиент_41-8" x1="52.38" y1="576.38" x2="296.06" y2="415.98" xlink:href="#Безымянный_градиент_41"/><linearGradient id="Безымянный_градиент_41-9" x1="141.21" y1="711.33" x2="384.89" y2="550.93" xlink:href="#Безымянный_градиент_41"/><linearGradient id="Безымянный_градиент_56-2" x1="358.66" y1="635.01" x2="150.87" y2="574.26" xlink:href="#Безымянный_градиент_56"/><linearGradient id="Безымянный_градиент_41-10" x1="95.04" y1="641.19" x2="338.72" y2="480.8" xlink:href="#Безымянный_градиент_41"/><linearGradient id="Безымянный_градиент_28" x1="159.2" y1="594.27" x2="289.96" y2="594.27" gradientUnits="userSpaceOnUse"><stop offset="0" stop-color="#74001c"/><stop offset="1" stop-color="#e15020"/></linearGradient><linearGradient id="Безымянный_градиент_41-11" x1="94.53" y1="640.42" x2="338.22" y2="480.02" xlink:href="#Безымянный_градиент_41"/><linearGradient id="Безымянный_градиент_28-2" x1="515.74" y1="475.05" x2="711.17" y2="638.92" gradientTransform="rotate(2.14 -2275.75 -2580.324)" xlink:href="#Безымянный_градиент_28"/><linearGradient id="Безымянный_градиент_28-3" x1="570.27" y1="411.33" x2="682.99" y2="723.01" gradientTransform="rotate(2.14 -2275.75 -2580.324)" xlink:href="#Безымянный_градиент_28"/><linearGradient id="Безымянный_градиент_28-4" x1="429.24" y1="584.29" x2="813.58" y2="672.54" gradientTransform="translate(15.52 14.96)" xlink:href="#Безымянный_градиент_28"/><linearGradient id="Безымянный_градиент_28-5" x1="699.8" y1="419.04" x2="811.97" y2="729.22" xlink:href="#Безымянный_градиент_28"/><linearGradient id="Безымянный_градиент_28-6" x1="600.27" y1="452.52" x2="713.76" y2="766.34" xlink:href="#Безымянный_градиент_28"/><linearGradient id="Безымянный_градиент_123" x1="601.68" y1="526.02" x2="842.59" y2="526.02" gradientUnits="userSpaceOnUse"><stop offset="0" stop-color="#74001c"/><stop offset="1" stop-color="#4bff5f"/></linearGradient><linearGradient id="Безымянный_градиент_3" x1="663.69" y1="703.15" x2="494.5" y2="432.09" gradientUnits="userSpaceOnUse"><stop offset=".12" stop-color="#74001c"/><stop offset="1" stop-color="#4bff5f"/></linearGradient><linearGradient id="Безымянный_градиент_41-12" x1="350.51" y1="508.29" x2="924.15" y2="535.29" xlink:href="#Безымянный_градиент_41"/><linearGradient id="Безымянный_градиент_3-2" x1="451.12" y1="537.08" x2="1010.54" y2="474.14" xlink:href="#Безымянный_градиент_3"/><linearGradient id="Безымянный_градиент_3-3" x1="645.12" y1="528.71" x2="843.96" y2="528.71" xlink:href="#Безымянный_градиент_3"/><linearGradient id="Безымянный_градиент_28-7" x1="469.98" y1="477.5" x2="509.01" y2="585.42" xlink:href="#Безымянный_градиент_28"/><filter id="luminosity-noclip" x="601.68" y="-5395.04" width="240.92" height="32766" filterUnits="userSpaceOnUse" color-interpolation-filters="sRGB"><feFlood flood-color="#fff" result="bg"/><feBlend in="SourceGraphic" in2="bg"/></filter><filter id="luminosity-noclip-2" x="504.96" y="-5395.04" width="276.49" height="32766" filterUnits="userSpaceOnUse" color-interpolation-filters="sRGB"><feFlood flood-color="#fff" result="bg"/><feBlend in="SourceGraphic" in2="bg"/></filter><filter id="luminosity-noclip-3" x="497.41" y="-5395.04" width="349.47" height="32766" filterUnits="userSpaceOnUse" color-interpolation-filters="sRGB"><feFlood flood-color="#fff" result="bg"/><feBlend in="SourceGraphic" in2="bg"/></filter><filter id="luminosity-noclip-4" x="645.12" y="-5395.04" width="198.84" height="32766" filterUnits="userSpaceOnUse" color-interpolation-filters="sRGB"><feFlood flood-color="#fff" result="bg"/><feBlend in="SourceGraphic" in2="bg"/></filter><filter id="luminosity-noclip-5" x="601.68" y="521.74" width="240.92" height="8.57" filterUnits="userSpaceOnUse" color-interpolation-filters="sRGB"><feFlood flood-color="#fff" result="bg"/><feBlend in="SourceGraphic" in2="bg"/></filter><filter id="luminosity-noclip-6" x="504.96" y="570.51" width="276.49" height="207.16" filterUnits="userSpaceOnUse" color-interpolation-filters="sRGB"><feFlood flood-color="#fff" result="bg"/><feBlend in="SourceGraphic" in2="bg"/></filter><filter id="luminosity-noclip-7" x="497.41" y="502.21" width="349.47" height="16.43" filterUnits="userSpaceOnUse" color-interpolation-filters="sRGB"><feFlood flood-color="#fff" result="bg"/><feBlend in="SourceGraphic" in2="bg"/></filter><filter id="luminosity-noclip-8" x="645.12" y="520.9" width="198.84" height="15.62" filterUnits="userSpaceOnUse" color-interpolation-filters="sRGB"><feFlood flood-color="#fff" result="bg"/><feBlend in="SourceGraphic" in2="bg"/></filter><mask id="mask-5" x="601.68" y="521.74" width="240.92" height="8.57" maskUnits="userSpaceOnUse"><g mask="url(#mask)" filter="url(#luminosity-noclip-5)"><path style="mix-blend-mode:multiply" fill="url(#Безымянный_градиент_11)" d="M601.68 523.16l5.23 7.14 232.83-1.42 2.85-7.14-240.91 1.42z"/></g></mask><mask id="mask-6" x="504.96" y="570.51" width="276.49" height="207.16" maskUnits="userSpaceOnUse"><g mask="url(#mask-2)" filter="url(#luminosity-noclip-6)"><path style="mix-blend-mode:multiply" fill="url(#Безымянный_градиент_2)" d="M507.86 573.17l2.07 204.5-4.8-204.49-.17-2.67 276.49.45-273.59 2.21z"/></g></mask><mask id="mask-7" x="497.41" y="502.21" width="349.47" height="16.43" maskUnits="userSpaceOnUse"><g mask="url(#mask-3)" filter="url(#luminosity-noclip-7)"><path style="mix-blend-mode:multiply" fill="url(#Безымянный_градиент_2-2)" d="M497.41 505.79l9.52 8.57 339.95 4.28-21.75-16.43-327.72 3.58z"/></g></mask><mask id="mask-8" x="645.12" y="520.9" width="198.84" height="15.62" maskUnits="userSpaceOnUse"><g mask="url(#mask-4)" filter="url(#luminosity-noclip-8)"><path style="mix-blend-mode:multiply" fill="url(#Безымянный_градиент_2-3)" d="M843.96 520.9l-2.94 13.73-195.9 1.89 1.15-13.73 197.69-1.89z"/></g></mask><style>.cls-20,.cls-45{mix-blend-mode:multiply}.cls-10{fill:#ffb71b}.cls-11,.cls-23,.cls-31{fill:#101820}.cls-11{opacity:.15}.cls-14{fill:#ea0029}.cls-20,.cls-45{fill:#f05abb}.cls-20{opacity:.48}.cls-22{fill:#fff}.cls-24{fill:#009845}.cls-25{fill:#017234}.cls-26{fill:#ededed}.cls-27{fill:#97d4b3}.cls-31{opacity:.82}.cls-62{fill:#60269e}.cls-64{fill:#ffd7cf}</style></defs><g style="isolation:isolate"><g id="Слой_2" data-name="Слой 2"><g id="Слой_10" data-name="Слой 10"><path class="cls-10" d="M0 0h1000v1000H0z"/><ellipse class="cls-11" cx="647.62" cy="759.08" rx="280.54" ry="39.85"/><ellipse class="cls-11" cx="247.46" cy="701.58" rx="175.62" ry="39.85"/><ellipse class="cls-11" cx="723.14" cy="614.56" rx="167.82" ry="29.02"/><path d="M257.93 573.15l-16.99 9.33 21.06 12.9 14.93-11.88-19-10.35zm201.87 0l-12.18 9.33 26.6 12.22 8.65-11.88-23.07-9.67z" fill="#19373d"/><path fill="url(#Безымянный_градиент_41)" d="M665.9 459.93l1.09 2.64 64.91 156.89 5.49.12-56.96-165.14-14.53 5.49z"/><path class="cls-14" d="M666.99 462.57l64.91 156.89.75.01-59.98-158.03-5.68 1.13z"/><path fill="url(#Безымянный_градиент_41-2)" d="M726.95 408.51l-.42 42.19 125.02 2.91 13.03-41.9-137.63-3.2z"/><path fill="url(#Безымянный_градиент_41-3)" d="M729.32 412.18l-2.79 38.52-77.25 15.4-40.23 160.8-5.88-.13L629.92 455l96.92-46.5 2.48 3.68z"/><path d="M820.92 546.32s-4.72.32-12.15.79c-25.84 1.67-84.52 5.39-92 5.21-9.64-.22-80.35-10.46-80.35-10.46s-15.92-21-7.14-26a3.84 3.84 0 01.35-.17l.43-.17.24-.08.26-.08c.26-.07.54-.15.85-.22 5.42-1.17 18-1.1 36-1.32h.14q5.18-.06 10.94-.17c11.91-.24 24.29-.36 35.6-.4h18.31c5.71 0 10.72 0 14.71.07s7 .07 8.58.11c8.81.21 33.8 3.53 51.48 7.47 4.2.94 8 1.91 11.05 2.88 4.12 1.31 6.93 2.62 7.63 3.84 3.43 5.95-4.93 18.7-4.93 18.7z" fill="url(#Безымянный_градиент_56)"/><path d="M727.94 513.2h-4.8zm.89.01z" style="mix-blend-mode:multiply" opacity=".6" fill="#f05abb"/><path d="M721.59 535c-1.11 2.07-1.85 14.5 1.27 15.08 2.44.46 60.49-1.92 85.91-3-25.84 1.67-84.52 5.39-92 5.21-9.64-.22-80.35-10.46-80.35-10.46s-15.92-21-7.14-26a3.84 3.84 0 01.35-.17l.43-.17.24-.08.26-.08c.26-.07.54-.15.85-.22 5.42-1.17 18-1.1 36-1.32-17.41.56-31.33 1.59-30.71 3.48 1.62 4.91 73.71 12.47 82.6 13.49 8.54 1 85-2 91.08-2.27-6.24.4-87.72 4.56-88.79 6.51z" style="mix-blend-mode:overlay" fill="url(#Безымянный_градиент_16)"/><path class="cls-20" d="M729.01 413.88l-.86 36.86 27.77.64 15.55-34.1 61.52-.98-103.98-2.42z"/><path fill="url(#Безымянный_градиент_41-4)" d="M729.01 413.88l-93.05 41.82 51.54-20.76.66 21.98-39.22 9.17 77.59-15.39 2.48-36.82z"/><path class="cls-14" d="M604.13 620.69l31.62-164.77-5.83.66-25.79 164.11zm232.19-209.63l-109.37-2.55L629.92 455l6.04.7 93.05-41.82 104.87 2.13 7.5.15 23.15-4.45-28.21-.65z"/><path class="cls-22" d="M768.63 504.39c4.75-7.69 13.06-17.41 16.82-20.22s7.17-4.54 10.89-3.53c3.95 1.07 6.7 5.18 7.34 8.85 1.43 8.29-7.76 15.61-11.09 18.27-11.66 9.3-25.84 9.45-32.46 9"/><path class="cls-23" d="M764 518c-1.38 0-2.71 0-3.95-.12l.13-2.09c8.74.56 21.35-.52 31.74-8.81 3.29-2.62 12-9.59 10.7-17.27-.56-3.25-3-7.05-6.57-8-2.85-.78-5.84.23-10 3.35-3.58 2.7-11.76 12.19-16.55 19.94l-1.78-1.1c4.9-7.94 13.35-17.71 17.08-20.51 3.34-2.51 7.34-4.91 11.8-3.7s7.41 5.78 8.09 9.68c1.53 8.9-7.91 16.43-11.47 19.27-9.39 7.45-20.49 9.36-29.22 9.36z"/><path class="cls-24" d="M675.8 463.39a2.19 2.19 0 011.6 3.51c-6.61 8.53-10.81 21.67-10.81 32.25A21.84 21.84 0 00688.43 521h61a21.84 21.84 0 0021.84-21.84c0-10.61-3.63-23.79-10.13-32.32a2.16 2.16 0 011.59-3.43"/><path class="cls-25" d="M670.3 474.83s-1.16 2.37-2 10.13 38.47-2 46.87-7.94c0 0 26.35 16.12 54.9 7.94l-1.2-9.51-56.77-15.9z"/><path class="cls-23" d="M749.39 522h-61a22.92 22.92 0 01-22.89-22.89c0-11.16 4.43-24.38 11-32.89a1.07 1.07 0 00.14-1.11 1.19 1.19 0 00-1-.72l.18-2.08a3.31 3.31 0 012.74 2 3.17 3.17 0 01-.4 3.23c-6.34 8.17-10.6 20.88-10.6 31.61a20.81 20.81 0 0020.8 20.79h61a20.81 20.81 0 0020.8-20.79c0-11.17-4-23.91-9.92-31.69a3.12 3.12 0 01-.37-3.18 3.25 3.25 0 012.7-1.92l.18 2.08a1.17 1.17 0 00-1 .69 1 1 0 00.13 1.06c6.18 8.12 10.34 21.37 10.34 33A22.92 22.92 0 01749.39 522z"/><path class="cls-22" d="M698.81 342s31.23-17.13 53.33-23.39c10.25-3 18.81-2 16.51 8.57s-3.63 22.4-3.63 22.4z"/><path class="cls-26" d="M713.88 336.35c-2 2.19 34.67-2.73 51.45 3.07l1.5-.68 2.46-14.06s1.5-10.44-13.51-7.3-39.1 15.83-41.9 18.97z"/><path class="cls-23" d="M766 350.75l-70.53-8.07 2.89-1.59c.31-.17 31.59-17.25 53.55-23.47 5.31-1.54 12.42-2.67 16 .72 2.07 1.94 2.66 5 1.77 9.07-2.27 10.37-3.59 22.18-3.61 22.29zm-63.69-9.4l61.85 7.08c.37-3.14 1.62-12.79 3.52-21.47.72-3.31.33-5.69-1.16-7.09-2.26-2.12-7.25-2.21-14-.24-17.9 5.04-41.97 17.37-50.26 21.72z"/><path d="M802.45 371.18a4.61 4.61 0 008.39 0l6-13.29c2.53-5.63-3.64-11.79-9.77-9.77l-13.65 4.5a4.63 4.63 0 00-.66 8.49 22 22 0 019.69 10.07z"/><path class="cls-22" d="M687 463.38a49.28 49.28 0 01-44.8-49.07s-7.3-54.43 43.92-71.27A117.37 117.37 0 01774 343s38.72-5.8 49.27-5 14.65 7.41 10 15.81S815.91 394 815.91 394s-1.32 11.38-2.31 21.25c-2.56 25.61-15.45 45.87-40.61 48.08"/><path class="cls-23" d="M773.09 464.43l-.18-2.08c22.4-2 36.86-19.16 39.66-47.15 1-9.76 2.29-21.15 2.31-21.26l.07-.27c.52-1.3 12.83-31.94 17.41-40.3 2-3.57 2.28-6.78.93-9.29-1.52-2.82-5.12-4.59-10.14-5-10.3-.81-48.64 4.92-49 5h-.29l-.26-.11a116.51 116.51 0 00-87.06 0c-49.84 16.39-43.35 69.62-43.27 70.16a48 48 0 0043.85 48.17l-.18 2.08a50 50 0 01-45.76-50.11c-.06-.41-6.81-55.35 44.64-72.26a118.6 118.6 0 0188.3-.09c3.81-.56 39-5.74 49.22-4.94 5.74.44 9.94 2.6 11.81 6.06 1.71 3.17 1.39 7.07-.93 11.29-4.38 8-16.36 37.72-17.26 39.95-.15 1.33-1.37 11.93-2.29 21.09-2.93 29.13-18.08 46.99-41.58 49.06z"/><path class="cls-22" d="M759.1 456.37c-29.76-3.35-60.29-7-58.77 2.38 1 6 22.7 21.64 51 24.81 0 0 34.88 6.5 31.43-22.11"/><path class="cls-24" d="M752.54 455.76c1-1.07 30.38.2 30.45 6.59s-.63 19.87-16.28 21.45c-8.43.29-15.39-.24-15.39-.24s-6.21-18.29 1.22-27.8z"/><path class="cls-27" d="M783 467.5c-21.22 0-32.91-5.53-33.39-5.77l1-2.05c.11.06 11.75 5.54 32.4 5.54zm-.8 4.97c-21.23 0-33.15-6-33.65-6.25l1-2c.12.06 12 6 32.61 6zm-2.2 4.7c-21.27 0-31.18-5.85-31.59-6.1l1.18-1.95c.1.06 9.85 5.77 30.41 5.77z"/><path class="cls-23" d="M759.33 485.26a48.55 48.55 0 01-8.21-.67c-28-3.14-50.7-18.75-51.82-25.68a4.32 4.32 0 011.15-3.81c5.49-5.78 30.57-3 57.11 0l1.66.19a1 1 0 01-.23 2.08l-1.66-.19c-23.72-2.67-50.59-5.7-55.37-.68a2.25 2.25 0 00-.6 2c.88 5.38 21.78 20.77 50.07 23.94.25 0 17.31 3.1 25.77-4.83 3.85-3.61 5.36-9 4.51-16.11a1 1 0 112.08-.25c.94 7.78-.8 13.8-5.16 17.89-5.28 5.03-13.28 6.12-19.3 6.12z"/><path class="cls-22" d="M663.33 455.49c29.76-3.35 65.48-4 65.45-1.63-.1 6.11-29.38 25.65-57.67 28.82 0 0-36.15 10.87-17.36-35.2a52.58 52.58 0 008.51 7.81z"/><path class="cls-24" d="M663.37 455.44c-.14-.06-.28-.09-.42-.16-2.33-1.14-4.23-3.16-6.23-4.79-1.16-.95-1.92-2.47-2.91-3.58a60.36 60.36 0 00-5.06 19.35c-1.48 13.77 9 16.44 13.18 17.48-8.2-8.34.23-25.9 1.44-28.3z"/><path class="cls-27" d="M659.67 464a92 92 0 01-9.39-9.59l1.75-1.46a89.27 89.27 0 009.15 9.35zm-1.38 5.37a93.07 93.07 0 01-9-8.74l1.7-1.52a89.66 89.66 0 008.77 8.52zm-.72 5.63a91.24 91.24 0 01-9.9-8.81l1.64-1.58a87.85 87.85 0 009.66 8.59z"/><path class="cls-23" d="M663.9 484.67c-4.18 0-9.26-.95-12.66-4.77-5.4-6.09-4.76-17.47 1.91-33.83.23-.56.57-.28 1.13-.05s1.11.31.88.87c-6.33 15.53-7.1 26.15-2.29 31.56 5.74 6.47 17.83 3.22 18 3.18 28.35-3.19 55.14-21.83 56.78-27.32-4.38-1.46-35.46-1-64.16 2.26a1.09 1.09 0 01-.25-2.16c26.39-3 63.23-4.27 66.19-1.58a1.36 1.36 0 01.47 1.05c-.11 7.15-30.22 26.7-58.63 29.88a29.56 29.56 0 01-7.37.91z"/><path class="cls-22" d="M667.28 381.58c-1.58-1.16-3.12-2.39-4.64-3.63a1.31 1.31 0 01-.31-.16c-.49-.31-1.14-.88-1.44-1.07a10.88 10.88 0 01-1-.82c-2.72 2.28-4.81 6.88-5.23 12.32-.62 8 2.59 14.76 7.16 15.12s8.77-5.85 9.39-13.84a23.9 23.9 0 00-.21-5.66 29.12 29.12 0 01-3.72-2.26z"/><path class="cls-23" d="M669.71 383.16a22.36 22.36 0 01.37 6.25 19.9 19.9 0 01-3 9.53c-1.55 2.28-3.39 3.46-5.2 3.32-3.9-.31-6.72-6.7-6.15-14 .4-5.21 2.45-9.7 5-11.71a11.92 11.92 0 01-1.72-1.4c-2.89 2.5-5 7.24-5.47 12.94-.67 8.73 2.91 15.88 8.16 16.29h.46c2.45 0 4.81-1.51 6.7-4.28a22.34 22.34 0 003.4-10.58 26.83 26.83 0 00-.12-5.18 25.08 25.08 0 01-2.43-1.18z"/><path class="cls-22" d="M704.85 383.47q-2.61 1-5.2 1.89c-.09.95-.15 1.92-.15 2.92 0 9.88 4.58 17.88 10.22 17.88s10.22-8 10.22-17.88a27.69 27.69 0 00-2-10.53 84.43 84.43 0 01-13.09 5.72z"/><path class="cls-23" d="M718.7 377.34c-.62.39-1.28.71-1.92 1.06a26.61 26.61 0 011.82 9.88c0 9-4.06 16.55-8.88 16.55s-8.88-7.58-8.88-16.55a31 31 0 01.19-3.38c-.92.33-1.84.63-2.76.92-.06.81-.1 1.62-.1 2.46 0 10.78 5.07 19.22 11.55 19.22s11.56-8.44 11.56-19.22a28.84 28.84 0 00-2.15-11.28c-.13.12-.28.24-.43.34zm-52.23 13.82a2.51 2.51 0 01-2 .73 2.54 2.54 0 01-2.34-2.73 2.63 2.63 0 01.43-1.21c-1.85.52-3.41 3.2-3.67 6.54-.3 3.83 1.23 7.07 3.42 7.24s4.2-2.79 4.5-6.62a11.08 11.08 0 00-.34-3.95z"/><path class="cls-23" d="M713.77 390.79a3.11 3.11 0 01-5.46-2 3 3 0 01.41-1.53c-2.22.81-3.89 4.25-3.89 8.38 0 4.73 2.19 8.56 4.89 8.56s4.89-3.83 4.89-8.56a13.49 13.49 0 00-.84-4.85z"/><path class="cls-22" d="M722 375.19A108.91 108.91 0 01693.18 388"/><path class="cls-23" d="M693.18 389.09a1 1 0 01-.26-2.06 108.89 108.89 0 0028.54-12.72 1 1 0 011.14 1.76 110.66 110.66 0 01-29.16 13 .78.78 0 01-.26.02z"/><path class="cls-22" d="M656.63 373.86s10.09 8.28 16.14 11.14"/><path class="cls-23" d="M672.76 386.05a1 1 0 01-.44-.1c-6.1-2.89-15.94-10.94-16.35-11.29a1 1 0 01-.15-1.47 1.06 1.06 0 011.48-.14c.1.08 10.05 8.23 15.91 11a1 1 0 01-.45 2zm125.91-11.63a4.61 4.61 0 008.13 2.08l9.12-11.36c3.87-4.81-.56-12.32-7-11.91l-14.34.92a4.63 4.63 0 00-2.77 8.06 22.07 22.07 0 016.86 12.21zm-118.19 27.49l-5.72.16a2 2 0 00-1.69 3.12l3 4.87a2 2 0 003.55-.1l2.72-5a2.06 2.06 0 00-1.86-3.05z"/><path class="cls-22" d="M677.68 408.07l4.12 14.49"/><path class="cls-23" d="M678.68 407.79c.28 0 .22.1.26.17l.06.23.13.45.27.9.52 1.81L681 415c.71 2.4 1.38 4.82 2 7.25l-2.4.68q-1.1-3.6-2.09-7.24l-1-3.62-.51-1.81-.26-.91-.12-.45-.07-.23c0-.08-.1-.13.13-.28zm71.55 76.11c-6.36-20.61 1.17-28.61 1.49-28.94l1.63 1.59-.81-.79.82.79c-.07.07-6.87 7.5-1 26.67zm-90.06.1a30.26 30.26 0 012.43-29.55l1.83 1.36c-.09.12-8.92 12.34-2.18 27.25z"/><path class="cls-25" d="M706 486a15.86 15.86 0 01-.86 5.87 8.23 8.23 0 01-4.54 4.49 19.24 19.24 0 01-5.83 1.31c-1.93.21-3.83.23-5.73.25-3.75 0-7.48-.07-11.3-.44a15.25 15.25 0 01-5.79-1.52 5.33 5.33 0 01-2.23-2.48 7.73 7.73 0 01-.46-3.1.76.76 0 01.76-.76.77.77 0 01.76.69v.07a6.5 6.5 0 00.54 2.38 3.42 3.42 0 001.56 1.49 15.12 15.12 0 005 1c3.64.21 7.38.07 11.1.08a54.29 54.29 0 005.45-.3 19.68 19.68 0 005.07-1.15 6.43 6.43 0 003.4-3 22 22 0 001.54-5 .77.77 0 01.91-.58.76.76 0 01.65.7zm3.79-.15a18.72 18.72 0 001.29 5.14 6.37 6.37 0 003.54 3.16 18.42 18.42 0 005.16 1.06c1.8.18 3.64.18 5.47.18 3.72 0 7.47 0 11.08-.31a13.53 13.53 0 004.9-1.13 3.86 3.86 0 001.45-1.32 9.59 9.59 0 00.82-2.25v-.08a.77.77 0 011.49.08 6 6 0 01-.16 3.23 5.19 5.19 0 01-2.36 2.65 15.86 15.86 0 01-5.94 1.39c-3.84.28-7.57.21-11.31.2a55.24 55.24 0 01-5.72-.36 20.76 20.76 0 01-5.73-1.39 8.28 8.28 0 01-4.41-4.34 18.35 18.35 0 01-1.11-5.76.76.76 0 011.51-.15zm-1.45 11.03l-.48 18.18a.86.86 0 11-1.71 0v-.08l1.15-18.13a.52.52 0 011 0z"/><path class="cls-25" d="M702.53 499.94c2.42 0 4.85-.19 7.37 0a8.18 8.18 0 011.94.4c.37.15.58.27.83.36a5.07 5.07 0 00.81.23 16.29 16.29 0 003.5.33.48.48 0 01.49.49.49.49 0 01-.47.49 17.71 17.71 0 01-3.77-.21 8.81 8.81 0 01-1-.24c-.33-.11-.67-.27-.86-.33a7 7 0 00-1.64-.27c-2.34-.11-4.79.14-7.23.25a.76.76 0 01-.06-1.52zm9.32 6.73a23.12 23.12 0 00-2.84.58 19.16 19.16 0 01-3 .5 5.73 5.73 0 01-1.6-.11 11 11 0 00-1.42-.2 25.38 25.38 0 00-2.89-.1.59.59 0 01-.61-.58.6.6 0 01.59-.62 27.89 27.89 0 013 .24 13.39 13.39 0 011.51.29 5.14 5.14 0 001.35.16 17.84 17.84 0 002.87-.35 22.87 22.87 0 013-.46.32.32 0 010 .64zm-1.6 7.97c-1.13-.08-2.29-.09-3.44-.09h-3.06s.34-.19.36-.36a.76.76 0 01-1.4-.59 1 1 0 01.54-.48h.19a2 2 0 01.3 0h1.39l1.76.14c1.17.12 2.32.25 3.49.45a.41.41 0 01.33.48.4.4 0 01-.46.45z"/><ellipse class="cls-25" cx="689.31" cy="492.98" rx="1.23" ry="1"/><ellipse class="cls-25" cx="721.66" cy="492.77" rx="1.36" ry="1.13"/><path class="cls-23" d="M668 422.3a27.83 27.83 0 006.59.27 57.3 57.3 0 006.64-.81c2.2-.4 4.38-.89 6.51-1.5 1.06-.3 2.12-.63 3.11-1a13.66 13.66 0 001.43-.61c.42-.17.84-.56.7-.38a1.73 1.73 0 112.83 2 5.37 5.37 0 01-2.15 1.44 17.59 17.59 0 01-1.76.61c-1.16.35-2.3.62-3.44.86-2.29.48-4.58.83-6.88 1.08a59.57 59.57 0 01-6.95.34 29 29 0 01-7-.79.76.76 0 01.33-1.49z"/><path fill="url(#Безымянный_градиент_41-5)" d="M790.92 462.85l1.05 2.64 22 55.46 40.2 101.35 5.49.13-54.21-165.07-14.53 5.49z"/><path fill="url(#Безымянный_градиент_41-6)" d="M864.58 411.71l-13.03 41.9-77.25 15.4-25.22 169.48-5.88-.14 11.74-180.43 96.92-46.5 12.72.29z"/><path class="cls-14" d="M857.79 622.59l-4.13.25-61.69-157.35 5.13-1.03.6-.11 9.43-1.88-8.52 4.27 59.18 155.85z"/><path style="mix-blend-mode:multiply" opacity=".4" fill="#f05abb" d="M762.6 459.74l101.93-48.03-13.22 42.18-10.43 1.85 5.36-31.49-83.64 35.49z"/><path class="cls-14" d="M743.94 619.03l10.96-160.5 7.34 1.21-18.3 159.29zm120.59-207.32l-23.15 4.45-86.44 41.76 7.64 1.74 102-47.95h-.05z"/><path class="cls-31" d="M762.48 459.66l-5.93.08-6.91 75.77 5.3-77.59 74.09-35.79-71.15 35.71 4.6 1.82z"/><path class="cls-31" d="M807.13 462.47l-15.16 3.02 35.37 90.21-31.21-88.2 11-5.03zm-155.38-17.93L629.92 455l-9.16 59.85 12.87-59.15 19.14-10.55-1.02-.61z"/><path fill="url(#Безымянный_градиент_41-7)" d="M325.75 526.04l-1.28 2.91-76.18 172.63h-6.1l67.56-182.01 16 6.47z"/><path class="cls-23" d="M242.19 701.58l37.27-89.09h-4.84l-32.43 89.09z"/><path class="cls-14" d="M324.47 528.95l-76.18 172.63h-.83l70.73-174.04 6.28 1.41z"/><path fill="url(#Безымянный_градиент_41-8)" d="M259.25 467.32l-.62 46.89H119.64l-13.38-46.89h152.99z"/><path fill="url(#Безымянный_градиент_41-9)" d="M256.52 471.35l2.11 42.86 85.43 19.12 40.54 179.7h6.54L365.86 521.5l-106.48-54.18-2.86 4.03z"/><path d="M361.81 618l-13.47 1.19c-28.67 2.52-93.78 8.17-102.1 8.17-10.71 0-89.55-9.55-89.55-9.55s-18.23-23-8.61-28.69c4.35-2.6 24.31-2.44 54.62-3.74 13.22-.57 27-1 39.53-1.37 7.29-.2 14.18-.37 20.34-.5 12.68-.28 22.28-.41 25.88-.41 9.79 0 37.65 3.06 57.4 7 4.69.93 8.92 1.91 12.34 2.91 4.62 1.34 7.77 2.73 8.59 4.07 3.99 6.56-4.97 20.92-4.97 20.92z" fill="url(#Безымянный_градиент_56-2)"/><path class="cls-23" d="M366.79 597.08c-.82-1.34-4-2.73-8.59-4.07-3.42-1-7.65-2-12.34-2.91-19.75-3.92-47.61-7-57.4-7h-1.69c10.09.07 37.51 3.09 57 7 4.69.93 8.92 1.91 12.35 2.91 4.61 1.34 7.76 2.73 8.58 4.07 4 6.56-5 20.94-5 20.94l-13.47 1.19c-27.68 2.44-89.35 7.78-101 8.15h1c8.32 0 73.43-5.65 102.1-8.17l13.48-1.19s8.96-14.36 4.98-20.92z" opacity=".86"/><path d="M348.34 619.21c-28.67 2.52-93.78 8.17-102.1 8.17-10.71 0-89.55-9.55-89.55-9.55s-18.23-23-8.61-28.69c7.35-4.39 73.36-4.73 114.49-5.61-1.24.05-107.23 4.52-105.31 9.9s81.32 9.06 91.22 10S348 598.67 350 598.48c-2 .21-97.67 7.26-98.84 9.57s-1.69 16.15 1.8 16.71c2.72.45 67.16-3.7 95.38-5.55z" style="mix-blend-mode:multiply" opacity=".45" fill="#f05abb"/><path fill="url(#Безымянный_градиент_41-10)" d="M186.77 526.04l-1.23 2.92L159.66 590l-47.3 111.58h-6.1l64.51-182.01 16 6.47z"/><path class="cls-20" d="M256.82 473.24v40.97h-30.87l-16.39-38.29-68.32-2.68h115.58z"/><path style="mix-blend-mode:multiply" opacity=".87" fill="#f05abb" d="M256.82 473.24l102.31 48.88-56.73-24.41-1.3 24.41 43.34 11.21-85.81-19.12-1.81-40.97z"/><path d="M358.2 593l-155.51-7.6c13.22-.57 27-1 39.53-1.37l103.63 6.07c4.7.9 8.93 1.9 12.35 2.9z" style="mix-blend-mode:multiply" opacity=".29" fill="#f05abb"/><path class="cls-14" d="M185.54 528.96L159.66 590l-4.58-.38 24.13-62.08 6.33 1.42zm180.32-7.46l-106.61-54.18H141.92l.3 5.58 114.6.34 102.31 48.88 32.01 190.92-25.28-191.54z"/><path class="cls-23" d="M365.86 521.5l17.68 134.01-21.01-133.54-55.28-30.25 58.61 29.78z"/><path class="cls-14" d="M106.26 467.32l25.65 5.55 10.31.03-.3-5.58h-35.66z"/><path d="M177.75 598s62.36 10.17 112.21-1c-6.83-7-101.06-10.71-101.06-10.71s-27.41.2-29.7 8.42z" fill="url(#Безымянный_градиент_28)"/><path class="cls-22" d="M222.43 578.51c-8.32-2.78-20.56-4.86-25.12-4.63S189.14 575 187 578c-2.28 3.26-1.78 8 0 11.17 4.08 7.07 15.49 6.83 19.62 6.74 14.49-.31 25.16-9 29.83-13.43"/><path class="cls-23" d="M204.63 597h2c13.57-.29 24.09-7.62 30.54-13.71l-1.45-1.53c-6.17 5.84-16.24 12.86-29.13 13.14-4.09.09-14.92.31-18.69-6.22-1.59-2.76-2.13-7.09-.07-10 1.63-2.34 4.47-3.44 9.51-3.69 4.33-.19 16.34 1.78 24.72 4.58l.67-2c-8.59-2.88-21-4.93-25.5-4.7-4.06.21-8.56.91-11.13 4.59-2.68 3.83-1.89 9.06 0 12.29 3.84 6.59 13.25 7.25 18.53 7.25z"/><path class="cls-22" d="M366.15 440.52l2.24-42.66c.41-7.8-9.68-12.24-16-7.05l-28 23"/><path class="cls-26" d="M329.89 408.56s16.05-1.15 37.7 14.74l-.76 16.85-19.49-2.7-24.13-24z"/><path class="cls-23" d="M367.2 440.57l-2.1-.11 2.24-42.66a7.51 7.51 0 00-4.41-7.16 9.08 9.08 0 00-9.87 1l-28 23-1.33-1.64 28-23a11.18 11.18 0 0112.16-1.24 9.67 9.67 0 015.56 9.15z"/><path class="cls-22" d="M375.36 472c2.14-40.89-38.28-55.35-38.28-55.35-27.22-11.91-60.19-11.65-88.18-1.95l-25.42-25.84c-5.74-5.82-16.25-2.46-16.66 5.33l-4.62 88.08a48.35 48.35 0 0041.37 50.4l84.25 4.43a48.35 48.35 0 0046.52-45.78l1-19.32"/><path class="cls-14" d="M227.73 527.32c-6.42 8.28-16 37.14-16 47.42a21.22 21.22 0 0021.2 21.26h59.2a21.22 21.22 0 0021.21-21.21c0-10.3-8-28.18-11.26-38.49"/><path class="cls-23" d="M232.93 597h59.2a22.29 22.29 0 0022.26-22.26c0-7.75-4.22-19.2-7.94-29.31-1.28-3.49-2.5-6.78-3.37-9.5l-2 .64c.88 2.76 2.1 6.08 3.39 9.59 3.48 9.45 7.81 21.2 7.81 28.58a20.17 20.17 0 01-20.15 20.15h-59.2a20.17 20.17 0 01-20.15-20.15c0-10.37 9.59-38.78 15.79-46.78l-1.67-1.29c-6.37 8.22-16.23 37.42-16.23 48.07A22.29 22.29 0 00232.93 597z"/><path class="cls-23" d="M337.5 415.7c-26-11.38-59-12.19-88.31-2.19l-25-25.36a11.19 11.19 0 00-12-2.51 9.68 9.68 0 00-6.49 8.52l-4.63 88.08a49.06 49.06 0 0026.25 46.27 11.53 11.53 0 01.66-2 47 47 0 01-24.8-44.15l4.63-88.08a7.49 7.49 0 015.13-6.66 9.24 9.24 0 012.39-.57 9 9 0 017.32 2.58l25.9 26.32.63-.22c29-10.05 61.68-9.34 87.47 1.94.4.14 39.66 14.65 37.58 54.31l-1 19.32a47.59 47.59 0 01-45.41 44.78l-27.53-1.43a11.18 11.18 0 011.08 2.16l26.43 1.38c1.07 0 2.14-.12 3.2-.22a49.75 49.75 0 0044.33-46.56l1-19.32c2.24-41.21-38.49-56.27-38.83-56.39z"/><path class="cls-23" d="M234.29 420.7a4.23 4.23 0 002.14-7.48L226.18 405c-4.61-3.68-11.85-.37-11.47 5.25l.9 13.27a4.21 4.21 0 007.17 2.69 20.06 20.06 0 0111.51-5.51z"/><path class="cls-22" d="M292.71 532.88c20.65-1.19 36.15 3.63 37.35 7.91 2.6 9.31-17.87 11.28-39.6 12.53"/><path d="M291.54 552.36c16.14-1 33.31-2.46 37.1-7.77a3.93 3.93 0 00.56-3.56c-1-3.67-16.08-8.43-36.44-7.25a.9.9 0 01-.95-.84 1 1 0 01.08-.42.9.9 0 01.77-.53c20.8-1.2 36.86 3.55 38.26 8.56a5.72 5.72 0 01-.82 5.08c-4.3 6-21.58 7.54-39.05 8.55a8.31 8.31 0 00.49-1.82z"/><path class="cls-22" d="M253.74 534.82c19.5 6.93 32.46 16.17 31.89 20.58-1.22 9.59-20.85 3.45-41.35-3.85"/><path class="cls-14" d="M272.65 542.56c.58 3.15.63 9.22-6.63 16.85-3.63 3.81-26.24-8.44-25.91-8.42s13.55-17.24 13.88-17.28 18.66 8.85 18.66 8.85z"/><path class="cls-23" d="M245.28 551.62a.89.89 0 011-.31c15.06 5.32 31.08 10.41 36.56 7a3.94 3.94 0 001.9-3.06c.48-3.78-11.85-12.59-31.06-19.43a.89.89 0 01-.55-1.14.79.79 0 01.24-.35.88.88 0 01.91-.19c19.63 7 32.89 16.17 32.23 21.33a5.77 5.77 0 01-2.73 4.37c-6.15 3.77-22-1.2-38.1-6.88a.89.89 0 01-.42-1.36z"/><ellipse class="cls-22" cx="351.35" cy="468.74" rx="16.76" ry="9.58" transform="rotate(-85.76 351.356 468.742)"/><path class="cls-23" d="M350 486.5c-5.95-.44-10-8.58-9.29-18.55s6-17.43 11.92-17c2.95.22 5.53 2.35 7.27 6a27.48 27.48 0 01-1.83 24.68c-2.13 3.16-4.8 4.87-7.57 4.87a4.18 4.18 0 01-.5 0zm6.32-6a25.34 25.34 0 001.68-22.62c-1.4-2.94-3.36-4.64-5.51-4.8-4.6-.31-9 6.54-9.66 15s2.73 15.95 7.33 16.29l-.07 1.05.07-1.05c2.18.2 4.37-1.21 6.19-3.9z"/><path class="cls-23" d="M347.9 472.69a2.91 2.91 0 005.24-1.53 2.88 2.88 0 00-.28-1.46c2 .91 3.34 4.24 3.06 8.1-.33 4.42-2.64 7.85-5.17 7.66s-4.3-3.92-4-8.34a12.59 12.59 0 011.15-4.43z"/><ellipse class="cls-22" cx="284.83" cy="464.34" rx="16.76" ry="9.58" transform="rotate(-85.76 284.84 464.34)"/><path class="cls-23" d="M283.51 482.11c-2.94-.22-5.52-2.35-7.26-6a25.35 25.35 0 01-2-12.55c.74-10 6-17.43 11.92-17 2.94.21 5.52 2.34 7.26 6a27.48 27.48 0 01-1.83 24.68c-2.13 3.16-4.8 4.88-7.57 4.88zm-7.18-18.4a23.25 23.25 0 001.82 11.5c1.4 2.93 3.36 4.64 5.52 4.79s4.35-1.23 6.17-3.93a25.42 25.42 0 001.67-22.59c-1.4-2.94-3.36-4.64-5.52-4.8h-.33c-4.48-.01-8.66 6.74-9.33 15.03z"/><path class="cls-23" d="M281.38 468.29a2.92 2.92 0 005.25-1.53 3 3 0 00-.28-1.46c2 .91 3.34 4.25 3 8.1-.32 4.42-2.64 7.85-5.16 7.67s-4.31-3.93-4-8.34a12.59 12.59 0 011.19-4.44zM315.46 482l5.76.16a2.07 2.07 0 011.7 3.15l-3 4.9a2.06 2.06 0 01-3.57-.1l-2.76-5.11a2.06 2.06 0 011.87-3z"/><path class="cls-22" d="M318.28 488.16l-2.46 14.58"/><path class="cls-23" d="M317.24 488c-.27 0-.2.12-.23.2v.23l-.08.45-.16.91-.32 1.82-.63 3.65c-.43 2.42-.83 4.86-1.2 7.29l2.48.42c.45-2.42.88-4.85 1.26-7.29l.6-3.64.3-1.83.15-.91.07-.46v-.23c0-.07.09-.14-.16-.26zm-27.82-2.56l-13.8-1.18a16.89 16.89 0 01-11.85-6.44 18.69 18.69 0 01-4-13.34l1.53-17.82a6.35 6.35 0 016.73-5.92l36.23 3.11a6 6 0 014.22 2.28 6.64 6.64 0 011.4 4.7l-1.53 17.82a18.76 18.76 0 01-6.18 12.47 16.94 16.94 0 01-11.33 4.38c-.45 0-.93-.02-1.42-.06zm-21.54-42.6a4.27 4.27 0 00-4.45 4l-1.53 17.82a16.63 16.63 0 003.52 11.85 14.83 14.83 0 0010.38 5.65l13.8 1.18a14.8 14.8 0 0011.2-3.79 16.68 16.68 0 005.48-11.08l1.53-17.82a4.5 4.5 0 00-.95-3.2 3.9 3.9 0 00-2.75-1.5zm87.62 48.42l-12.5-1.07c-8.73-.75-15.12-9.56-14.26-19.65l1.53-17.81a7 7 0 012-4.37 5.4 5.4 0 014.24-1.6l32.79 2.82c3.13.27 5.44 3.38 5.13 6.94l-1.53 17.82a19.84 19.84 0 01-5.69 12.48 15 15 0 01-10.51 4.5q-.6 0-1.2-.06zm-19.17-42.4a3.33 3.33 0 00-2.59 1 4.82 4.82 0 00-1.37 3l-1.53 17.82c-.77 8.92 4.77 16.71 12.35 17.36l12.49 1.08a12.75 12.75 0 0010.06-3.86 17.66 17.66 0 005.06-11.15l1.53-17.82c.21-2.4-1.23-4.49-3.21-4.66z"/><path class="cls-23" transform="rotate(-85.07 319.08 463.493)" d="M318.03 452.21h2.11v22.56h-2.11z"/><path class="cls-23" d="M198.12 465.3a1 1 0 001.48-.06l6.79-7.36a17.66 17.66 0 0116.06-5.47l38.79 6.65.35-2.08-38.78-6.65a19.79 19.79 0 00-18 6.12l-6.79 7.37a1 1 0 00.07 1.48z"/><path class="cls-10" d="M283.13 566.93h87.1l12.31-68.46h-87.1l-12.31 68.46z"/><path class="cls-23" d="M294.3 498.87a1.77 1.77 0 011.74-1.45h86.19a1.31 1.31 0 011.29 1.55l-12.23 68a1.2 1.2 0 01-1.18 1h-88.24zm75.23 66l11.47-63.8a1.31 1.31 0 00-1.29-1.54H297.8a1.78 1.78 0 00-1.74 1.45l-11.67 64.89h84a1.2 1.2 0 001.14-.98z"/><path class="cls-10" d="M283.13 566.93h-23.61v-3.11a2.19 2.19 0 012.2-2.2h22.37z"/><path class="cls-23" d="M258.46 567v-3.2a3.25 3.25 0 013.26-3.25h23.63L284 568h-24.58a1 1 0 01-.96-1zm24.37-4.35h-21.11a1.15 1.15 0 00-1.15 1.15v1.1a1 1 0 001 1h20.72zm6.59-28v-2.11c-46.23-.89-61.58-6.16-61.73-6.22l-.71 2c.66.21 15.74 5.43 62.44 6.33zm-21.22 24.98c5.92-6 6.4-15.21 6.41-15.6l-2.1-.1c0 .09-.47 8.82-5.81 14.22z"/><path d="M321.75 530.36c-.91 4.71.77 8.19 4.59 8.19 3 0 4.33-.73 5-2.5a3.74 3.74 0 003.78 2.92c3.07 0 6.31-2.69 7.14-7s-1.57-6.74-4.49-6.74a5.77 5.77 0 00-4.4 2.28 2.33 2.33 0 00-2.41-1.85h-.71l-1.54 8c-.28 1.43-.66 1.91-1.65 1.93-1.49-.08-2.08-1.82-1.42-5.24.95-4.94 5.4-8.22 11-8.22 5.29 0 9.65 3.2 8.49 9.26-1.28 6.62-5.5 9.59-11.34 9.59h-1.71l-.26 1.34a1.3 1.3 0 001.34 1.6c9 0 14.38-4.79 15.87-12.53s-3.8-12.26-11.82-12.26c-7.71.01-14.21 4.55-15.46 11.23zm12.52 3.36h4.11a.5.5 0 01.45.77 3.51 3.51 0 01-3 1.91 2.18 2.18 0 01-2.28-1.91.75.75 0 01.72-.77z" fill="#ffc556"/><path fill="url(#Безымянный_градиент_41-11)" d="M106.26 467.32l13.38 46.89 85.44 19.12 23.85 179.7h6.53l-8.59-191.53-106.48-54.18h-14.13z"/><path class="cls-14" d="M218.34 523.24l17.12 189.79-8.59-191.53-94.96-48.63-25.65-5.55 112.08 55.92z"/><path fill="url(#Безымянный_градиент_28-2)" d="M490.26 769.14l-7.74.04-3.15-1.67-26.79-225.24-.61-5.07 26.38.96 9.56.36 2.35 230.62z"/><path class="cls-45" d="M482.52 769.18l-3.15-1.67-26.79-225.24 10.08-1.04 19.86 227.95z"/><path fill="url(#Безымянный_градиент_28-3)" d="M509.93 777.67l-7.75-.04-3.16-1.66-24.64-207.24-2.14-18.01-.61-5.06 26.38.96 9.56.35.24 24.48.03 2.65 2.09 203.57z"/><path class="cls-45" d="M502.18 777.63l-3.16-1.66-26.78-225.24 10.08-1.05 19.86 227.95z"/><path fill="url(#Безымянный_градиент_28-4)" d="M751.11 766.69l2.08 1.93 5.24-.14 19.35-206.36-18.01.44-6.53.16-2.13 203.97z"/><path class="cls-31" d="M764.44 557.47l13.34 4.65-15.07 160.73 1.73-165.38z"/><path class="cls-45" d="M751.11 766.69l2.08 1.93 6.58-206.06-6.53.16-2.13 203.97z"/><path fill="url(#Безымянный_градиент_28-5)" d="M809.83 547.7l-34.04 229.44-7.88.11-2.82-2.08 8.78-227.19 9.57-.08 26.39-.2z"/><path class="cls-45" d="M783.44 547.9l-15.53 229.35-2.82-2.08 8.78-227.19 9.57-.08z"/><path fill="url(#Безымянный_градиент_28-6)" d="M812.35 528.67l-1.1 7.97-4.71 34.14-42.17.33-255.95 2.04-3.29.03-20.78-.15-9.56-3.99-19.96-8.37-6.2-28.92-1.52-7.1 19.14 6.59 244.65-1.83 101.45-.74z"/><path class="cls-45" d="M812.51 528.51l-1.26 8.13-1.44 9.36-327.6 1.8 2.14 25.23-29.52-12.36-1.95-9.1-2.58-12.02-.83-3.87-.84-3.93 13.56-.12 248.71-2.22 101.61-.9z"/><g mask="url(#mask-5)"><path style="mix-blend-mode:color-dodge" opacity=".43" fill="url(#Безымянный_градиент_123)" d="M601.68 523.16l5.23 7.14 232.83-1.42 2.85-7.14-240.91 1.42z"/></g><path d="M847 518.59l-147.87.83s141.09-1 141.33-2.92-22.66-14.43-22.66-14.43l8.55 4.84z" style="mix-blend-mode:color-dodge" fill="#4bff5f" opacity=".29"/><g mask="url(#mask-6)"><path style="mix-blend-mode:color-dodge" fill="url(#Безымянный_градиент_3)" d="M507.86 573.17l2.07 204.5-4.8-204.49-.17-2.67 276.49.45-273.59 2.21z"/></g><path fill="url(#Безымянный_градиент_41-12)" d="M847 518.58l-.11.47-.03.08-3.01 13.21-.83 3.64-409.88 4.61-.33-.25-29.71-20.96-.14-.09-.08-.08h-.03l-.66-3.59-2.63-14.33v-.09l425.51 1.02L847 518.58z"/><path class="cls-14" d="M846.86 518.63l-3.01 13.71-.83 3.64-409.88 4.61-.33-.25-29.71-20.96-.14-.09-.08-.08-.69-3.59-2.74-14.42.11.09 30.84 17.37 336.81.58 79.65-.61z"/><path class="cls-45" d="M433.14 540.59l-30.04-21.21-.14-.09-.08-.08-.69-3.59-2.74-14.42.11.09 30.84 17.37 2.74 21.93z"/><path style="mix-blend-mode:multiply" opacity=".63" fill="#f05abb" d="M619.63 519.37l-184.15 2.36 2.97 15.61 368.77-1.06-374.08 4.31-2.74-21.93 189.23.71z"/><g mask="url(#mask-7)"><path style="mix-blend-mode:color-dodge" opacity=".8" fill="url(#Безымянный_градиент_3-2)" d="M497.41 505.79l9.52 8.57 339.95 4.28-21.75-16.43-327.72 3.58z"/></g><g mask="url(#mask-8)"><path style="mix-blend-mode:color-dodge" fill="url(#Безымянный_градиент_3-3)" opacity=".45" d="M843.96 520.9l-2.94 13.73-195.9 1.89 1.15-13.73 197.69-1.89z"/></g><path d="M424.09 515.11l20.71.88q14.11.6 28.25.13l80.89-2.67-98.66-11.79s-50.06-1.11-45.52 5.38z" fill="url(#Безымянный_градиент_28-7)"/><path class="cls-22" d="M565.69 491.72c3.49-11.13 10.81-26 14.61-30.67s7.54-8 12.52-7.89c5.29.09 10 4.35 12 8.75 4.43 9.92-4.74 22-8.06 26.4-11.64 15.37-29.34 20.07-37.76 21.69"/><path class="cls-23" d="M559.24 511.24c11.58-2.18 27.68-7.79 38.56-22.14 3.54-4.68 13-17.1 8.21-27.72-2.08-4.66-7.27-9.42-13.17-9.52s-10.17 4.18-13.55 8.37c-3.78 4.7-11.24 19.62-14.84 31.1l2.48.78c3.52-11.23 10.75-25.73 14.38-30.25 4.23-5.25 7.6-7.49 11.49-7.4 4.81.08 9.09 4.07 10.84 8 4.11 9.23-4.62 20.76-7.91 25.1-10.38 13.69-25.83 19.06-37 21.16z"/><path class="cls-22" d="M599.68 332.68l15.39-44.53c3.39-9.82-7.88-19.21-17.87-14.9l-44.27 19.15"/><path class="cls-26" d="M606.73 311.25s-16.9-23.11-33-27.43l-14.47 6S585 298 602.79 323.7z"/><path class="cls-23" d="M600.91 333.1l15.39-44.53a12.8 12.8 0 00-3.72-13.64 14.78 14.78 0 00-15.89-2.87l-44.27 19.15 1 2.38 44.27-19.14a12.2 12.2 0 0113.1 2.38 10.11 10.11 0 013 10.9l-15.39 44.53z"/><path class="cls-22" d="M404.38 332.68l-11.81-43.32c-2.73-10 9.14-18.65 18.82-13.68l42.9 22.05"/><path class="cls-26" d="M443.91 294.65s-29.73 17.28-38.49 35.14l-2.11-1.05-5.31-19.63s13.32-17.55 36.18-21.74l11.92 6.13z"/><path class="cls-23" d="M403.13 333l2.5-.68L393.82 289a10.09 10.09 0 013.75-10.67 12.2 12.2 0 0113.23-1.51l42.89 22.05 1.19-2.31L412 274.53a14.79 14.79 0 00-16.05 1.8 12.79 12.79 0 00-4.61 13.37zm162.22-24.08a5.62 5.62 0 01.56-10.33l16.45-5.83c7.39-2.62 15 4.69 12.13 11.59l-6.89 16.3a5.6 5.6 0 01-10.19.26 26.76 26.76 0 00-12.06-11.99z"/><path class="cls-23" d="M425.15 323.76a5.6 5.6 0 01-10.16-.82l-6-16.66c-2.53-7 5.52-13.93 12.76-10.9l16.1 6.73a5.62 5.62 0 010 10.34 26.72 26.72 0 00-12.7 11.31z"/><path class="cls-22" d="M392.17 384.48a64.33 64.33 0 0058.61 64.08H563a64.33 64.33 0 0058.49-64.07c0-69.14-57.34-93-57.34-93a153.27 153.27 0 00-114.68 0s-57.3 21.11-57.3 92.99z"/><path class="cls-23" d="M390.87 384.48c0-72 57.61-94 58.15-94.24a154.86 154.86 0 01115.67 0c.58.25 58.14 25 58.14 94.24a65.28 65.28 0 01-59.78 65.37H450.67c-33.53-2.95-59.8-31.66-59.8-65.37zM450 292.66c-.56.21-56.49 21.72-56.49 91.82 0 32.38 25.22 59.95 57.31 62.78h112.11a62.68 62.68 0 0057.31-62.78c0-67.43-56-91.6-56.54-91.84a152.25 152.25 0 00-113.74 0z"/><path class="cls-23" d="M563.51 314.56a15 15 0 00-4.69-3.62 13.66 13.66 0 00-5.88-1.46 12.51 12.51 0 00-5.94 1.41 16.76 16.76 0 00-2.51 1.61 26.55 26.55 0 00-2.09 2 1.3 1.3 0 001.65 2l.13-.09a20.81 20.81 0 014.24-2.46 10.32 10.32 0 014.48-.92 12 12 0 014.55.93 19.1 19.1 0 014.19 2.41l.12.08a1.29 1.29 0 001.75-1.88zm-94.17 1.08a15.46 15.46 0 00-4.27-4.72 13.73 13.73 0 00-6-2.56 13.35 13.35 0 00-6.53.53 16.7 16.7 0 00-2.93 1.29c-.89.55-1.72 1.18-2.54 1.8a1.3 1.3 0 001.32 2.21l.14-.06a23.8 23.8 0 015-1.85 11.58 11.58 0 014.93-.15 14.24 14.24 0 014.65 1.78 23.46 23.46 0 014.14 3.2l.11.11a1.3 1.3 0 002-1.58z"/><path class="cls-22" d="M562.87 442.5c8.54 11 14 28 14 41.67a28.21 28.21 0 01-28.22 28.22h-78.8a28.22 28.22 0 01-28.22-28.22c0-13.7 4.69-30.74 13.09-41.76"/><path class="cls-62" d="M565.12 446.64s-47.79 20.9-113.27 0c-5.29 0-6.22 14.5-6.22 14.5s-9.59 27.79 1.6 39.47 14.75 12.9 42.16 12.29 64.55-.86 64.55-.86 21.45-6.27 22.89-24.22-3.83-31.47-11.71-41.18z"/><path class="cls-23" d="M446.21 501.58c-11.29-11.78-2.88-38.05-2-40.72.21-3 1.46-15.64 7.62-15.64l.43.07c64.16 20.48 111.8.26 112.28 0l1-.43.67.84c9.31 11.48 13.35 25.67 12 42.18-1.5 18.71-23 25.2-23.91 25.47l-.39.05c-.37 0-37.42.26-64.51.86-3.55.08-6.71.13-9.54.13-19.13.05-23.51-2.22-33.65-12.81zm129.21-13.87c1.24-15.37-2.38-28.61-10.75-39.37-7.31 2.83-53.1 18.76-113-.28-2.6.35-4.29 8-4.63 13.17l-.07.37c-.1.27-9.19 27.1 1.28 38 10.63 11.1 13.61 12.48 41.11 11.86 26-.59 61.3-.84 64.35-.86 2.02-.6 20.43-6.98 21.71-22.89z"/><path class="cls-23" d="M469.85 513.69h78.76a29.55 29.55 0 0029.52-29.52c0-14.41-5.72-31.47-14.24-42.46l-2 1.59c8.19 10.57 13.69 27 13.69 40.87a26.94 26.94 0 01-26.92 26.92h-78.81a27 27 0 01-26.92-26.92c0-14.44 5.15-30.91 12.82-41l-2.06-1.58c-8 10.49-13.35 27.58-13.35 42.55a29.55 29.55 0 0029.51 29.55z"/><path d="M515.84 480.31h-5.4l3.31-12.81a2.13 2.13 0 00-2.06-2.67H504a2.14 2.14 0 00-2.12 1.92l-1.4 14.08a3.39 3.39 0 003.37 3.72h4.27l-2 13.7c0 1.74 1.54 2.57 2.38 1.28l2.81-4.28 1.44-2.21 4.63-7c1.37-2.15.4-5.73-1.54-5.73z" fill="#8251b1"/><path class="cls-22" d="M507.09 342.77c6.77-3.29 16.64.55 7.32 11 0 0 10.37 5.67 3.81 13.35s-13.14-2.38-13.14-2.38"/><path class="cls-23" d="M512.93 371.27c2.27 0 4.38-1.12 6.28-3.34 2-2.37 2.82-4.84 2.36-7.34-.63-3.41-3.49-5.91-5.22-7.14 4.45-5.55 3.27-8.91 2.1-10.46-2.19-2.9-7.54-3.52-11.93-1.39a1.3 1.3 0 001.14 2.34c3.21-1.57 7.28-1.28 8.71.62 1.31 1.73.25 4.76-2.93 8.31a1.32 1.32 0 00-.31 1.09 1.29 1.29 0 00.65.92c.05 0 4.57 2.55 5.23 6.19.32 1.71-.27 3.4-1.78 5.17s-3 2.51-4.58 2.43c-3.51-.22-6.45-4.63-6.48-4.67a1.3 1.3 0 00-2.18 1.42c.15.23 3.68 5.54 8.49 5.84zM502 321l7.31-1.08a2.64 2.64 0 012.85 3.59l-2.71 6.87a2.65 2.65 0 01-4.54.68l-4.59-5.79A2.65 2.65 0 01502 321z"/><path class="cls-22" d="M506.06 323l.23 1.74c.87 4.27 2 9.23 1.39 13.44l-.65 4.61"/><path class="cls-23" d="M507 344.07a1.31 1.31 0 001.29-1.12l.65-4.61c.58-4.16-.38-8.88-1.24-13l-.39-2.49a1.3 1.3 0 00-2.57.35l.42 2.66c.81 4 1.73 8.44 1.21 12.16l-.65 4.6a1.29 1.29 0 001.1 1.47z"/><circle class="cls-64" cx="576.35" cy="401.56" r="21.16"/><circle class="cls-64" cx="442.46" cy="405.98" r="21.16"/><path class="cls-23" d="M598.73 394.76a20.61 20.61 0 00-6.11-9.25 27.29 27.29 0 00-9.56-5.57 27 27 0 00-11-1.41 24.06 24.06 0 00-10.44 3.47 1.3 1.3 0 001.14 2.32 28.72 28.72 0 019.51-1.88 27.8 27.8 0 0117.94 5.89 21.48 21.48 0 016 7.35 1.3 1.3 0 002.42-.94z"/><path class="cls-22" d="M562.94 467.51c13.8-26.69 16.57-50.11 11.6-54.22-10.82-9-25.54 17-40 45.12"/><path class="cls-62" d="M570 449.86c-8.58-.33-25.34-10.36-25.34-10.36l-13.96 25.24 30.06 7.65z"/><path class="cls-23" d="M562.94 468.81a1.31 1.31 0 001.16-.71c13.89-26.89 17.09-51 11.27-55.81a8.33 8.33 0 00-7.23-1.92c-10.63 2.17-23 24.63-34.79 47.44a1.3 1.3 0 002.31 1.2c11-21.29 23.5-44.15 33-46.09a5.72 5.72 0 015.05 1.37c4.26 3.52 1.68 26.31-11.92 52.62a1.3 1.3 0 00.56 1.75 1.26 1.26 0 00.59.15z"/><path class="cls-22" d="M450.76 467.51c-13.76-26.69-16.56-50.11-11.59-54.22 10.81-9 25.53 17 40 45.12"/><path class="cls-62" d="M467.51 436.48c-5.81 6.81-24.51 14.29-24.51 14.29l10.75 27.07L479.2 458z"/><path class="cls-23" d="M450.76 468.81a1.31 1.31 0 001.16-1.9c-13.6-26.31-16.19-49.1-11.93-52.62a5.72 5.72 0 015.05-1.37c9.51 1.94 22 24.8 33 46.09a1.3 1.3 0 002.3-1.2c-11.77-22.81-24.16-45.27-34.79-47.44a8.32 8.32 0 00-7.22 1.92c-5.82 4.82-2.63 28.92 11.27 55.81a1.29 1.29 0 001.16.71zM424.45 397a20.53 20.53 0 0111.91-10.13 21.24 21.24 0 0115.84.74 1.3 1.3 0 001.73-.62 1.32 1.32 0 00-.56-1.7 23 23 0 00-18-1.4 23.82 23.82 0 00-8.07 4.51 17 17 0 00-5.28 7.71 1.3 1.3 0 002.41.94zm146.05 54.92a1.41 1.41 0 00.14-2.82c-8.6-.88-24.09-10.69-24.24-10.79a1.41 1.41 0 10-1.52 2.38c.66.42 16.21 10.28 25.47 11.22z"/><path class="cls-23" d="M443.36 451.68a1.44 1.44 0 00.46-.08c21.78-7.48 24.47-13.62 24.7-14.3a1.41 1.41 0 00-2.65-1c-.09.19-2.89 5.71-23 12.6a1.41 1.41 0 00.45 2.75z"/><path opacity=".86" fill="#101820" d="M148.34 481.26l78.54 40.23 6.02 137.4-8.26-136.53-76.3-41.1z"/><path class="cls-31" d="M399.56 501.25l30.84 17.37 138.93.52-136.19 2.66v18.75l-3.96-20.25-29.62-19.05zm80.21 38.82l6.96-.08 10.36 179.24-17.32-179.16zm207.84 10.98l93.84-.67-8.29 128.8 16.18-131.38-101.73 3.25z"/></g></g></g></svg>