<svg xmlns="http://www.w3.org/2000/svg" viewBox="0 0 360 683.35"><defs><linearGradient id="Безымянный_градиент_12" x1="180" x2="180" y2="683.35" gradientUnits="userSpaceOnUse"><stop offset="0" stop-color="#ea0029"/><stop offset=".09" stop-color="#ea0029" stop-opacity=".97"/><stop offset=".23" stop-color="#ea0029" stop-opacity=".89"/><stop offset=".39" stop-color="#ea0029" stop-opacity=".75"/><stop offset=".57" stop-color="#ea0029" stop-opacity=".56"/><stop offset=".77" stop-color="#ea0029" stop-opacity=".31"/><stop offset=".99" stop-color="#ea0029" stop-opacity=".02"/><stop offset="1" stop-color="#ea0029" stop-opacity="0"/></linearGradient><clipPath id="clip-path"><rect width="360" height="683.35" rx="10" fill="none"/></clipPath><style>.cls-2{fill:#ea0029}.cls-6{fill:#101820}.cls-7{fill:#fff}.cls-9{fill:#0075c9}</style></defs><g id="Block_4" data-name="Block 4"><rect class="cls-2" x=".02" width="360" height="683.35" rx="10"/><g clip-path="url(#clip-path)"><path d="M240.68 448.37l-22 4.61a10.2 10.2 0 00-7.9 12.08L213 476a10.21 10.21 0 0012.08 7.9l.57-.12.93 4.45c.4 1.9 3.11 2.32 4.3.67l2.78-3.87a11.26 11.26 0 016.32-4.24l7.14-1.5a10.2 10.2 0 007.9-12.08l-2.29-10.94a10.2 10.2 0 00-12.05-7.9zM3.23 230.45c-3.15.07-5.77-3-5.86-6.8s2.4-7 5.55-7.06 5.77 3 5.85 6.8-2.39 6.99-5.54 7.06zM20 213.15c.47-3.8-1.69-7.19-4.81-7.57s-6 2.38-6.51 6.18 1.69 7.2 4.82 7.58 6.07-2.34 6.5-6.19zm15 21.2c3 .84 6.32-1.48 7.33-5.18s-.63-7.36-3.67-8.19-6.31 1.49-7.33 5.18.67 7.36 3.67 8.19zm-7.31-13.27c3.13.38 6-2.39 6.51-6.19s-1.69-7.19-4.81-7.57-6 2.38-6.51 6.18 1.69 7.2 4.81 7.58zm-.13 8.36A9.4 9.4 0 0011.8 228L7 234.1a5.92 5.92 0 00-1.25 3.52 6 6 0 004.09 5.79 5.91 5.91 0 003.74 0h.08a11.72 11.72 0 019.27.89 5.75 5.75 0 002.33.72 6 6 0 001.34 0 6 6 0 005.09-5 6 6 0 00-.59-3.69zm306.27-61.38l-2.4 2.95-3.64 4.46a30.41 30.41 0 00-22.48 3.32l-4.77-3.22-3.15-2.13c-1.79-1.21-4.33.21-4 2.25l1.61 10.89 2.09 14.13.05.31a9.68 9.68 0 00.9 2.88 10 10 0 00.92 1.49c.16.22.34.43.52.64a10.7 10.7 0 009.76 3.71l.66-.1 15.89-2.34 6.59-1 .65-.09a10.7 10.7 0 008.27-6.38 9.69 9.69 0 00.8-5.47l-.05-.31-2.08-14.13-1.61-10.89c-.36-2.03-3.17-2.64-4.53-.97zm-28.77 16.79h.05l.05-.06.07-.07h.06l.06-.05h.09a.31.31 0 01.1 0h.27a2 2 0 011.77.8l.17.19.12.17a6.53 6.53 0 011.09 2.84c.35 2.41-.48 4.54-1.86 4.74h-.79l-.1-.05h-.05l-.1-.06-.14-.09-.14-.11-.1-.08a.94.94 0 01-.1-.1l-.13-.14-.13-.16-.09-.12v-.06l-.09-.12v-.05l-.11-.18a6.94 6.94 0 01-.79-2.39 7.6 7.6 0 01-.08-1.41 6.52 6.52 0 01.09-.8 4.76 4.76 0 01.13-.57v-.12a3.41 3.41 0 01.18-.48v-.16l.09-.13v-.17a.1.1 0 00.41-1.01zm20.13 13.52a5.68 5.68 0 01-10.77 1.63 1.27 1.27 0 011-1.79l8.37-1.23a1.27 1.27 0 011.4 1.39zm4.69-8.72c-1.37.2-2.78-1.59-3.14-4s.47-4.54 1.85-4.74 2.79 1.58 3.15 4-.48 4.54-1.86 4.74zM293.18 200a.86.86 0 01.67-1.22l.71-.11-1.74-11.81-.53-3.6a20.6 20.6 0 00-5.37 2.2l-3.28-2.21-2.16-1.46a1.75 1.75 0 00-2.76 1.54l1.1 7.49 1.44 9.71v.21a6.66 6.66 0 001.61 3.44 7.36 7.36 0 006.71 2.55l.44-.07 6.49-1a12 12 0 01-1.49-3.81 4 4 0 01-1.84-1.85zm-4.82-4.8c-.95.14-1.91-1.09-2.16-2.75s.33-3.11 1.27-3.25 1.92 1.09 2.16 2.75-.32 3.15-1.27 3.29zM348 174.63l1 6.53 1.25 8.47v.18a5.81 5.81 0 01-.48 3.28 6.39 6.39 0 01-5 3.82l-.39.06h-.14a11.51 11.51 0 00-.07-2.93v-.3l-1-6.84c.7-.29 1.09-1.47.9-2.78s-.92-2.33-1.67-2.41l-.31-2.1-.2-1.38 2-2.45 1.44-1.76a1.54 1.54 0 012.67.61zm-28.24 122.74l-5.83.84 1.58-14.35a2.32 2.32 0 00-2.64-2.55l-8.31 1.19a2.33 2.33 0 00-2 2.41l.68 15.41a3.7 3.7 0 004.22 3.5l4.6-.67v15.1c.27 1.87 2.06 2.53 2.76 1l2.37-5.06 1.22-2.61 3.91-8.33c1.14-2.48-.46-6.18-2.56-5.88zM46.78 666.06L39 664.27a1.79 1.79 0 00-2 1l-3.59 8.37a1.79 1.79 0 00.52 2.09L36.6 678a2.89 2.89 0 01.65 3.7 27.78 27.78 0 01-9.87 9.87 2.88 2.88 0 01-3.69-.66l-2.22-2.71a1.78 1.78 0 00-2.09-.51L11 691.25a1.83 1.83 0 00-1 2.07l1.8 7.77a1.79 1.79 0 001.75 1.39 34.66 34.66 0 0034.66-34.67 1.79 1.79 0 00-1.43-1.75zm105.34-345.93c-6.05-3.73-13.88-1.69-18 4.13L133 325.8l-.52.74-.72-.55-1.51-1.14c-5.68-4.31-13.77-3.9-18.41 1.48a14.17 14.17 0 002.16 20.44l9.82 7.45 2.39 1.81a16.42 16.42 0 0021-3.1l2-2.79 7-9.87a14.16 14.16 0 00-4.09-20.14zm-10.19 25.37a6.72 6.72 0 01-12.72 2 1.5 1.5 0 011.13-2.11l9.87-1.52a1.5 1.5 0 011.72 1.63zm-10.35 245.62l-1.64 17.62a1.77 1.77 0 01-1.93 1.6l-5.87-.54a1.77 1.77 0 01-1.6-1.93l1.64-17.62a1.76 1.76 0 011.92-1.6l5.88.54a1.78 1.78 0 011.6 1.93zm26.52 5.09a5.38 5.38 0 001.76-3.48 4.39 4.39 0 00-4-4.67l-9-.84c1.5-1.15 2.39-4 1.76-6.48l-.85-3.42a6.38 6.38 0 00-1.64-3c-1.75-1.73-4.21-1.61-5.22 1l-4.6 11.91a6.89 6.89 0 01-2 2.77l-.09.07a.87.87 0 00-.33.61l-1.46 15.7a.89.89 0 00.78 1 11.38 11.38 0 013.76 1.54 21.11 21.11 0 008.57 3.15h.2c3.15.29 6.86.61 8.56-1.41a3.92 3.92 0 00.76-3.23 5.85 5.85 0 001.71-5.38 6.16 6.16 0 001.33-5.84zm4.77-392.98L131 197a9.05 9.05 0 00-10.63 7.15l-4 20.68a9.06 9.06 0 007.15 10.63l31.83 6.23a9.07 9.07 0 0010.65-7.15l4-20.67a9.07 9.07 0 00-7.13-10.64zm-2 30.33a3.91 3.91 0 01-4.59 3.08l-3.48-.68-8-10.81c-1.7-2.3-5.37-1.82-6.26.61l-6.39-8.64a6 6 0 00-9-.7l2.21-11.27a3.92 3.92 0 014.59-3.09l31.83 6.23a3.91 3.91 0 013.09 4.59zm.32-18.39a3.66 3.66 0 11-2.89-4.29 3.66 3.66 0 012.94 4.29zM342.31 638.1l7.8 1.08c7.36 1 14.08-3.64 15-10.37l4.12-30c.33-2.41-2.69-4.06-4.79-2.61l-9.31 6.43a35.93 35.93 0 00-26.65-3.63l-7.23-8.7c-1.64-2-5-1.19-5.32 1.22l-4.12 30c-.92 6.73 4.29 13 11.65 14zm-16.14-22.35c-1.63-.22-2.64-2.72-2.25-5.59s2-5 3.68-4.77 2.64 2.72 2.25 5.59-2.04 5.02-3.68 4.77zm18.44 12a6.72 6.72 0 01-12.77-1.75 1.5 1.5 0 011.69-1.71l9.91 1.36a1.51 1.51 0 011.17 2.11zm8.22-8.35c-1.64-.23-2.65-2.73-2.26-5.59s2-5 3.68-4.78 2.64 2.73 2.25 5.59-2.04 5.01-3.67 4.79zM53.5 465.94c.91-4.54.41-17.34-3.42-18.1-3.22-.65-5.56 10.19-8.84 9.53-4.62-.92-.22-22.55-5.24-23.55-4.77-.95-14.53 16-16.39 25.36a17.28 17.28 0 1033.89 6.76z" fill="#b0001f"/><rect width="360" height="683.35" rx="10" fill="url(#Безымянный_градиент_12)"/><path class="cls-2" d="M396.25 639.88s-.83 2.62-15.47 2.9-42.18-3.09-52 3.86-44.23 5.74-54 0 12.5-8.33 12.5-8.33 55.29-8.75 65.57-8.06 43.4 9.63 43.4 9.63z"/><path class="cls-6" d="M303.1 652.82c-11.7 0-23.67-1.79-29.08-5-2.43-1.42-3.48-3-3.14-4.62.87-4.14 11.62-5.82 16.2-6.35 2.2-.35 55.45-8.77 65.83-8.07s42.35 9.32 43.71 9.68a1.41 1.41 0 011 1.81c-.42 1.34-3.17 3.62-16.79 3.88-3.67.07-8.13-.09-12.86-.25-14-.49-31.36-1.1-38.35 3.85-4.91 3.51-15.62 5.07-26.52 5.07zm48.3-21.19c-12.73 0-63.41 8-63.94 8.08-7 .81-13.51 2.77-13.8 4.12 0 0 .07.58 1.79 1.58 9.67 5.66 43.21 6.65 52.51.07 7.77-5.5 24.93-4.9 40.08-4.37 4.7.17 9.15.32 12.71.25a56.29 56.29 0 0011.43-1.08c-8.92-2.34-31.46-8.07-39.47-8.61-.37-.03-.81-.04-1.31-.04z"/><path class="cls-7" d="M184 471.43l-35.7-26.21c-8.05-5.91-20.07.19-19.05 9.67L140.8 562"/><path d="M134.68 505.34s15.95-29.37 44.17-37.67l-11.29-8.29s-23.38 6.23-35.55 21.24z" fill="#efefef"/><path class="cls-6" d="M139.39 562.17L127.81 455a12 12 0 016.24-11.67 13.8 13.8 0 0115.06.7l35.7 26.21-1.68 2.29-35.7-26.21a11 11 0 00-12-.53 9.07 9.07 0 00-4.82 8.91l11.58 107.13z"/><path class="cls-7" d="M305.76 680.33c3.54-11.28 11-26.28 14.81-31.07s7.64-8.08 12.68-8c5.35.09 10.17 4.41 12.16 8.86 4.49 10-4.8 22.31-8.17 26.75-11.79 15.56-29.72 20.33-38.25 21.93"/><path class="cls-6" d="M299.25 700.2l-.52-2.79c11.26-2.11 26.89-7.54 37.38-21.39 3.32-4.38 12.15-16 8-25.31-1.75-3.93-6.05-7.94-10.88-8-4-.08-7.3 2.17-11.56 7.46-3.67 4.56-11 19.23-14.55 30.61l-2.71-.85c3.66-11.66 11.23-26.79 15-31.54 3.43-4.27 7.73-8.71 13.81-8.52 6.3.1 11.38 5.1 13.44 9.7 4.83 10.82-4.73 23.44-8.34 28.19C327.33 692.31 311 698 299.25 700.2z"/><path class="cls-7" d="M179.7 467.43c38.91-10.28 79.19-8.09 116.17 6.95l21.51-33c8.13-7.44 22-2.17 22 8.35l7.07 126.36c0 34-18.62 54.51-51.9 57.44a2.81 2.81 0 00-2.07 4.48c8.5 11.17 13.25 28.42 13.25 42.3a28.59 28.59 0 01-28.59 28.59h-79.75a28.59 28.59 0 01-28.59-28.59c0-13.84 5.5-31 14.15-42.21a2.87 2.87 0 00-2.09-4.59 65.16 65.16 0 01-59.25-64.9s-4.44-83.95 58.09-101.18z"/><path class="cls-9" d="M179.74 641.72a100.88 100.88 0 0030.19-1c16.91-3.05 46-.83 46-.83l39.67 1.75s11.59 19.93 10.14 38.68-10.59 24.7-20.24 27.36-72.4.79-72.4.79-26.28 2.68-33.38-5.65-11.6-14.45-11.19-28 11.21-33.1 11.21-33.1z"/><path class="cls-6" d="M277.17 710.34h-79.78a30 30 0 01-30-30c0-14.61 5.81-31.92 14.45-43.08a1.36 1.36 0 00.17-1.4 1.51 1.51 0 00-1.27-.9 66.22 66.22 0 01-60.54-66.32c0-.77-3.77-85.24 59.13-102.57 39.21-10.36 79.29-8.09 116 6.56l21.1-32.27a15.06 15.06 0 0116.28-2.53 13.07 13.07 0 018.13 11.93L347.9 576c0 35-18.89 55.91-53.19 58.93a1.46 1.46 0 00-1.23.87 1.31 1.31 0 00.16 1.34c8.1 10.63 13.54 28 13.54 43.16a30 30 0 01-30.01 30.04zm-97.1-241.54c-60.68 16.73-57.09 98.93-57 99.76a63.41 63.41 0 0058 63.56 4.36 4.36 0 013.62 2.6 4.18 4.18 0 01-.54 4.27c-8.28 10.7-13.85 27.31-13.85 41.34a27.2 27.2 0 0027.17 27.17h79.78a27.2 27.2 0 0027.17-27.17c0-14.61-5.21-31.26-13-41.44a4.13 4.13 0 01-.5-4.21 4.35 4.35 0 013.58-2.55c32.63-2.87 50.6-22.77 50.6-56L338 449.82a10.15 10.15 0 00-6.44-9.4 12.23 12.23 0 00-13.09 1.91l-22 33.8-1.08-.44c-36.47-14.81-76.33-17.19-115.32-6.89z"/><path class="cls-6" d="M224.14 547.72h-7.49a2.68 2.68 0 00-2.32 4l3.74 6.48a2.68 2.68 0 004.65 0l3.74-6.48a2.68 2.68 0 00-2.32-4zm99.66-58.93c3.4 2.84 6.9 0 6.39-5.35l-1-19.39c-.79-8.37-8.14-11.73-11.85-5.41l-8.67 14.09c-2.36 4 0 9.63 3.6 10.62 4.14 1.17 7.38 1.98 11.53 5.44z"/><path class="cls-6" d="M218.95 553.64h2.84v36.06h-2.84z"/><ellipse class="cls-7" cx="164.48" cy="539.65" rx="12.91" ry="22.59"/><path class="cls-6" d="M164.48 563.66c-8 0-14.33-10.54-14.33-24s6.3-24 14.33-24 14.33 10.55 14.33 24-6.3 24-14.33 24zm0-45.18c-6.23 0-11.49 9.7-11.49 21.17s5.26 21.17 11.49 21.17S176 551.13 176 539.65s-5.29-21.17-11.52-21.17z"/><ellipse class="cls-7" cx="276.49" cy="539.65" rx="12.91" ry="22.59"/><path class="cls-6" d="M276.49 563.66c-8 0-14.33-10.54-14.33-24s6.29-24 14.33-24 14.32 10.55 14.32 24-6.29 24-14.32 24zm0-45.18c-6.23 0-11.49 9.7-11.49 21.17s5.26 21.17 11.49 21.17S288 551.13 288 539.65s-5.28-21.17-11.51-21.17zm-106.9 21.77a3.89 3.89 0 01-3 1.36 4 4 0 01-3.95-3.94 3.82 3.82 0 01.53-1.93c-2.81 1-4.92 5.37-4.92 10.58 0 6 2.77 10.81 6.18 10.81s6.18-4.84 6.18-10.81a17 17 0 00-1.02-6.07z"/><path class="cls-6" d="M281.6 540.25a3.9 3.9 0 01-3 1.36 3.92 3.92 0 01-3.42-5.87c-2.8 1-4.91 5.37-4.91 10.58 0 6 2.77 10.81 6.18 10.81s6.18-4.84 6.18-10.81a17 17 0 00-1.03-6.07zm-101.19-4.65H146a1.42 1.42 0 010-2.84h34.46a1.42 1.42 0 110 2.84zm113.17 0h-33.89a1.42 1.42 0 110-2.84h33.89a1.42 1.42 0 110 2.84z"/><path class="cls-2" d="M180.86 633.53s25.54 2.28 50.68-1.33c3.19 1.94 1.87 5.81-.25 5.54s-31.67 6.69-51.21 3.63c0 0-4.43-5.64.78-7.84z"/><path class="cls-6" d="M191.46 643.56a76.62 76.62 0 01-11.6-.79l-.55-.09-.35-.44c-.27-.35-2.69-3.54-1.9-6.58a5.13 5.13 0 013.25-3.43l.33-.14h.35c.25 0 25.67 2.21 50.34-1.33l.51-.07.43.26a4.87 4.87 0 012.35 5.78 3.35 3.35 0 01-3.51 2.39c-.51 0-2.79.38-5.27.8-7.63 1.31-21.52 3.64-34.38 3.64zm-10.57-3.51c14.62 2.12 34.73-1.26 44.48-2.9 4.09-.69 5.4-.9 6.1-.82.13 0 .37-.24.46-.51a1.93 1.93 0 00-.75-2.14c-23.17 3.25-46.81 1.56-50.07 1.3a2.11 2.11 0 00-1.3 1.39c-.31 1.19.52 2.81 1.08 3.68z"/><path class="cls-2" d="M231.54 632.2s39.57 3.58 65.88 1 53.73-15 66.51-12.72 27.23 18.89 36.12 18.61a23.31 23.31 0 01-24.18.47c-13.06-7.41-62.7.1-81.31 1.35s-51.75-2.67-62.69-5.35"/><path class="cls-6" d="M387.54 644.23a24.78 24.78 0 01-12.37-3.39c-9.83-5.58-42.85-2.19-64.69 0-6.32.65-11.77 1.21-15.83 1.48-19 1.27-52.29-2.73-63.12-5.38a1.41 1.41 0 01-1-1.71 1.43 1.43 0 011.72-1c10.67 2.62 43.51 6.57 62.25 5.31 4-.27 9.44-.83 15.73-1.47 23.53-2.42 55.76-5.73 66.39.3a21.56 21.56 0 0019.18 1.4c-3.86-1.37-8.18-4.38-13-7.73-6.38-4.45-13-9-19.11-10.11-6.43-1.13-17.14 1.75-29.54 5.07-11.27 3-24 6.45-36.58 7.66-26.14 2.52-65.76-1-66.15-1a1.42 1.42 0 01.25-2.83c.4 0 39.75 3.54 65.63 1.05 12.3-1.18 24.95-4.58 36.12-7.57 12.71-3.41 23.69-6.36 30.76-5.13 6.75 1.17 13.61 6 20.24 10.58 6 4.19 11.73 8.19 15.59 8a1.42 1.42 0 01.87 2.58 24.71 24.71 0 01-13.34 3.89z"/><path class="cls-2" d="M230.21 631.83s-2-5.19-12.72-1.38-7.42 13.73-5.79 18.21c.55 1.54 5.41-.29 7.05-2.68 3.76-5.45 8.19-7.86 11-7.14s.46-7.01.46-7.01z"/><path class="cls-6" d="M212.82 650.65a3.59 3.59 0 01-.47 0 2.33 2.33 0 01-2-1.47c-1-2.62-3.18-8.76-.77-13.88 1.32-2.8 3.81-4.87 7.42-6.16 11.84-4.22 14.42 1.93 14.52 2.2v.11c.72 2.37 1.7 6.59.15 8.2a2.31 2.31 0 01-2.32.59c-2.08-.53-6 1.56-9.48 6.58a10.29 10.29 0 01-7.05 3.83zm11.53-20.16a19.4 19.4 0 00-6.39 1.3c-2.86 1-4.82 2.6-5.8 4.69-1.81 3.85-.15 8.88.74 11.33a7.7 7.7 0 004.68-2.63c3.75-5.44 8.46-8.45 12.12-7.8a16.78 16.78 0 00-.82-5c-.42-.88-1.79-1.89-4.53-1.89z"/><path class="cls-2" d="M233.3 630.37s2.63-3.67 11.23-2.11 8.83 8.78 8.77 12.7-2 7.58-5.52 4.57c-4-3.4-7.57-2.79-9.89-5.52-3.1-3.65-6.6-2.27-6.6-2.27z"/><path class="cls-6" d="M250.2 648.06a5.2 5.2 0 01-3.33-1.44 15.59 15.59 0 00-5.19-2.78 10.36 10.36 0 01-4.87-2.91c-2.42-2.84-5-1.88-5-1.87l-2.64 1 3-10.56c.13-.17 3.27-4.39 12.64-2.68 10.12 1.85 10 10.76 9.93 14.12s-1.21 5.91-3.09 6.77a3.39 3.39 0 01-1.45.35zm-17-12a7.81 7.81 0 015.75 3 8 8 0 003.68 2.08 18.37 18.37 0 016 3.28c.35.29 1.22.95 1.75.72s1.39-1.89 1.43-4.24c.08-4.87-.77-10-7.6-11.27-6.45-1.17-9.09.83-9.7 1.41z"/><path class="cls-6" d="M219 638.11a1.42 1.42 0 01-.86-2.56c3.52-2.63 9-2.58 12-2.31a1.42 1.42 0 011.29 1.54 1.44 1.44 0 01-1.55 1.28c-2.05-.18-7.14-.38-10 1.76a1.39 1.39 0 01-.88.29zm29.9 2.89a1.4 1.4 0 01-1.14-.58c-5-6.65-13.38-5-13.46-5a1.43 1.43 0 01-1.68-1.11 1.41 1.41 0 011.11-1.67c.41-.09 10.28-2 16.31 6.1a1.42 1.42 0 01-.3 2 1.4 1.4 0 01-.84.26z"/><path class="cls-2" d="M231.49 629.59c3.46-.7 6.19 1.47 5.25 6.37s-6.39 6.75-9.06 3-2.11-8.17 3.81-9.37z"/><path class="cls-6" d="M231.34 642.38a5.88 5.88 0 01-4.81-2.56c-1.75-2.43-2.25-5.08-1.39-7.28.6-1.54 2.15-3.55 6.07-4.34a5.93 5.93 0 015.45 1.36c1.49 1.48 2 3.84 1.47 6.67a7.41 7.41 0 01-5.48 6 6 6 0 01-1.31.15zm.43-11.4c-1.47.3-3.36 1-4 2.6-.5 1.28-.12 2.95 1.05 4.58a3 3 0 003.2 1.3 4.58 4.58 0 003.31-3.77c.36-1.86.12-3.32-.67-4.11a3.14 3.14 0 00-2.9-.6z"/><path class="cls-7" d="M181.38 643.59s-14.59 10.14-16.81 18.89 15 22.51 21.25 22.23.61-18.19.47-20.56 6.58-7.55 6.58-7.55"/><path class="cls-9" d="M182.41 643.23s-11.58 6.82-16.15 14.42-1.08 12.91 4.84 19.3c0 0 4.71-4.44 17.42-4.17-.61-3-1.48-9.62-1.48-9.62l7.8-7.46z"/><path class="cls-6" d="M185.65 686.13c-4.54 0-12.94-5.49-18.19-11.93-2.55-3.13-5.36-7.77-4.27-12.07 2.33-9.16 16.77-19.28 17.38-19.71a1.42 1.42 0 011.62 2.33c-.14.1-14.18 10-16.25 18.08-.62 2.46.7 5.87 3.73 9.58 5 6.2 12.88 11 16.09 10.88a1 1 0 00.85-.43c1.84-2.41-.22-11.48-1.1-15.36a25.4 25.4 0 01-.64-3.27c-.17-2.8 4.94-7.06 7.14-8.75a1.42 1.42 0 111.73 2.25c-3.11 2.4-6 5.43-6 6.35 0 .35.3 1.59.57 2.79 1.64 7.21 3 14.52.59 17.71a3.86 3.86 0 01-3 1.55z"/><path class="cls-7" d="M273.76 644.65s9.26 8.43 11.48 17.18-9.68 24.22-15.93 23.95-3.9-17.46-3.76-19.82-6.58-7.55-6.58-7.55"/><path class="cls-9" d="M274.91 642.28l15 22.94-7.5 11.61a21.48 21.48 0 00-18.52-1.9c0-4.3-10.89-20.44-10.89-20.44z"/><path class="cls-6" d="M269.47 687.2h-.22a4.46 4.46 0 01-3.24-1.6c-3-3.43-2.62-11.73-2-18.58.05-.51.09-.9.1-1.14 0-.91-2.92-3.94-6-6.34a1.42 1.42 0 01-.26-2 1.44 1.44 0 012-.26c2.19 1.7 7.3 6 7.13 8.76 0 .26-.06.68-.11 1.24-.84 9-.41 14.49 1.29 16.45a1.67 1.67 0 001.22.63c2 .06 5.46-2.38 8.52-6.14 3.81-4.68 7.14-11.45 6-16-2.1-8.24-11-16.39-11.07-16.48a1.42 1.42 0 011.91-2.1c.39.36 9.61 8.82 11.91 17.88 1.5 5.92-2.58 13.69-6.53 18.54-3.71 4.47-7.66 7.14-10.65 7.14zm-68.13-98.64a47.49 47.49 0 009.69.79 81.51 81.51 0 009.76-.69 63.81 63.81 0 009.51-1.92 37.83 37.83 0 004.42-1.59 10.36 10.36 0 003.29-2.23l.05-.07a2.07 2.07 0 113.25 2.55.81.81 0 01-.12.14 13.53 13.53 0 01-5 3.13 38.19 38.19 0 01-5 1.47 67.1 67.1 0 01-10.09 1.41 85.07 85.07 0 01-10.1.1 48.47 48.47 0 01-10-1.46.84.84 0 01.39-1.64zM172 678.49a1.52 1.52 0 01-1.07-.43 1.55 1.55 0 010-2.19c.27-.27 6.68-6.72 17.46-4.4a1.54 1.54 0 11-.64 3 16.24 16.24 0 00-14.6 3.53 1.5 1.5 0 01-1.15.49z"/><path class="cls-6" d="M280.71 678.37a1.53 1.53 0 01-1.26-.65s-1.48-1.77-6.32-2.62-7.14 1.12-7.24 1.21a1.54 1.54 0 01-2.17-.13 1.52 1.52 0 01.1-2.16c.14-.13 3.46-3.09 9.85-2 6.16 1.09 8.1 3.59 8.3 3.87a1.55 1.55 0 01-.36 2.15 1.51 1.51 0 01-.9.33z"/><path class="cls-2" d="M248.17 655.7l-16.88.1-16.88-.1-9.29 7.5 26.17 21.15 26.16-21.15-9.28-7.5z"/><path class="cls-6" d="M251.6 666.92l-22.99-3.41 18.98 6.51 4.01-3.1zm-37.25 2.61l17.62 2.71-13.78.85-3.84-3.56z"/><path class="cls-6" d="M231.29 685.78a1.44 1.44 0 01-.9-.32l-26.16-21.15a1.43 1.43 0 010-2.22l9.28-7.5a1.29 1.29 0 01.91-.32l16.88.1 16.86-.1a1.3 1.3 0 01.91.32l9.28 7.5a1.43 1.43 0 010 2.22l-26.17 21.15a1.41 1.41 0 01-.89.32zm-23.9-22.58l23.9 19.32 23.89-19.32-7.51-6.08-16.37.1-16.39-.1zm88.48-188.82c2.83.92-4.32-42.92-65.75-37.89-34.68 2.84-52.73 15.06-56 10.33-8.08-11.79-31.77-21.24-31.7 4.85 0 10.52 7.7 32.42 7.7 32.42s28-18.33 48.43-18.87 21 9.95 28.24 11 36.92-12.38 69.08-1.84z"/><path class="cls-6" d="M208.84 456.69c4.85 1.06 5.73 1.28 5.57 1.33v.24l-.07.47c-.05.32 0 .64-.07 1a14.44 14.44 0 00.07 2 20.34 20.34 0 00.82 4.22c.4 1.5 1 3.05 1.66 4.75l1.08 2.68.56 1.51.28.81a12.33 12.33 0 01.45 1.53 13.83 13.83 0 01.13 4.57 23.35 23.35 0 01-.68 3.5 39 39 0 01-2.19 6.08 43.62 43.62 0 01-3 5.55c-.59.89-1.19 1.77-1.87 2.64-.36.44-.73.86-1.17 1.32-.22.22-.47.47-.77.73a7.07 7.07 0 01-.63.46c-.16.09-.31.17-.49.25a2.53 2.53 0 01-1 .2 1.86 1.86 0 110-3.71 1.37 1.37 0 00-.69.1 1.17 1.17 0 00-.2.05c-.13.08-.07-.05-.11-.05a2.62 2.62 0 01.08-.46c.07-.36.15-.8.22-1.23.17-.87.32-1.79.43-2.71.24-1.84.48-3.69.63-5.51s.29-3.62.29-5.28a20 20 0 00-.11-2.3c-.07-.66-.26-1.26-.34-1.21s0 .22 0 .15l-.3-.52-.66-1.14-1.44-2.57a43.89 43.89 0 01-2.76-6 30.83 30.83 0 01-1.67-7.13 27.52 27.52 0 01-.08-3.86c0-.65.07-1.3.17-1.94l.14-1 .08-.48c-.12-.18.8-.21 5.69.61q.85.15 1.71.33z"/></g></g></svg>