<svg xmlns="http://www.w3.org/2000/svg" id="Шар_1" x="0" y="0" viewBox="0 0 762 364.4" xml:space="preserve"><g id="Шар_2_1_"><g id="Block_3"><path d="M22.9 228.7V280c5.4-9.6 20.7-14.9 30.5-14.9 27.1 0 47.2 16.5 47.2 48.5 0 30.5-20.5 48.5-47.8 48.5-11.3 0-22.8-3.8-29.9-14.9-.9 7.3-7 12.8-14.4 12.8H0V251.6c0-12.6 10.3-22.9 22.9-22.9zm1.5 85c0 16.7 12.4 27.3 26.9 27.3 14.7 0 26.3-11.1 26.3-27.3 0-16.7-11.7-27.1-26.3-27.1-14.5 0-26.9 10.9-26.9 27.1zm141.9 28c6.5-.1 12.9-1.6 18.7-4.4 4.2-2 9.2-1.2 12.6 2.1l8.2 8.1c-9.8 10.1-25.8 15-39.9 15-32 0-50.9-19.7-50.9-49.4 0-28.2 19.2-48.5 49.3-48.5 31 0 50.4 19.2 46.8 57.4h-72.3c1.4 11.4 11.3 19.7 27.5 19.7zm22.8-38.7c-1.5-12-10.9-18-24.1-18-12.4 0-22.6 6-25.9 18h50zm166.4-9.8c-6.6-6.2-14.1-8.3-22.9-8.3-10.9 0-16.9 3.4-16.9 9.2 0 6 5.5 9.4 17.3 10.2 17.5 1.1 39.7 5.1 39.7 29.7 0 16.4-13.3 30.5-39.9 30.5-14.7 0-29.3-2.4-42.9-16.5l4.8-6.9c3.2-4.7 9.5-6.2 14.5-3.4 7.3 4.1 16.8 6.8 24 6.9 8.6.2 16.7-4.3 16.7-11.1 0-6.4-5.2-9-18.4-9.8-17.5-1.3-38.4-7.7-38.4-28.8 0-21.4 22.2-29 39.1-29 14.5 0 25.4 2.8 36.1 12.2l-12.8 15.1zm120.8 22.7c0 26.7-18.2 48.3-48.3 48.3s-48.1-21.6-48.1-48.3c0-26.5 18.4-48.3 48-48.3s48.4 21.8 48.4 48.3zm-73.5 0c0 14.1 8.5 27.3 25.2 27.3s25.2-13.2 25.2-27.3c0-13.9-9.8-27.5-25.2-27.5-16.6 0-25.2 13.6-25.2 27.5zm165.7 32.4c-10.7 10.5-22 14.7-35.7 14.7-26.9 0-49.2-16.2-49.2-49.1s22.4-49.1 49.2-49.1c13.2 0 23.3 3.8 33.5 13.7l-14.5 15.2c-5.1-4.6-11.7-7.3-18.6-7.3-15.4 0-26.7 11.3-26.7 27.5 0 17.7 12 27.1 26.3 27.1 4.9.1 9.8-1 14.2-3.2 4.3-2.2 9.5-1.3 12.9 2.1l8.6 8.4zm41.4-107c0 17.9-27.1 17.9-27.1 0s27.1-17.9 27.1 0zm-2.1 25.7v78.6c0 8-6.5 14.5-14.5 14.5h-8.5V290c.1-12.7 10.4-22.9 23-23zm107.9.4h9.2v78.2c0 8-6.5 14.5-14.5 14.5h-7.2l-1.1-13.5c-5.2 10.9-19.7 16.2-30.1 16.4-27.5.2-47.8-16.7-47.8-49.3 0-32 21.2-48.7 48.3-48.5 12.4 0 24.3 5.8 29.5 15 .6-7.2 6.5-12.8 13.7-12.8zm-68.5 46.3c0 18.8 13.8 29.5 30.2 28.1 33.4-2.8 33.3-53.3-.1-56-16.4-1.3-30.1 9.2-30.1 27.9zm114.8-83v117c0 8-6.5 14.5-14.5 14.5h-8.3V253.5c0-12.6 10.2-22.8 22.8-22.8z" fill="#101820"/><path d="M413.4 4.1l-42.7 39.1c-44.2-17.8-93.5-17.8-137.7 0L190.2 4.1C180.5-4.7 164 1.6 164 14v155.2c0 34.8 30.8 63 68.9 63v29.2c0 12.5 16.5 18.7 26.1 9.9l22.6-20.6c13.4-12 30.7-18.6 48.7-18.4h40.3c38 0 68.9-28.2 68.9-63V14c0-12.4-16.5-18.7-26.1-9.9zm-180.5 126c-8.4 0-15.3-12-15.3-26.8s6.9-26.8 15.3-26.8 15.3 12 15.3 26.8-6.8 26.8-15.3 26.8zm101.9 48.1c-5.4 18.2-24.6 28.6-42.9 23.1-11.1-3.3-19.8-12-23.1-23.1-1.2-4.1 1.2-8.4 5.3-9.5.7-.2 1.4-.3 2.1-.3h51.2c4.2 0 7.7 3.4 7.7 7.7 0 .6-.1 1.4-.3 2.1zm35.8-48.1c-8.5 0-15.3-12-15.3-26.8s6.9-26.8 15.3-26.8 15.3 12 15.3 26.8-6.8 26.8-15.3 26.8z" fill="#ffb71b"/></g></g><path d="M334.8 178.2c-5.4 18.2-24.6 28.6-42.9 23.1-11.1-3.3-19.8-12-23.1-23.1-1.2-4.1 1.2-8.4 5.3-9.5.7-.2 1.4-.3 2.1-.3h51.2c4.2 0 7.7 3.4 7.7 7.7 0 .6-.1 1.4-.3 2.1zm-101.9-48.1c-8.4 0-15.3-12-15.3-26.8s6.9-26.8 15.3-26.8 15.3 12 15.3 26.8-6.8 26.8-15.3 26.8zm137.7 0c-8.5 0-15.3-12-15.3-26.8s6.9-26.8 15.3-26.8 15.3 12 15.3 26.8-6.8 26.8-15.3 26.8z" fill="#fff"/></svg>