<svg xmlns="http://www.w3.org/2000/svg" viewBox="0 0 189.39 29.93"><g id="Шар_2" data-name="Шар 2"><g id="Block_7" data-name="Block 7"><path d="M49 .15V9.9c1-1.82 3.93-2.82 5.79-2.82 5.14 0 9 3.14 9 9.21 0 5.79-3.89 9.21-9.07 9.21A6.41 6.41 0 0149 22.68a2.75 2.75 0 01-2.73 2.43h-1.6V4.51A4.36 4.36 0 0149 .15zm.29 16.14a5.05 5.05 0 1010.1 0 4.85 4.85 0 00-5-5.14 5 5 0 00-5.07 5.14zm26.97 5.32a8.54 8.54 0 003.56-.83 2.07 2.07 0 012.38.4l1.56 1.54a10.81 10.81 0 01-7.57 2.86c-6.07 0-9.68-3.75-9.68-9.39 0-5.36 3.64-9.22 9.36-9.22 5.89 0 9.57 3.64 8.89 10.89H71c.3 2.14 2.19 3.75 5.26 3.75zm4.32-7.35c-.29-2.26-2.07-3.43-4.58-3.43a4.74 4.74 0 00-4.93 3.43zm31.61-1.86a5.94 5.94 0 00-4.36-1.57c-2.07 0-3.21.64-3.21 1.74s1 1.79 3.29 1.93c3.32.22 7.53 1 7.53 5.65 0 3.1-2.53 5.78-7.57 5.78a10.32 10.32 0 01-8.14-3.14l.9-1.31a2.1 2.1 0 012.75-.65 10.47 10.47 0 004.56 1.31c1.64 0 3.18-.82 3.18-2.1s-1-1.72-3.5-1.86c-3.32-.25-7.29-1.46-7.29-5.46s4.22-5.5 7.43-5.5a9.45 9.45 0 016.86 2.32zm22.94 4.31a8.8 8.8 0 01-9.13 9.18c-5.72 0-9.14-4.11-9.14-9.18a8.81 8.81 0 019.1-9.17 8.9 8.9 0 019.17 9.17zm-14 0c0 2.68 1.61 5.18 4.79 5.18s4.78-2.5 4.78-5.18a5 5 0 00-4.7-5.21c-3.19 0-4.84 2.57-4.84 5.21zm31.5 6.15a9 9 0 01-6.78 2.79c-5.11 0-9.36-3.07-9.36-9.32S140.74 7 145.85 7a8.34 8.34 0 016.35 2.6l-2.75 2.9a5.31 5.31 0 00-3.53-1.4 5 5 0 00-5.07 5.22 4.8 4.8 0 005 5.14 5.83 5.83 0 002.69-.61 2.12 2.12 0 012.44.39zm7.88-20.32c0 3.4-5.15 3.4-5.15 0s5.15-3.39 5.15 0zm-.4 4.9v14.92a2.75 2.75 0 01-2.74 2.75h-1.61V11.79a4.35 4.35 0 014.35-4.35zm20.48.07h1.75v14.85a2.75 2.75 0 01-2.75 2.75h-1.36l-.23-2.57c-1 2.07-3.74 3.07-5.71 3.11-5.21 0-9.07-3.18-9.07-9.36s4-9.25 9.18-9.21a6.48 6.48 0 015.6 2.85 2.57 2.57 0 012.59-2.42zm-13 8.78a5.08 5.08 0 005.74 5.34c6.34-.53 6.33-10.14 0-10.64a5.05 5.05 0 00-5.74 5.3zM189.39.54v22.21a2.75 2.75 0 01-2.75 2.75h-1.57V4.86a4.31 4.31 0 014.32-4.32z" fill="#fff"/><path d="M27 .59l-4.66 4.23a19.87 19.87 0 00-14.89 0L2.82.59A1.68 1.68 0 000 1.66v16.78c0 3.76 3.33 6.81 7.45 6.81v3.16a1.68 1.68 0 002.82 1.07l2.44-2.23a7.81 7.81 0 015.27-2h4.36c4.11 0 7.44-3.05 7.44-6.81V1.66A1.68 1.68 0 0027 .59zM7.45 14.21c-.92 0-1.66-1.3-1.66-2.9s.74-2.89 1.66-2.89S9.1 9.71 9.1 11.31s-.74 2.9-1.65 2.9zm11 5.2a3.73 3.73 0 01-7.14 0 .83.83 0 01.8-1.06h5.54a.83.83 0 01.81 1.06zm3.88-5.2c-.92 0-1.66-1.3-1.66-2.9s.74-2.89 1.66-2.89S24 9.71 24 11.31s-.75 2.9-1.66 2.9z" fill="#ffb71b"/></g></g></svg>