<svg xmlns="http://www.w3.org/2000/svg" viewBox="0 0 360 683.35"><defs><linearGradient id="Безымянный_градиент_6" x1="180" x2="180" y2="683.35" gradientUnits="userSpaceOnUse"><stop offset="0" stop-color="#009845"/><stop offset=".12" stop-color="#009845" stop-opacity=".95"/><stop offset=".31" stop-color="#009845" stop-opacity=".83"/><stop offset=".52" stop-color="#009845" stop-opacity=".61"/><stop offset=".77" stop-color="#009845" stop-opacity=".32"/><stop offset="1" stop-color="#009845" stop-opacity="0"/></linearGradient><clipPath id="clip-path"><rect width="360" height="683.35" rx="10" fill="none"/></clipPath><style>.cls-6{fill:#fff}.cls-7{fill:#101820}.cls-9{fill:#ea0029}.cls-10{fill:#ffb71b}</style></defs><g id="Block_4" data-name="Block 4"><rect width="360" height="683.35" rx="10" fill="#009845"/><g clip-path="url(#clip-path)"><path d="M224.13 361.35L203 365.41a9.77 9.77 0 00-7.75 11.44l2 10.5a9.77 9.77 0 0011.44 7.76l.54-.11.82 4.27a2.31 2.31 0 004.1.72l2.73-3.66a10.68 10.68 0 016.11-4l6.85-1.31a9.78 9.78 0 007.76-11.44l-2-10.51a9.77 9.77 0 00-11.47-7.72zM30.44 374.23c-2.49 1.7-6.18.61-8.24-2.42s-1.71-6.86.79-8.55 6.18-.61 8.24 2.42 1.71 6.86-.79 8.55zM35 351.59c-1.6-3.29-5.1-4.9-7.81-3.58s-3.61 5.05-2 8.35 5.09 4.9 7.8 3.59 3.58-5.06 2.01-8.36zm23 9.27c2.87-.91 4.31-4.48 3.2-8s-4.33-5.58-7.21-4.67-4.3 4.48-3.2 8 4.35 5.58 7.21 4.67zM45.24 354c2.71-1.32 3.61-5.06 2-8.36s-5.1-4.9-7.81-3.58-3.61 5.05-2 8.35 5.09 4.89 7.81 3.59zm4.23 6.78a9 9 0 00-13.42 7l-.65 7.39A5.71 5.71 0 0039 381a5.7 5.7 0 006.57-1.73v-.07a11.18 11.18 0 017.91-4.1 5.61 5.61 0 002.25-.63 5.82 5.82 0 001.06-.72 5.7 5.7 0 00-.87-9.28zm65.58 101.35l-3.27 1.59-5 2.42A29.07 29.07 0 0086 460l-2.85-4.72-1.88-3.11c-1.07-1.77-3.85-1.56-4.4.33l-3 10.12L70 475.74l-.09.29a9.37 9.37 0 00-.37 2.86 10.43 10.43 0 00.2 1.67c.06.25.12.51.2.76a10.24 10.24 0 007 7.15l.61.17L92.29 493l6.12 1.8.6.18a10.24 10.24 0 009.75-2.22 9.28 9.28 0 002.89-4.43l.08-.29 3.86-13.11 3-10.12c.53-1.91-1.69-3.59-3.54-2.68zm-31.73 3h1.07a2 2 0 011.22 1.41l.06.23a1.29 1.29 0 010 .19 6.18 6.18 0 01-.2 2.91c-.66 2.24-2.23 3.75-3.51 3.37h-.3l-.11-.08-.11-.1-.07-.08-.07-.08-.09-.14-.08-.15a1.17 1.17 0 010-.11v-.22l-.06-.17V471a1.36 1.36 0 010-.2 6.45 6.45 0 01.27-2.4 6.65 6.65 0 01.5-1.25 5.22 5.22 0 01.39-.66 3.34 3.34 0 01.35-.45l.09-.1a3.69 3.69 0 01.35-.34l.07-.06.07-.05.13-.09h.12zM95.38 485a5.44 5.44 0 01-10-2.94 1.21 1.21 0 011.56-1.16l7.76 2.28a1.21 1.21 0 01.68 1.82zm7.62-5.7c-1.28-.37-1.78-2.5-1.13-4.74s2.24-3.75 3.52-3.37 1.78 2.5 1.12 4.74-2.27 3.75-3.51 3.37zm-36.07-5.7a.83.83 0 011.07-.79l.67.19 3.22-11 1-3.35a19.83 19.83 0 00-5.55-.23l-2-3.25-1.34-2.09a1.68 1.68 0 00-3 .23l-2 6.95-2.65 9-.06.2a6.32 6.32 0 000 3.63 7 7 0 004.8 4.91l.41.12 6 1.77a11.18 11.18 0 01.24-3.91 3.69 3.69 0 01-.85-2.38zm-2.26-6.1c-.88-.26-1.22-1.72-.77-3.26s1.53-2.58 2.41-2.32 1.23 1.72.77 3.26-1.57 2.58-2.45 2.32zm60.11 6l-1.78 6.09-2.31 7.86-.05.17a5.62 5.62 0 01-1.73 2.66 6.16 6.16 0 01-5.85 1.33l-.36-.11h-.13a11.12 11.12 0 001.12-2.57l.08-.28 1.87-6.35c.72 0 1.53-.83 1.89-2.05s.15-2.39-.47-2.76l.57-2 .38-1.27 2.71-1.33 1.95-1a1.47 1.47 0 012.07 1.64zm35.77-212.86l-2.68-.25.46-4.89a1.47 1.47 0 00-2.41-1.34l-1.79 1.57-2.72 2.39a15.57 15.57 0 00-13.24-1.25l-2.23-2.87-1.47-1.88a1.47 1.47 0 00-2.61.87l-.46 4.89-2.69-.25a3.69 3.69 0 00-4 3.32l-.4 4.29a3.69 3.69 0 001.69 3.46l4.26 2.76a7.29 7.29 0 00.6 2.43 6.14 6.14 0 005 3.93h.38l4.58.43-.48 5.06-5.06-.47a4.11 4.11 0 00-4.49 3.72l-.17 1.75 22.38 2.16.17-1.76a4.13 4.13 0 00-3.72-4.5l-5.06-.47.48-5.07.69.07 3.88.36h.38a6.15 6.15 0 005.64-2.93 7.28 7.28 0 001-2.28l4.7-1.92a3.66 3.66 0 002.28-3.06l.4-4.3a3.69 3.69 0 00-3.29-3.97zm-31.8 1.13l2.25.23-.45 4.79-2.15-1.39zm30.65 6.54l-2.37 1 .45-4.8 2.26.21zm112.89-84.71a12.29 12.29 0 00-1 22.37 13.6 13.6 0 015.47 5 1.56 1.56 0 001.77.67c1.33-.41 2.78-.91 4.33-1.53s3-1.25 4.19-1.87a1.56 1.56 0 00.82-1.72 12.75 12.75 0 01.48-7.18 12.29 12.29 0 00-16.1-15.71zm.31 5a7.71 7.71 0 00-3.07 8.93 7.57 7.57 0 002.14 3.19 1.13 1.13 0 01.09 1.59 1.25 1.25 0 01-.42.3 1.13 1.13 0 01-1.16-.21 9.87 9.87 0 011.2-15.68 1.12 1.12 0 111.22 1.88zm17.19 23.07A6.07 6.07 0 01279 216a1.36 1.36 0 01.57-2.1l8.39-3.35a1.36 1.36 0 011.83 1.1zM55.31 176l-5.37-1.74 7.42-11.66a2.23 2.23 0 00-1.19-3.31l-7.65-2.48a2.24 2.24 0 00-2.73 1.19l-5.92 13.53a3.54 3.54 0 002.13 4.78l4.24 1.37-6.38 13c-.56 1.73.69 3 1.94 2l4.2-3.35 2.15-1.73 6.85-5.52c2.05-1.63 2.23-5.49.31-6.08zm41.86 431.67c-11.53-.64-20.77 5.49-21.41 17.07s5.38 19 18.33 19.69a2.37 2.37 0 002.51-2.24l.11-2-2.46-.13c-8.41-.47-13.41-5.18-12.87-15 .5-9 7.92-13.34 15.55-12.92 8 .44 13.26 5.62 12.86 13-.28 5.08-1.76 7.59-3.93 7.6-1.42-.12-1.79-.85-1.68-3l.66-11.91-1-.06a4.27 4.27 0 00-4.14 2.53 6.66 6.66 0 00-5.52-3.69c-4.2-.23-8.52 3.12-8.88 9.54S88.63 636.74 93 637a6.83 6.83 0 006.49-4c.36 2.65 2 3.82 6.34 4.06 5.49.31 9.15-4.67 9.54-11.67.63-9.91-7.07-17.1-18.2-17.72zM97 630.52a4 4 0 01-7.63-.42.88.88 0 01.91-1.09l5.92.33a.89.89 0 01.8 1.18zm111.43-82.2L201 546.6a1.74 1.74 0 00-2 1l-3.43 8a1.71 1.71 0 00.49 2l2.6 2.12a2.77 2.77 0 01.63 3.54 26.65 26.65 0 01-9.45 9.45 2.77 2.77 0 01-3.54-.63l-2.12-2.59a1.71 1.71 0 00-2-.5l-8 3.43a1.73 1.73 0 00-1 2l1.71 7.44a1.72 1.72 0 001.68 1.33A33.18 33.18 0 00209.76 550a1.71 1.71 0 00-1.33-1.68zm80.93-45.23l-4.93 16.21a1.69 1.69 0 01-2.11 1.13l-5.41-1.64a1.71 1.71 0 01-1.13-2.12l4.93-16.21a1.71 1.71 0 012.12-1.13l5.4 1.65a1.69 1.69 0 011.13 2.11zm23.89 9.91a5.08 5.08 0 002.32-2.92 4.22 4.22 0 00-2.83-5.15l-8.25-2.51c1.63-.79 3-3.26 2.9-5.74l-.14-3.37a6.13 6.13 0 00-1-3.17c-1.3-2-3.63-2.31-5.08-.06l-6.61 10.28a6.39 6.39 0 01-2.37 2.22h-.1a.87.87 0 00-.42.5l-4.39 14.44a.84.84 0 00.54 1.05 10.9 10.9 0 013.23 2.18 20.4 20.4 0 007.43 4.6l.19.06c2.89.87 6.31 1.89 8.29.32a3.75 3.75 0 001.34-2.88 5.61 5.61 0 002.64-4.72 5.92 5.92 0 002.31-5.13zm35 138.3l-28.6 12.09a8.68 8.68 0 00-4.65 11.36l7.85 18.58a8.68 8.68 0 0011.37 4.61l28.6-12.08a8.67 8.67 0 004.61-11.36l-7.85-18.58a8.68 8.68 0 00-11.33-4.62zm-14.87 16.92a2.37 2.37 0 011.26-3.11l13.36-5.65a2.37 2.37 0 013.11 1.26 2.37 2.37 0 01-1.26 3.1l-13.4 5.66a2.36 2.36 0 01-3.1-1.26zm-10-1.74a5.48 5.48 0 11-2.92 7.18 5.47 5.47 0 012.96-7.18zm21.72 21.13l-13.39 5.66a2.37 2.37 0 11-1.84-4.37l13.39-5.66a2.37 2.37 0 011.84 4.37zm13.66-13.49L329 686.72a2.37 2.37 0 01-1.84-4.37l29.84-12.6a2.37 2.37 0 011.84 4.37zm-51.67-391.23a14.64 14.64 0 00-8.28 28l-1.36 5.52a2 2 0 004 1l1.35-5.54a14.64 14.64 0 004.31-28.92zm2 20.32a6.44 6.44 0 01-12-2.94 1.44 1.44 0 011.78-1.46l9.3 2.28a1.45 1.45 0 01.9 2.12z" fill="#007234"/><rect width="360" height="683.35" rx="10" fill="url(#Безымянный_градиент_6)"/><path class="cls-6" d="M319 684c11.15-3.74 27.55-6.53 33.65-6.22s11 1.44 13.84 5.54c3.05 4.37 2.38 10.77 0 15-5.47 9.48-20.76 9.16-26.3 9-19.41-.41-33.7-12.07-40-18"/><path class="cls-7" d="M342.85 708.75h-2.72c-18.18-.39-32.29-10.21-40.92-18.38l1.94-2.05c8.27 7.83 21.76 17.24 39 17.61 5.48.12 20 .42 25.05-8.34 2.13-3.69 2.85-9.5.1-13.44-2.19-3.12-6-4.6-12.75-4.94-5.8-.26-21.9 2.38-33.13 6.14l-.89-2.67c11.5-3.86 28.12-6.61 34.16-6.29 5.45.27 11.47 1.22 14.92 6.14 3.59 5.14 2.54 12.14 0 16.48-5.07 8.85-17.68 9.74-24.76 9.74z"/><path class="cls-6" d="M126.41 499.06l-3-57.17c-.55-10.44 13-16.4 21.44-9.44l37.51 30.87"/><path d="M175 456.23s-21.5-1.54-50.51 19.75l1 22.59 26.11-3.63 32.4-32.15z" fill="#efefef"/><path class="cls-7" d="M125 499.13l2.82-.15-3-57.16a10.05 10.05 0 015.9-9.6 12.18 12.18 0 0113.28 1.32l37.51 30.87 1.8-2.18-37.52-30.87a15 15 0 00-16.29-1.66A13 13 0 00122 442z"/><path class="cls-6" d="M114.07 541.28c-2.87-54.8 51.3-74.18 51.3-74.18 36.47-16 80.66-15.61 118.15-2.61l34.08-34.62c7.68-7.81 21.76-3.31 22.31 7.14l6.2 118a64.78 64.78 0 01-55.44 67.52l-112.9 6a64.8 64.8 0 01-62.34-61.35l-1.36-25.88"/><path class="cls-9" d="M311.89 615.37c8.6 11.1 21.45 49.78 21.45 63.54a28.41 28.41 0 01-28.42 28.42H225.6a28.42 28.42 0 01-28.42-28.42c0-13.8 10.67-37.76 15.09-51.57"/><path class="cls-7" d="M304.92 708.74H225.6a29.86 29.86 0 01-29.83-29.83c0-10.38 5.65-25.73 10.64-39.27 1.72-4.67 3.35-9.08 4.51-12.73l2.69.86c-1.18 3.7-2.82 8.15-4.55 12.85-4.66 12.66-10.47 28.41-10.47 38.29a27 27 0 0027 27h79.32a27 27 0 0027-27c0-13.88-12.85-52-21.16-62.68l2.25-1.73c8.53 11 21.74 50.15 21.74 64.41a29.86 29.86 0 01-29.82 29.83z"/><path class="cls-7" d="M164.8 465.8c34.86-15.24 79-16.33 118.34-2.93l33.45-34a15 15 0 0116-3.37 13 13 0 018.7 11.42l6.2 118a65.75 65.75 0 01-35.17 62 14.63 14.63 0 00-.89-2.69 63 63 0 0033.24-59.17l-6.2-118a10.07 10.07 0 00-6.88-8.93 13 13 0 00-3.21-.76 12 12 0 00-9.81 3.47l-34.7 35.26-.84-.29c-38.87-13.48-82.65-12.52-117.22 2.6-.53.19-53.15 19.63-50.36 72.77l1.36 25.89c1.71 32.5 28.49 58.83 60.86 60l36.89-1.92a14.83 14.83 0 00-1.45 2.9l-35.42 1.84c-1.44 0-2.87-.15-4.29-.29a66.69 66.69 0 01-59.4-62.36l-1.36-25.89c-2.87-55.21 51.7-75.35 52.16-75.55z"/><path class="cls-7" d="M303.1 472.49a5.65 5.65 0 01-2.86-10l13.73-11c6.18-4.94 15.88-.49 15.37 7l-1.2 17.78a5.64 5.64 0 01-9.61 3.61 27 27 0 00-15.43-7.39z"/><path class="cls-6" d="M224.82 622.83c-27.67-1.6-48.45 4.86-50 10.59-3.48 12.48 23.95 15.13 53.07 16.79"/><path d="M226.39 648.93c-21.63-1.27-44.64-3.3-49.72-10.41a5.27 5.27 0 01-.74-4.78c1.37-4.91 21.54-11.29 48.82-9.71a1.21 1.21 0 001.25-1.13 1.3 1.3 0 00-.1-.56 1.22 1.22 0 00-1-.71c-27.88-1.61-49.4 4.75-51.27 11.47a7.68 7.68 0 001.1 6.81C180.48 648 203.64 650 227 651.37a11 11 0 01-.61-2.44z"/><path class="cls-6" d="M277 625.42c-26.12 9.29-43.49 21.68-42.74 27.58 1.65 12.86 27.95 4.62 55.42-5.16"/><path class="cls-9" d="M251.7 635.8c-.77 4.21-.85 12.35 8.89 22.57 4.85 5.1 35.16-11.31 34.72-11.28S277.15 624 276.7 623.93s-25 11.87-25 11.87z"/><path class="cls-7" d="M288.37 647.94a1.19 1.19 0 00-1.35-.42c-20.17 7.14-41.64 14-49 9.44a5.3 5.3 0 01-2.54-4.11c-.64-5.06 15.87-16.87 41.62-26a1.2 1.2 0 00.73-1.53 1.38 1.38 0 00-.31-.47 1.18 1.18 0 00-1.22-.25c-26.32 9.35-44.08 21.67-43.19 28.58a7.66 7.66 0 003.66 5.85c8.23 5.06 29.5-1.6 51-9.22a1.19 1.19 0 00.56-1.82z"/><ellipse class="cls-6" cx="146.25" cy="536.87" rx="12.83" ry="22.46" transform="rotate(-4.24 146.226 536.694)"/><path class="cls-7" d="M147.35 560.7c-3.71 0-7.29-2.29-10.15-6.53a36.81 36.81 0 01-2.45-33.07c2.33-4.89 5.79-7.74 9.73-8 8-.61 15 9.4 16 22.75S156 560.09 148 560.68c-.21.02-.43.02-.65.02zm.45-2.84l.11 1.41-.11-1.41c6.18-.46 10.68-10.45 9.84-21.83s-6.78-20.56-12.95-20.14c-2.89.21-5.52 2.5-7.39 6.43a34 34 0 002.24 30.27c2.46 3.61 5.38 5.49 8.26 5.27z"/><path class="cls-7" d="M150.87 542.17a3.9 3.9 0 01-6.65-4c-2.71 1.22-4.48 5.69-4.1 10.86.44 5.92 3.54 10.52 6.92 10.26s5.77-5.25 5.33-11.17a16.83 16.83 0 00-1.5-5.95z"/><ellipse class="cls-6" cx="235.38" cy="530.98" rx="12.83" ry="22.46" transform="rotate(-4.24 235.307 530.795)"/><path class="cls-7" d="M236.48 554.81c-3.71 0-7.29-2.3-10.15-6.53a36.81 36.81 0 01-2.45-33.07c2.33-4.89 5.79-7.74 9.73-8 8-.6 15 9.4 16 22.75a33.93 33.93 0 01-2.7 16.82c-2.34 4.89-5.79 7.74-9.74 8zM234.26 510h-.44c-2.89.22-5.52 2.5-7.39 6.43a34.06 34.06 0 002.24 30.28c2.44 3.61 5.4 5.46 8.26 5.27s5.52-2.5 7.4-6.43a31.18 31.18 0 002.44-15.4C246 519 240.28 510 234.26 510z"/><path class="cls-7" d="M240 536.28a3.91 3.91 0 01-7-2.06 3.88 3.88 0 01.38-2c-2.71 1.22-4.48 5.69-4.1 10.86.44 5.92 3.54 10.51 6.92 10.26s5.77-5.25 5.33-11.17a16.77 16.77 0 00-1.53-5.89zm-45.67 18.3l-7.71.21a2.77 2.77 0 00-2.28 4.22l4 6.57a2.77 2.77 0 004.79-.13l3.67-6.79a2.76 2.76 0 00-2.47-4.08z"/><path class="cls-6" d="M190.55 562.9l3.3 19.54"/><path class="cls-7" d="M192 562.66c.37 0 .27.16.31.26l.05.31.11.61.21 1.22.43 2.44.84 4.88c.59 3.25 1.12 6.51 1.61 9.78l-3.32.56c-.61-3.25-1.17-6.5-1.69-9.77l-.8-4.88-.4-2.45-.2-1.22-.1-.61-.05-.31c0-.1-.12-.19.21-.35zm35.28-3.32a22.74 22.74 0 01-15.17-5.87 25.11 25.11 0 01-8.28-16.72l-2.05-23.87a8.81 8.81 0 011.87-6.3 8.07 8.07 0 015.65-3.06l48.55-4.17a8.51 8.51 0 019 7.94l2.05 23.87a25.1 25.1 0 01-5.32 17.89 22.68 22.68 0 01-15.88 8.62l-18.49 1.58q-.95.09-1.93.09zm-17.73-53a5.28 5.28 0 00-3.69 2 6 6 0 00-1.27 4.3l2 23.87a22.33 22.33 0 007.41 14.85 19.85 19.85 0 0015 5.08l18.5-1.59a19.88 19.88 0 0013.92-7.56 22.32 22.32 0 004.7-15.89l-2.05-23.87a5.71 5.71 0 00-5.95-5.37zm-70.48 60.79a20 20 0 01-14.08-6 26.53 26.53 0 01-7.63-16.73l-2-23.87c-.41-4.77 2.68-8.94 6.88-9.3l43.94-3.77a7.2 7.2 0 015.68 2.14 9.31 9.31 0 012.68 5.85l2 23.87c1.16 13.51-7.42 25.32-19.11 26.33l-16.75 1.44c-.54.01-1.08.04-1.61.04zM122.43 514c-2.65.23-4.58 3-4.3 6.25l2.05 23.87a23.69 23.69 0 006.78 15 17.1 17.1 0 0013.48 5.17l16.74-1.44c10.15-.87 17.57-11.32 16.55-23.27l-2.06-23.88a6.4 6.4 0 00-1.84-4.07 4.41 4.41 0 00-3.46-1.35z"/><path class="cls-7" transform="rotate(-4.93 189.548 529.928)" d="M174.37 528.44h30.23v2.82h-30.23z"/><path class="cls-7" d="M351.58 532.27a1.42 1.42 0 01-2-.08l-9.08-9.87A23.7 23.7 0 00319 515l-52 8.91-.48-2.79 52-8.91a26.52 26.52 0 0124.08 8.21l9.09 9.87a1.41 1.41 0 01-.08 2z"/><path class="cls-10" d="M237.65 668.45H120.94l-16.5-91.73h116.72l16.49 91.73z"/><path class="cls-7" d="M239.34 669.86H121.1a1.62 1.62 0 01-1.58-1.32l-16.39-91.16a1.76 1.76 0 011.73-2.07h115.5a2.37 2.37 0 012.33 1.94zM123.46 667H236l-15.63-87a2.38 2.38 0 00-2.33-1.94h-109.8a1.75 1.75 0 00-1.73 2.07l15.38 85.51a1.59 1.59 0 001.57 1.36z"/><path class="cls-10" d="M237.65 668.45h31.65v-4.17a3 3 0 00-2.95-2.94h-30z"/><path class="cls-7" d="M269.43 669.86h-33l-1.78-9.93h31.66a4.36 4.36 0 014.36 4.35v4.3a1.28 1.28 0 01-1.24 1.28zm-30.6-2.86h27.78a1.28 1.28 0 001.28-1.27v-1.48a1.54 1.54 0 00-1.54-1.53h-28.29zm-9.6-41.81l-.06-2.82c62-1.19 82.53-8.26 82.73-8.33l1 2.66c-.9.3-21.1 7.3-83.67 8.49zm28.44 33.48c-7.93-8-8.58-20.39-8.6-20.91l2.82-.12c0 .11.63 11.8 7.79 19.05z"/><path d="M165.17 604.41c-10.74 0-17.85 6-15.83 16.43s9.2 16.8 21.26 16.8a1.75 1.75 0 001.8-2.15l-.35-1.8h-2.29c-7.83 0-13.48-4-15.19-12.85-1.56-8.12 4.28-12.41 11.38-12.41 7.48 0 13.44 4.4 14.72 11 .88 4.59.09 6.92-1.9 7-1.33 0-1.84-.67-2.21-2.59l-2.07-10.75h-1a3.13 3.13 0 00-3.23 2.48 7.75 7.75 0 00-5.89-3c-3.92 0-7.14 3.23-6 9S163.85 631 168 631a5 5 0 005.07-3.91c.92 2.37 2.66 3.35 6.73 3.35 5.12 0 7.36-4.66 6.14-11-1.76-8.94-10.42-15.03-20.77-15.03zm5 20.57a2.91 2.91 0 01-3.06 2.56 4.69 4.69 0 01-4-2.56.67.67 0 01.6-1h5.51a1 1 0 01.9 1.02z" fill="#ffc556"/></g></g></svg>