<svg xmlns="http://www.w3.org/2000/svg" viewBox="0 0 557.13 287.07"><defs><clipPath id="clip-path"><path fill="none" d="M0 0h557.13v287.07H0z"/></clipPath><style>.cls-5{fill:#fff}.cls-6{fill:#101820}.cls-7{fill:#ffb71b}.cls-8{fill:#bf8914}</style></defs><g clip-path="url(#clip-path)" id="Слой_10" data-name="Слой 10"><path fill="#0075c9" d="M0 0h557.13v287.07H0z"/><path d="M1.93 23.45l-13 18.36A10.21 10.21 0 00-8.67 56l9.12 6.51a10.21 10.21 0 0014.23-2.42l.33-.47 3.7 2.63c1.59 1.12 3.87-.41 3.62-2.43l-.59-4.73a11.16 11.16 0 011.75-7.41l4.21-6a10.2 10.2 0 00-2.42-14.18L16.17 21a10.22 10.22 0 00-14.24 2.45zm251.41 202.42c-2.54 1.85-6.43.85-8.69-2.24s-2-7.11.52-9 6.44-.86 8.69 2.24 2.03 7.13-.52 9zm3.93-23.8c-1.78-3.38-5.49-4.94-8.28-3.47s-3.59 5.4-1.81 8.79 5.5 4.94 8.28 3.47 3.6-5.4 1.81-8.79zm24.39 8.87c3-1.05 4.34-4.83 3.06-8.44s-4.72-5.68-7.69-4.63-4.34 4.83-3.06 8.44 4.72 5.69 7.69 4.63zm-13.58-6.73c2.78-1.47 3.59-5.4 1.81-8.79s-5.49-4.94-8.28-3.47-3.59 5.4-1.81 8.79 5.49 4.94 8.28 3.47zm4.66 6.94A9.4 9.4 0 00259 219l-.42 7.75a6 6 0 0010.71 3.88l.05-.07a11.64 11.64 0 018.12-4.56 6.07 6.07 0 002.32-.74 5.93 5.93 0 001.09-.79 6 6 0 001.35-7 6 6 0 00-2.59-2.7zM305-2.45l.62 3.74.96 5.71a30.36 30.36 0 00-12.39 19l-5.57 1.44-3.68 1c-2.09.54-2.7 3.38-1 4.5l9.24 6 12 7.79.26.17a9.61 9.61 0 002.75 1.22 10 10 0 001.72.3h.83a10.71 10.71 0 009.26-4.84l.36-.55 8.76-13.47 3.61-5.56.36-.56a10.68 10.68 0 00.69-10.44 9.71 9.71 0 00-3.57-4.22l-.21-.17-12-7.78-9.23-6c-1.77-1.13-4.11.59-3.77 2.72zm-6.45 32.67v-.06a.28.28 0 010-.09v-.33a.19.19 0 010-.08.52.52 0 000-.11v-.26l.06-.11a2 2 0 011.77-.79h.46a6.41 6.41 0 012.85 1.07c2.05 1.33 3.09 3.35 2.33 4.52l-.09.12-.07.07a.46.46 0 00-.07.07l-.12.08-.13.08h-.31l-.16.05h-1.67a7.43 7.43 0 01-3.4-1.78 5.89 5.89 0 01-.54-.59c-.12-.16-.24-.32-.34-.48l-.07-.11a3.94 3.94 0 01-.23-.46v-.18c0-.05 0-.1-.05-.15s0 0 0-.06v-.13a.64.64 0 000-.07.17.17 0 00-.2-.22zM322 24.07a5.68 5.68 0 01-5.93 9.14 1.27 1.27 0 01-.7-1.91l4.63-7.09a1.26 1.26 0 012-.14zm-3.42-9.28c-.76 1.17-3 1-5.09-.29s-3.08-3.36-2.32-4.53 3-1 5.08.29 3.11 3.36 2.35 4.53zm-16.5 34.4a.88.88 0 01-.48-1.31l.4-.61-10-6.51-3.06-2a20.76 20.76 0 00-1.89 5.49l-3.83 1-2.53.65A1.76 1.76 0 00280 49l6.34 4.12 8.23 5.35.18.12a6.66 6.66 0 003.64 1.07 7.38 7.38 0 006.36-3.35l.24-.38 3.58-5.5a11.72 11.72 0 01-3.85-1.4 4 4 0 01-2.62.16zm-6.79.43c-.52.81-2.08.72-3.49-.2s-2.12-2.3-1.6-3.11 2.09-.71 3.49.2 2.15 2.31 1.62 3.11zm24-58.36l5.54 3.6L332-.48l.16.1a5.82 5.82 0 012.14 2.53 6.42 6.42 0 01-.42 6.25l-.21.33-.08.12a11.28 11.28 0 00-2.2-1.85l-.26-.17L325.34 3c.24-.71-.38-1.79-1.49-2.51s-2.35-.86-2.91-.35L319.16-1 318-1.76l-.51-3.11-.38-2.24a1.53 1.53 0 012.22-1.63zM213.6 281l-2.79.36-.67-5.09a1.53 1.53 0 00-2.76-.8l-1.46 2-2.22 3.06a16.25 16.25 0 00-13.77 1.81L187 280l-1.93-1.57a1.53 1.53 0 00-2.46 1.49l.67 5.09-2.79.36a3.86 3.86 0 00-3.32 4.32l.59 4.47a3.85 3.85 0 002.49 3.11l5 1.82a7.47 7.47 0 001.18 2.34 6.4 6.4 0 006 2.84l.4-.05 4.76-.62.69 5.27-5.26.69a4.32 4.32 0 00-3.72 4.83l.24 1.83 23.33-3.06-.24-1.83a4.3 4.3 0 00-4.83-3.71l-5.27.69-.73-5.31.73-.1 4-.53.4-.05a6.39 6.39 0 005.06-4.29 7.54 7.54 0 00.53-2.56l4.35-3.05a3.85 3.85 0 001.6-3.65l-.59-4.47a3.84 3.84 0 00-4.28-3.3zm-32.13 8.54l2.35-.31.66 5-2.51-.92zm32.74-.47l-2.21 1.55-.65-5 2.35-.31zM58 164.66a12.85 12.85 0 0011.29 20.49 14.2 14.2 0 017.58 1.46 1.6 1.6 0 001.94-.36c1-1.08 2-2.32 3-3.71s2-2.72 2.72-3.95a1.63 1.63 0 00-.2-2 13.31 13.31 0 01-3.47-6.67A12.84 12.84 0 0058 164.66zm3 4.28a8 8 0 005.74 11.33 1.16 1.16 0 01.94 1.36 1.08 1.08 0 01-.21.49 1.17 1.17 0 01-1.15.45 10.3 10.3 0 01-4.71-2.18 10.42 10.42 0 01-2.72-12.47 1.17 1.17 0 011.56-.55 1.19 1.19 0 01.55 1.57zm27.88 11.26a6.34 6.34 0 01-7.3 9.72 1.41 1.41 0 01-.63-2.18l5.66-7.54a1.42 1.42 0 012.27 0zm55.53-166.68c-10.8 5.4-16 15.75-10.57 26.59s14.73 14.41 26.85 8.34a2.48 2.48 0 001.1-3.33l-.93-1.87-2.3 1.15c-7.87 3.94-14.85 2.27-19.46-6.93-4.21-8.41.26-16.21 7.39-19.79 7.53-3.76 14.95-1.78 18.39 5.08 2.38 4.75 2.34 7.79.37 8.93-1.34.62-2.06.15-3.06-1.83l-5.58-11.15-1 .48a4.45 4.45 0 00-2.44 4.44 6.93 6.93 0 00-6.92-.49c-3.93 2-6.11 7.26-3.11 13.26s8.55 7.91 12.68 5.84a7.14 7.14 0 003.81-7c1.7 2.22 3.77 2.45 7.86.4 5.14-2.58 5.88-9 2.6-15.54-4.6-9.25-15.28-11.8-25.68-6.58zm11.67 20.82a4.16 4.16 0 01-7.14 3.57.93.93 0 01.27-1.46l5.54-2.77a.93.93 0 011.33.66zm222.2 142.32l7.72 15.91a1.76 1.76 0 01-.81 2.36l-5.31 2.59a1.77 1.77 0 01-2.37-.82l-7.75-15.91a1.76 1.76 0 01.82-2.36l5.3-2.59a1.77 1.77 0 012.4.82zm25.3-9.43a5.33 5.33 0 00-.31-3.89 4.4 4.4 0 00-5.82-1.93l-8.1 3.94c.68-1.76 0-4.62-1.86-6.45l-2.49-2.49a6.36 6.36 0 00-3-1.74c-2.39-.57-4.43.81-3.93 3.56l2.25 12.57a6.8 6.8 0 01-.24 3.38v.11a.91.91 0 000 .69l6.92 14.17a.88.88 0 001.16.42 11.57 11.57 0 014-.63 21.2 21.2 0 009-1.76l.18-.09c2.84-1.39 6.18-3.05 6.59-5.65a3.93 3.93 0 00-1-3.16 5.82 5.82 0 00-1.33-5.48 6.14 6.14 0 00-2.02-5.57zM41.56 264.7c-3.11-3.43-13.69-10.65-16.58-8-2.44 2.21 4.87 10.54 2.4 12.78-3.5 3.17-18.26-13.23-22-9.8-3.6 3.27 4.21 21.2 10.62 28.27a17.28 17.28 0 1025.56-23.25zm462.2-126.87a15.29 15.29 0 0027.17 13.79l5.42 2.43a2.13 2.13 0 001.75-3.89l-5.44-2.44a15.29 15.29 0 00-28.9-9.89zm21.25 1.8a6.73 6.73 0 01-5.29 11.77 1.51 1.51 0 01-1.16-2.11l4.1-9.13a1.51 1.51 0 012.34-.53z" fill="#005897"/><path class="cls-5" d="M458.3 266.7c8.32-6.94 21.47-14.83 26.81-16.62s9.89-2.43 13.73.13c4.09 2.72 5.66 8.44 5 12.85-1.53 10-14.76 14.82-19.55 16.58-16.81 6.15-33 .94-40.36-2.06"/><path class="cls-6" d="M467.66 283.74a65 65 0 01-24.2-5l.92-2.26c9.74 4 24.5 7.53 39.48 2 4.74-1.73 17.34-6.34 18.76-15.61.6-3.92-.74-9.18-4.45-11.65-2.95-2-6.74-2-12.67 0-5.11 1.71-18 9.4-26.42 16.4l-1.56-1.88c8.58-7.16 21.9-15.07 27.2-16.83 4.75-1.58 10.22-2.79 14.8.26s6.23 9.38 5.51 14.06c-1.63 10.7-15.22 15.66-20.33 17.53a49.21 49.21 0 01-17.04 2.98z"/><path class="cls-7" d="M345.45 231a2.62 2.62 0 011.91 4.2c-7.93 10.24-13 26-13 38.68A26.2 26.2 0 00360.59 300h73.11a26.2 26.2 0 0026.2-26.2c0-12.72-2.36-25.67-12.14-38.76-6.12-8.18-7.66-22.72-5.62-22.9"/><path class="cls-8" d="M371.54 231.67S376.11 247 393 244.35 416 222 416 222z"/><path class="cls-6" d="M433.7 301.26h-73.11a27.45 27.45 0 01-27.41-27.42c0-13.38 5.31-29.22 13.22-39.43a1.33 1.33 0 00.17-1.36 1.47 1.47 0 00-1.23-.88l.22-2.43a3.92 3.92 0 013.25 2.33 3.76 3.76 0 01-.48 3.84c-7.61 9.81-12.71 25.06-12.71 37.93a25 25 0 0025 25h73.08a25 25 0 0025-25c0-15.29-3.67-27-11.9-38-5.66-7.57-7.67-20.5-6.27-23.65A1.82 1.82 0 01442 211l.21 2.43a.73.73 0 00.52-.27c-.84 1.4.39 13.74 6 21.21 8.57 11.47 12.39 23.65 12.39 39.5a27.45 27.45 0 01-27.42 27.39z"/><path class="cls-5" d="M487.74 101.85c-.44-4.81-2.11-11.35-4.21-18.06A135.53 135.53 0 01460 90.66c-14.5 2.88-30.07 6.43-44.78 3.58a12.81 12.81 0 01-5-2.08c-35.31 10-75.19 6.23-111.75 5.53-.09.4-.2.79-.29 1.21-2 9.58-11.31 11.18-18.1 7.61l-.62 4.18a157.8 157.8 0 00-.89 38.66l3.43 34.12a59.72 59.72 0 0060 53.74l73.13-7.21 30.48-3.16a59.73 59.73 0 0048.19-64.63s-4.67-44.98-6.06-60.36z"/><path class="cls-6" d="M341.37 238.43a60.62 60.62 0 01-60.64-54.84l-3.42-34.11a158.34 158.34 0 01.9-39l.86-5.89 1.53.81a12.58 12.58 0 0011 .62 9.93 9.93 0 005.37-7.4c.05-.27.12-.53.18-.8l.33-1.4h1c6.5.12 13.09.34 19.75.56 30.87 1 62.78 2.08 91.65-6l.56-.16.48.34a11.59 11.59 0 004.52 1.84c13.45 2.61 27.6-.23 41.29-3l3-.6a134.63 134.63 0 0023.33-6.81l1.22-.49.4 1.26c2.43 7.79 3.86 14 4.25 18.33 1.38 15.19 6 59.85 6.07 60.3 3.12 31.15-18.48 60.12-49.18 65.95l-30.58 3.18-73.24 7.31zM281 108.3l-.38 2.57a155.85 155.85 0 00-.88 38.36l3.42 34.11A58.09 58.09 0 00341.9 236l73.1-7.25 30.47-3.16c29.37-5.59 50.11-33.4 47.1-63.29 0-.45-4.68-45.13-6.06-60.33a88.28 88.28 0 00-3.77-16.57 137 137 0 01-22.53 6.45l-3 .61c-13.92 2.79-28.31 5.68-42.24 3a14 14 0 01-5-2c-29.08 8.08-61 7-91.84 6-6.31-.2-12.57-.41-18.73-.54a1.6 1.6 0 00-.05.21c-1.11 5.43-4.26 8-6.71 9.12a14.77 14.77 0 01-11.64.05z"/><path d="M325 123.18a1.22 1.22 0 01-.31-2.4c5.22-1.37 12.29-7 12.36-7a1.22 1.22 0 011.53 1.91c-.31.24-7.55 6-13.27 7.5a1.1 1.1 0 01-.31-.01zm99.05-6.12a1.48 1.48 0 01-.35 0c-.37-.11-9.24-2.78-13.73-6.62a1.22 1.22 0 011.59-1.86c4.09 3.51 12.75 6.11 12.84 6.14a1.22 1.22 0 01-.35 2.39z"/><path class="cls-7" d="M478.33 79.48s-8.66-22.92-19.61-28.77-19.4 5.35-24.21 4.84-28.93-40-53-38.2-59.31 41.87-67.89 45.83-21.64-.5-27.75 27.25c26.45 19.03 159.61 2.04 192.46-10.95z"/><path class="cls-6" d="M337.33 100.05c-23.85 0-43.56-2.42-52.2-8.63l-.65-.47.17-.78c4.94-22.46 14.7-24.62 22.53-26.36a29.14 29.14 0 005.9-1.73c2.43-1.13 7.67-5.81 13.74-11.25 14.87-13.3 37.34-33.42 54.57-34.69 17.72-1.25 35 18.41 45.37 30.19 3.2 3.65 6.83 7.78 7.89 8 1.24.13 3.26-1.05 5.41-2.28 4.83-2.79 11.43-6.61 19.24-2.43 11.22 6 19.81 28.46 20.17 29.42l.42 1.12-1.11.45c-21.68 8.58-90.87 19.44-141.45 19.44zm-50.12-10.16c27.62 18.11 156.26 1.25 189.53-11.11-1.9-4.63-9.54-22.15-18.59-27-6.61-3.53-12.3-.25-16.87 2.39-2.61 1.51-4.86 2.82-6.9 2.59-1.8-.19-4.2-2.84-9.46-8.82C414.86 36.5 398 17.29 381.57 18.57s-38.5 21-53.13 34.08c-6.72 6-11.58 10.37-14.33 11.64a31.07 31.07 0 01-6.4 1.9c-7.43 1.65-15.85 3.52-20.5 23.7z"/><ellipse class="cls-5" cx="332.91" cy="155.81" rx="11.83" ry="20.7" transform="rotate(-5.23 333.075 155.853)"/><path class="cls-6" d="M334.16 177.68c-3.34 0-6.6-2.05-9.24-5.83a33.86 33.86 0 01-2.78-30.36c2.05-4.51 5.17-7.18 8.77-7.51s7.15 1.73 10 5.79a31.34 31.34 0 015 14.85c1.12 12.24-3.71 22.35-11 23-.25.04-.5.06-.75.06zm-2.51-41.29h-.52c-2.69.25-5.09 2.41-6.77 6.09a31.45 31.45 0 002.56 27.95c2.32 3.32 5.06 5 7.77 4.76 5.72-.53 9.75-9.85 8.78-20.37a28.66 28.66 0 00-4.57-13.67c-2.17-3.08-4.72-4.76-7.25-4.76z"/><ellipse class="cls-5" cx="438.93" cy="146.1" rx="11.83" ry="20.7" transform="rotate(-5.23 439.16 146.217)"/><path class="cls-6" d="M440.17 168c-3.34 0-6.59-2.05-9.24-5.83a31.19 31.19 0 01-5-14.85c-1.12-12.24 3.71-22.35 11-23 3.57-.3 7.15 1.73 10 5.79a33.86 33.86 0 012.78 30.36c-2.06 4.51-5.17 7.18-8.78 7.51-.25.02-.51.02-.76.02zm-2.5-41.29h-.52c-5.73.53-9.75 9.86-8.79 20.37a28.84 28.84 0 004.57 13.67c2.32 3.32 5.06 5 7.77 4.76s5.1-2.41 6.78-6.09a31.45 31.45 0 00-2.56-27.95c-2.17-3.11-4.73-4.79-7.25-4.79zm-100.6 23.13a3.57 3.57 0 01-2.58 1.49 3.6 3.6 0 01-3.62-5.07c-2.47 1.16-4 5.31-3.6 10.07.5 5.45 3.43 9.63 6.54 9.35s5.24-4.94 4.74-10.39a15.58 15.58 0 00-1.48-5.45z"/><path class="cls-6" d="M443.08 140.14a3.6 3.6 0 01-6.51-1.79 3.53 3.53 0 01.32-1.8c-2.48 1.17-4 5.31-3.6 10.07.5 5.45 3.43 9.63 6.54 9.35s5.23-4.94 4.73-10.39a15.26 15.26 0 00-1.48-5.44zm-44.7 39.62c4-.3 15.33 6.76 14.47 10.67-2.48 11.16-12 18.51-24 19.41s-22.72-4.92-26.83-15.59c-1.44-3.73 13.63-16.27 17.62-16.57"/><path d="M367.41 202.53s8.18-13.14 23.32-6.37c0 0 10.92-7.29 20.78-1.52-9 12.67-10.87 12.72-20.78 15s-23.32-7.11-23.32-7.11z" fill="#ea0029"/><path class="cls-6" d="M386.43 211.16c-11.74 0-21.61-6.28-25.54-16.47a4.94 4.94 0 01.12-4.57c1-1.51 3-2.4 6-2.63l.19 2.44c-2.16.16-3.62.69-4.13 1.5a2.68 2.68 0 00.09 2.39c3.81 9.88 13.86 15.69 25.6 14.8s20.59-8.12 22.88-18.46c.34-1.51-.13-2.06-.29-2.24-.69-.8-2.35-1.15-4.67-1l-.18-2.44c3.2-.24 5.45.37 6.7 1.8a4.78 4.78 0 01.83 4.37c-2.53 11.41-12.38 19.41-25.09 20.37-.84.1-1.68.14-2.51.14zm1.65-49.16l-6.83.51a2.46 2.46 0 00-1.85 3.84l3.86 5.67a2.46 2.46 0 004.25-.32l3-6.18a2.46 2.46 0 00-2.43-3.52z"/><path class="cls-5" d="M385.05 167.67l.91 12"/><path transform="rotate(-4.31 385.334 173.642)" d="M384.28 167.65h2.44v12.03h-2.44z"/><path class="cls-6" d="M384.33 170.41c4.81 2 3.46 21-14.4 25.29-17.62 4.27-21.83-22.49-21.83-22.49s7.41 12.58 15.26 11c9.79-1.87 10.25-18.14 20.97-13.8z"/><path class="cls-6" d="M385.63 170.29c-4.36 2.84.63 21.22 19 22 18.12.8 17.09-26.27 17.09-26.27s-4.84 13.77-12.85 13.78c-9.98.04-13.57-15.8-23.24-9.51z"/><path class="cls-5" d="M412.81 252c11 18.33 24.17 28.75 28.52 27.28 9.47-3.21-.79-21.83-12.39-41.11"/><path class="cls-7" d="M424.19 271.53c6-5.37 19.27-10.59 19.27-10.59l-14.54-24.65-19.73 16.18z"/><path class="cls-6" d="M412 251.49a.92.92 0 000 1c11.1 18.46 24.51 29.4 29.61 27.67a5.89 5.89 0 003.85-3.66c2.66-7.25-6.32-23.14-15.75-38.8a.92.92 0 10-1.58 1c8.79 14.6 18 30.72 15.6 37.2a4.09 4.09 0 01-2.72 2.55c-3.72 1.27-16.57-8.81-27.43-26.87a.93.93 0 00-1.27-.32 1 1 0 00-.31.23zm-21.39-5.67c-15.36 0-19-11.17-19.07-11.29l2.33-.73c.12.39 3.24 9.57 16.74 9.57 13.73 0 20.63-13.54 20.69-13.68l2.19 1.09c-.3.61-7.65 15.04-22.88 15.04z"/><path class="cls-6" d="M428 271l-2.17-1.12c.12-.23 3-5.61 15.54-8.94l.63 2.36c-11.32 3-14 7.7-14 7.7z"/><path class="cls-5" d="M432.66 74.29c3.91 5.94 11.74 8.61 18.37 9.77 7 1.23 16.2 1.74 22.74-1.47.35-.17.66-.4 1-.59l-3.3-41.17c-.67-8.34-12-11.63-18-5.21l-24.7 26.52c.66 4.29 1.55 8.59 3.89 12.15zM312.45 86.82c6.08-1.62 12.86-4.06 17.13-8.94a15.44 15.44 0 003.61-8.64l-27.66-25.31C299.06 38 288 42.2 288 50.57v37.65c7.84 1.87 15.78.93 24.45-1.4z"/><path class="cls-6" d="M429 63.54l25.29-27.15a9.73 9.73 0 0110.35-2.45 8.06 8.06 0 015.69 7l3.35 41.7h.09a14.72 14.72 0 002.07-1.24l-3.26-40.61a10.38 10.38 0 00-7.2-8.94 12 12 0 00-12.74 3.05l-24.09 25.81c.14.94.29 1.89.45 2.83zM289.14 88.46V50.57a8.05 8.05 0 015.12-7.42 10 10 0 014.06-.86 9.57 9.57 0 016.45 2.47L333 70.56a26.77 26.77 0 00.38-2.71L306.29 43.1a12 12 0 00-12.94-2 10.39 10.39 0 00-6.47 9.49v37.34c.75.2 1.5.38 2.26.53z"/><path class="cls-6" d="M316.32 74.88a4.52 4.52 0 002.82-7.88l-10.37-9.48c-4.66-4.27-12.64-1.25-12.64 4.79V76.6a4.51 4.51 0 007.48 3.4 21.59 21.59 0 0112.71-5.12zm141.98-3.47a4.51 4.51 0 007.18-4l-1.14-14.21c-.48-6-8.67-8.39-13-3.76l-9.58 10.28a4.53 4.53 0 003.44 7.59 21.5 21.5 0 0113.1 4.1z"/><path class="cls-6" d="M298.35 89.82a97.14 97.14 0 01-10.45-.6 1 1 0 01-.89-1.1 1 1 0 011.11-.89c16.61 1.8 28.92-.55 36.6-7 6.27-5.26 7-11.37 7-11.72a1 1 0 011.84-.54c.52.77-.58 4.74-2.47 7.89-4 6.67-12.91 13.96-32.74 13.96zm158.14-4.29c-8.33 0-15-2-19.95-5.92-8.77-7-8.66-17.54-8.65-18a1.08 1.08 0 011-1 1 1 0 011 1c0 .1-.08 10 7.92 16.4 7.67 6.1 20 7.1 36.7 3a1 1 0 011.22.74A1 1 0 01475 83a77.51 77.51 0 01-18.51 2.53z"/><path class="cls-7" d="M488.3 107.86s-95.87 17.62-210.57 16.26c-4.71-2.24-1.41-30.91 4.88-35.1s48.56-1.39 104.32-5.72 93.18-13 97-8.15 8.49 29 4.37 32.71z"/><path class="cls-8" d="M292.47 87.06s-5.87 15.48-1.79 37.14c7.13 0 15.78-.12 15.78-.12s-1.68-26.33.69-37.67c-7.48 0-14.68.65-14.68.65zM327 86s-1.69 24 0 37.61l15.1-.58s-1.2-32.18 1.18-37.44c-7.62.34-16.28.41-16.28.41zm36-1.2s-.86 27.53 1.69 37.16l18-1.41s-3.45-31.1-2.42-36.76c-7.49 0-17.27 1.01-17.27 1.01zm34.33-2.37s4.11 30.43 3 36.65c4.64-.42 15.46-1.49 15.46-1.49s.12-21.81-1.62-36.83c-5.35 0-16.84 1.67-16.84 1.67zm36.13-3.92s2.78 27.52 2.73 36.82c5.39 0 15.54-2 15.54-2s1.61-27.6.73-37.28c-8.34 1.22-19 2.46-19 2.46zm36.29-4.38s4.62 27.1 2.57 36.34c4.88-.76 16-2.26 16-2.26s4.23-.47 1.57-16.64-6.05-18.57-10.16-18.46a89.62 89.62 0 00-9.98 1.02z"/><path class="cls-6" d="M290.26 125.5q-6.24 0-12.54-.08l-.55-.12c-1.64-.79-2.58-3.16-2.87-7.27-.67-9.4 2.28-26.56 7.59-30.1 3.63-2.42 16.38-2.67 37.49-3.08 18.36-.36 41.2-.81 67.45-2.85 23.41-1.82 43.38-4.37 59.42-6.42 25.63-3.29 36.13-4.49 38.7-1.23 3.76 4.76 9.26 29.94 4.22 34.47l-.27.25-.36.07c-.93.17-90.3 16.36-198.28 16.36zm-12.12-2.68c109.28 1.23 202.48-14.92 209.51-16.17 2.92-3.8-1-26-4.74-30.69-1.76-2.23-17.78-.18-36.33 2.2-16.07 2-36.07 4.61-59.55 6.44-26.33 2-49.21 2.49-67.59 2.85-19.22.37-33.1.65-36.11 2.65-4 2.66-7.11 18.38-6.43 27.74.22 3.16.84 4.57 1.24 4.98z"/><path class="cls-6" d="M329.88 197.32a41.16 41.16 0 118.11-.8 41.67 41.67 0 01-8.11.8zm0-76.73a35.59 35.59 0 00-29.59 15.85 35.55 35.55 0 0029.57 55.24 35.59 35.59 0 0029.59-15.85 35.55 35.55 0 00-29.57-55.24z"/><circle cx="329.89" cy="155.98" r="35.42" opacity=".15" fill="#0075c9"/><path class="cls-5" d="M350.35 164.22a35.89 35.89 0 01.66 8.59 27.52 27.52 0 00-30.5-38.32 27.08 27.08 0 00-4.42 1.28 35.43 35.43 0 0134.26 28.45z"/><path class="cls-6" d="M344.35 193.73a3.23 3.23 0 00-3.8-2.53l-7 1.4a3.22 3.22 0 00.89 6.37l5.68 28.31 7.71-1.55-5.67-28.31a3.21 3.21 0 002.19-3.69z"/><path class="cls-5" d="M349.45 256.74C338 238.68 334.57 222.25 337.84 219 345 212 357 229.5 369 248.51"/><path class="cls-7" d="M354.17 226.25c-.15.2-6.66 7.89-14.27 10.13a154.82 154.82 0 0010.84 24.8l19.52-11z"/><path class="cls-6" d="M349.53 257.66a.92.92 0 01-.86-.42c-11.53-18.2-15.31-35.09-11.48-38.87a5.89 5.89 0 015-1.81c7.67.87 17.86 16 27.63 31.46a.92.92 0 11-1.56 1c-9.12-14.4-19.42-29.83-26.28-30.62a4.07 4.07 0 00-3.49 1.29c-2.8 2.77.45 18.76 11.74 36.57a.93.93 0 01-.7 1.41z"/><path class="cls-6" d="M338.61 235.11c9.69-3.77 14.58-9.19 14.62-9.24l1.83 1.62c-.21.24-5.33 5.92-15.57 9.9z"/></g></svg>