<svg viewBox="0 0 172 172" xmlns="http://www.w3.org/2000/svg" xmlns:xlink="http://www.w3.org/1999/xlink"><style>:root&gt;svg{display:none}:root&gt;svg:target{display:block}</style><svg class="aschedule__svg" style="height:40px;width:40px" viewBox="0 0 60.52 60.52" id="circle" xmlns="http://www.w3.org/2000/svg"><circle fill="#fff" cx="30.26" cy="30.26" r="30.26"/></svg><svg viewBox="0 0 16.36 20.61" id="geo" xmlns="http://www.w3.org/2000/svg"><g data-name="Шар 2"><path d="M7.85 0a8.18 8.18 0 00-.77 16.28v3.17a1.14 1.14 0 102.28 0v-3.17A8.18 8.18 0 007.85 0zm3.78 10.76a3.6 3.6 0 01-6.9 0 .81.81 0 01.78-1h5.35a.81.81 0 01.77 1.01z" data-name="Block 7" fill="#ffb71b"/></g></svg><svg class="cschedule__svg" viewBox="0 0 40 61" id="month" xmlns="http://www.w3.org/2000/svg"><path d="M9.84.34A29.907 29.907 0 000 1.992 30.17 30.17 0 0120.324 30.5 30.176 30.176 0 010 59.016a30.16 30.16 0 0037.453-40.614A30.156 30.156 0 009.84.34zm0 0" fill="#fff"/></svg><svg class="dschedule__svg" viewBox="0 0 40 26" id="sunset" xmlns="http://www.w3.org/2000/svg"><path d="M34.79 14.598C34.79 6.535 28.167 0 20 0S5.21 6.535 5.21 14.598zM.95 16.473h38.1c.5 0 .903.398.903.894 0 .492-.402.89-.902.89H.949a.895.895 0 01-.902-.89c0-.496.402-.894.902-.894zm5.773 3.867h26.554c.5 0 .907.402.907.894a.9.9 0 01-.907.891H6.723a.899.899 0 01-.907-.89c0-.493.407-.895.907-.895zm5.547 3.87h15.46c.5 0 .907.4.907.892a.902.902 0 01-.907.894H12.27a.902.902 0 01-.907-.894.9.9 0 01.907-.891zm0 0" fill="#fff"/></svg><svg version="1.0" viewBox="0 0 129 129" id="telegram" xmlns="http://www.w3.org/2000/svg"><path d="M110.9 18.6c-1.9.7-25.2 9.7-51.9 19.9-26.6 10.2-49.1 19.2-49.9 20-1.2 1.1-1.3 2-.5 3.2 1.2 1.9 26 10.6 28.5 10 .9-.3 14.9-8.6 31.3-18.6C84.7 43 98.5 35 99.1 35.2c.6.2-9.1 9.7-21.6 21.2-12.4 11.4-23.2 21.8-23.9 23-.8 1.2-1.7 6.9-2.1 13.9-.5 9.9-.4 11.7.8 11.7.8 0 4.9-3.2 9.1-7.1l7.5-7 12.6 9.5c6.9 5.3 13.4 10 14.3 10.5 2.4 1.2 5.8-.3 6.5-3.1.3-1.3 4.7-20.9 9.7-43.6 8.4-38.1 9-41.5 7.6-43.6-1.9-3.1-4.5-3.6-8.7-2z"/></svg></svg>